<?xml version="1.0" encoding="utf-8"?>
<!-- Generator: Adobe Illustrator 18.1.1, SVG Export Plug-In . SVG Version: 6.00 Build 0)  -->
<svg version="1.1" xmlns="http://www.w3.org/2000/svg" xmlns:xlink="http://www.w3.org/1999/xlink" x="0px" y="0px"
	 viewBox="0 0 771.9 598.5" enable-background="new 0 0 771.9 598.5" xml:space="preserve">
<g id="Background">
</g>
<g id="Objects">
	<g>
		<path fill="#FAD223" d="M371.9,19.6c-30.9,0-56,25.1-56,56c0,10.2,2.9,19.6,7.5,27.9c13.7,24.8,17.4,27.5,19.6,40.9
			c1.9,11.3,4.5,13.9,13,13.9c3.6,0,9.6,0,15.9,0c6.3,0,12.3,0,15.9,0c8.5,0,11.1-2.6,13-13.9c2.2-13.5,5.9-16.2,19.6-40.9
			c4.6-8.3,7.5-17.8,7.5-27.9C427.9,44.7,402.8,19.6,371.9,19.6z"/>
		<path fill="#FBE6A3" d="M367.1,38.5c-4.7-0.5-28.4-1-35.8,32.4c-0.5,2.4-2.9,3.9-5.2,3.3c-0.9-0.2-1.6-0.6-2.2-1.2
			c-1-1-1.5-2.5-1.2-4.1c9-40.7,39.3-39.9,45.2-39.3c2.4,0.2,4.2,2.4,3.9,4.8C371.6,37,369.5,38.7,367.1,38.5z"/>
		<g>
			<g>
				<g>
					<g>
						<g>
							<path fill="#FFFFFF" d="M379.4,77.2c0-2.3,0.7-7.4,6.8-9c-0.5-2.3,0.4-5.4,1.8-7.5c-2.2-0.2-4.3-1.1-5.4-2.8
								c-0.9,0.4-1.7,0.5-2.5,0.5c-1.8,0-3.2-0.7-3.3-0.7l0.7-1.4c0,0,2.5,1.2,4.7,0.1c1.5-0.7,2.6-2.4,3.2-4.9l1.5,0.3
								c-0.5,2.4-1.5,4.1-2.8,5.2c1,1.6,3.5,2.2,5.6,2.1c4.5-0.9,4.3-5.8,4.2-6.8l0-0.5l0.4-0.2c0.9-0.5,1.9-1.6,2.5-2.4
								c-2.1-2-5.2-3.2-8.5-1.8c-0.6-1.8-3.4-5.6-7.9-5.6c-4.5,0-6.7,3.7-6.7,8.5c0,2.4,0,14.6,0,26.7
								C374.4,76.9,376.8,76.7,379.4,77.2z"/>
						</g>
						<g>
							<path fill="#FFFFFF" d="M395.3,52.8c0.1,3.2-1.1,7-5.2,7.9c-1.9,1.9-3.2,6-2,8.1c0.7,1.2,2.4,3,4.2,3.3l0.7,0.1l-0.1,0.7
								c-0.4,4.2,1.9,7.1,3.7,7.5c2.2,0.5,6-0.2,7.5-3.4l0.3-0.8l0.7,0.4c1,0.6,2,0.7,2.9,0.3c0.7-0.2,1.4-0.7,1.9-1.3
								c-0.2-0.2-0.4-0.3-0.6-0.4c1.4-1.6,2.2-8.7-2-9.8c1.6-5.8-3.2-12-8.3-11.5c0-1.1-0.5-2.3-1.3-3.5
								C397,51.3,396.2,52.2,395.3,52.8z"/>
						</g>
						<g>
							<path fill="#FFFFFF" d="M408.6,78.5c-1.1,0.4-2.3,0.3-3.4-0.1c-1.6,2.8-4.6,3.8-7.1,3.8c-0.4,0-0.7,0-1-0.1
								c-0.4,2.6,0.5,5.5,1,6.8c2.6-1.4,5.9-0.3,6-0.3l-0.3,0.7l-0.3,0.7c0,0-3.2-1.1-5.2,0.4c-1.3,1-1.9,2.8-1.9,5.6l-1.5,0
								c-0.1-2.8,0.5-4.9,1.8-6.2c-0.6-1.3-1.8-4.9-1.3-8.2c-2.3-1-4.3-4.2-4.2-8.2c-2.1-0.6-3.9-2.6-4.6-3.8
								c-5.7,1.4-5.9,6.3-5.9,7.9c1.2,0.4,2.5,0.9,3.5,1.7c1.7,1.3,2.7,3.1,3,5.4c0.4,3.2-1.4,6-2.4,7.2c2.2,1.7,3.5,3.7,3.8,6
								c0.5,3.7-1.7,7-2.7,8.3c1.9,2.2,1.6,5.6,1.6,5.7l-1.5-0.2c0,0,0.3-3.3-1.6-4.9c-1.2-1.1-3.2-1.3-5.8-0.6l-0.4-1.5
								c2.8-0.7,5-0.6,6.6,0.4c0.9-1.2,2.7-4.1,2.3-7.1c-0.3-2.1-1.6-3.9-3.9-5.4l-0.8-0.5l0.7-0.7c0,0,3-3.1,2.5-6.6
								c-0.2-1.9-1-3.3-2.4-4.4c-3.4-2.6-9.2-2-9.9-1.9c0,10.9,0,21.3,0,23.8c0,16.6,17.9,13.4,21.8,5.9c0,0,0.1,0,0.1,0
								c-0.7-0.3-1.4-0.7-1.9-1.3c-2.3-2.4-1.5-6.3-1.5-6.5l1.5,0.3l-0.8-0.2l0.8,0.2v0c0,0.1-0.6,3.3,1.1,5.1
								c1.1,1.2,3,1.6,5.7,1.2c3-1.7,5.7-5.1,5.8-9.7c0.9-0.6,5.6-4.7,3.5-8.6c4.2-3.4,3.6-9,1.3-12
								C410.4,77.5,409.5,78.1,408.6,78.5z"/>
						</g>
					</g>
					<g>
						<g>
							<path fill="#FFFFFF" d="M340.7,73.3c2,0.4,3.9,1.8,5,3.7c0.4,0.8,0.7,1.5,0.8,2.3c2.2-0.1,4-0.9,4.9-2.2
								c0.7-1.1,0.8-2.5,0-4.1l-0.4-0.9l1-0.2c1.9-0.3,4.3-1.7,4.7-3.3c0.7-2.4,0.3-4.8-1.5-7.5c-0.4,0.2-0.9,0.4-1.4,0.6
								c-2.4,0.7-4.9,0.3-7.6-1.3c-0.8,1.4-2.7,4.1-5.8,4.9c-0.9,0.2-1.8,0.3-2.7,0.3c-0.5,0-1,0-1.5-0.1c-3.3,1.1-3.3,6.1-2.4,8.6
								C335.7,73.4,338.2,72.8,340.7,73.3z"/>
						</g>
						<g>
							<path fill="#FFFFFF" d="M340.1,63.8c3.5-0.9,5.2-4.8,5.2-4.8l0.4-0.8l0.8,0.5c2.5,1.7,4.9,2.2,7,1.5c3.2-0.9,5-4.2,5.4-5
								c-0.6-0.9-1-2.1-1.3-3.4l1.5-0.3c0.6,2.5,1.6,4.1,3.2,4.9c2.2,1,4.7-0.1,4.7-0.1l0.7,1.4c-0.1,0-1.5,0.7-3.3,0.7
								c-0.9,0-1.8-0.2-2.7-0.6c-0.6-0.3-1.1-0.7-1.6-1.1c-0.6,1-1.6,2.6-3.3,3.8c1.3,2.1,2.7,5.1,1.6,8.7c-0.5,1.7-2.3,3.2-4.2,3.9
								c3.1,2.1,5.8,2.8,7.9,2.1c2.8-0.9,3.7-4,3.7-4.1l1.5,0.4c0,0.2-1.2,3.9-4.7,5.1c-0.7,0.2-1.4,0.4-2.2,0.4
								c-2,0-4.3-0.8-6.8-2.4c0.2,1.3-0.1,2.5-0.8,3.5c-0.8,1.2-2,2-3.6,2.5c2.8,0.2,6,1.5,7.7,5.7c0.9-2.2,2.6-4,4.9-5
								c2.7-1.1,5.7-1,8.5,0.4c0-12.9,0-27.7,0-31.3c0-4.8-2.2-8.5-6.7-8.5c-4.5,0-7.3,3.8-7.9,5.6c-5.4-2.4-10.8,2.8-10.8,6.5
								c-4.7-0.5-9.1,4.7-8.6,10C337.5,64.2,338.8,64.2,340.1,63.8z"/>
						</g>
						<g>
							<path fill="#FFFFFF" d="M362.3,82.6c-2.4,1-4.2,3.3-4.5,5.8l-0.1,1l-0.9-0.4c-2.1-0.8-4.6-0.5-6,0.3
								c-2.4,1.3-4.1,4.4-2.5,8.3c2.8-0.7,5.5,0.4,7.6,3.1c0,0,0,0,0,0c2.6-2,5.9-1.8,9.3,0.4l-0.9,1.3c-2.7-1.9-5.5-2-7.4-0.5
								c-1.9,1.4-2.6,4.1-1.9,6.3l-1.4,0.5c-0.8-2.3-0.3-5,1.2-6.9c-1.8-2.3-4-3.3-6.2-2.7c-2.3,0.6-4,2.8-4.1,5.1l-1.5-0.1
								c0.1-2.5,1.7-4.8,4-6c-1.8-4.6,0.2-8.5,3.2-10.2c1.3-0.7,3.4-1.2,5.5-0.9c-1.9-5.5-6.8-5.5-9.7-5l-1.3,0.2l0.4-1.2
								c0.3-0.9,0.1-2.2-0.6-3.4c-0.9-1.5-2.3-2.6-3.9-3c-2.6-0.5-5.3,0.4-6.9,1.1c-2.9,2.5-4.1,9.1,0.5,12.8
								c-2.2,3.9,2.6,8,3.5,8.6c0.1,7.4,6.9,11.6,10.9,10.9c3.9,7.5,21.8,10.7,21.8-5.9c0-1.6,0-9.7,0-19
								C367.6,81.9,364.8,81.6,362.3,82.6z"/>
						</g>
					</g>
				</g>
			</g>
		</g>
		<path fill="#F79614" d="M412.1,75.7c-0.2-0.3-0.5-0.5-0.8-0.6c0-0.1,0-0.1,0-0.2c0.8-2,0.9-4.8,0.2-7c-0.5-1.6-1.3-2.8-2.5-3.5
			c0.4-2.9-0.5-5.8-2.3-8.2c-1.7-2.3-4.1-3.7-6.5-4c-0.3-0.9-0.7-1.8-1.4-2.7c-0.2-0.3-0.5-0.5-0.8-0.6c-0.1-0.3-0.2-0.6-0.5-0.8
			c-2.4-2.4-5.8-3.4-8.8-2.7c-1.5-2.5-4.7-5.2-8.9-5.2c-4.6,0-7.4,3.1-8,8.2c-0.7-5-3.5-8.2-8-8.2c-4.1,0-7.3,2.7-8.9,5.2
			c-0.6-0.1-1.2-0.2-1.9-0.2c-4.6,0-8.5,3.5-9.5,7.1c-2.2,0.3-4.3,1.4-5.9,3.2c-2.2,2.4-3.3,5.7-2.9,8.8c0,0.1,0,0.2,0.1,0.2
			c-0.9,0.6-1.6,1.4-2.1,2.4c-1.2,2.5-1,5.9-0.2,7.9c0,0,0,0,0,0c-1.9,1.8-3.1,4.8-3,7.7c0.1,2.6,1,4.9,2.7,6.8
			c-1.1,3.9,2,7.5,3.9,9.1c0.6,7.6,7.1,11.8,11.7,11.9c2.5,3.5,7.5,6,12.5,6c0,0,0,0,0,0c3.4,0,6.3-1.1,8.4-3.2c2-2,2.8-4.8,3.2-8.2
			c0.9,8.4,6.3,11.4,11.6,11.4c5.2,0,10.4-2.7,12.8-6.5c0.2-0.2,0.4-0.4,0.6-0.7c1,0.1,2.2,0.1,3.5-0.1c0.2,0,0.4-0.1,0.6-0.2
			c3.9-2.2,6.3-6,6.7-10.4c1.8-1.6,5-5.2,3.9-9.1C415.2,85.3,414.9,79.3,412.1,75.7z M336.6,65.6c0.5,0.1,1,0.1,1.5,0.1
			c0.9,0,1.8-0.1,2.7-0.3c3.2-0.8,5.1-3.5,5.8-4.9c2.7,1.6,5.2,2,7.6,1.3c0.5-0.2,1-0.4,1.4-0.6c1.7,2.7,2.2,5,1.5,7.5
			c-0.5,1.6-2.8,3-4.7,3.3l-1,0.2l0.4,0.9c0.7,1.5,0.7,2.9,0,4.1c-0.9,1.3-2.7,2.1-4.9,2.2c-0.1-0.8-0.4-1.6-0.8-2.3
			c-1.1-1.9-2.9-3.3-5-3.7c-2.5-0.5-5.1,0.1-6.9,0.8C333.3,71.6,333.3,66.7,336.6,65.6z M370.5,102.4c0,16.6-17.9,13.4-21.8,5.9
			c-4,0.7-10.8-3.5-10.9-10.9c-0.9-0.6-5.6-4.7-3.5-8.6c-4.6-3.7-3.4-10.3-0.5-12.8c1.6-0.8,4.3-1.7,6.9-1.1c1.6,0.3,3.1,1.4,3.9,3
			c0.7,1.2,0.9,2.4,0.6,3.4l-0.4,1.2l1.3-0.2c2.9-0.5,7.8-0.5,9.7,5c-2.1-0.3-4.2,0.2-5.5,0.9c-3,1.7-5,5.6-3.2,10.2
			c-2.2,1.1-3.8,3.5-4,6l1.5,0.1c0.1-2.3,1.9-4.5,4.1-5.1c2.2-0.6,4.5,0.4,6.2,2.7c-1.5,1.9-2.1,4.6-1.2,6.9l1.4-0.5
			c-0.8-2.2,0-4.8,1.9-6.3c2-1.6,4.7-1.4,7.4,0.5l0.9-1.3c-3.3-2.3-6.7-2.4-9.3-0.4c0,0,0,0,0,0c-2.1-2.7-4.8-3.8-7.6-3.1
			c-1.5-3.9,0.2-7,2.5-8.3c1.4-0.8,3.9-1.1,6-0.3l0.9,0.4l0.1-1c0.3-2.5,2.1-4.7,4.5-5.8c2.5-1,5.3-0.8,7.9,0.8
			C370.5,92.7,370.5,100.7,370.5,102.4z M370.5,81.6c-2.8-1.4-5.8-1.6-8.5-0.4c-2.3,1-4,2.8-4.9,5c-1.6-4.2-4.9-5.5-7.7-5.7
			c1.5-0.5,2.8-1.3,3.6-2.5c0.7-1,0.9-2.2,0.8-3.5c2.5,1.6,4.8,2.4,6.8,2.4c0.8,0,1.5-0.1,2.2-0.4c3.5-1.2,4.6-4.9,4.7-5.1l-1.5-0.4
			c0,0-1,3.1-3.7,4.1c-2.1,0.7-4.8,0-7.9-2.1c1.9-0.8,3.7-2.2,4.2-3.9c1-3.6-0.3-6.6-1.6-8.7c1.6-1.2,2.7-2.8,3.3-3.8
			c0.5,0.5,1,0.9,1.6,1.1c0.9,0.4,1.9,0.6,2.7,0.6c1.8,0,3.2-0.7,3.3-0.7l-0.7-1.4c0,0-2.5,1.2-4.7,0.1c-1.5-0.7-2.6-2.4-3.2-4.9
			l-1.5,0.3c0.3,1.4,0.8,2.5,1.3,3.4c-0.4,0.9-2.3,4.1-5.4,5c-2.1,0.6-4.5,0.1-7-1.5l-0.8-0.5l-0.4,0.8c0,0-1.7,3.9-5.2,4.8
			c-1.3,0.3-2.6,0.4-3.8,0.2c-0.5-5.4,3.9-10.5,8.6-10c0-3.7,5.3-8.8,10.8-6.5c0.6-1.8,3.4-5.6,7.9-5.6s6.7,3.7,6.7,8.5
			C370.5,54,370.5,68.7,370.5,81.6z M398.6,54c5.1-0.5,9.9,5.6,8.3,11.5c4.2,1.1,3.5,8.2,2,9.8c0.2,0.1,0.4,0.2,0.6,0.4
			c-0.5,0.5-1.2,1-1.9,1.3c-0.9,0.3-1.9,0.2-2.9-0.3l-0.7-0.4l-0.3,0.8c-1.5,3.2-5.3,4-7.5,3.4c-1.8-0.4-4-3.3-3.7-7.5l0.1-0.7
			l-0.7-0.1c-1.8-0.3-3.6-2.1-4.2-3.3c-1.2-2.1,0.1-6.2,2-8.1c4.1-0.9,5.4-4.7,5.2-7.9c0.9-0.6,1.7-1.5,2.4-2.3
			C398.1,51.7,398.6,52.9,398.6,54z M373.2,50.4c0-4.8,2.2-8.5,6.7-8.5c4.5,0,7.3,3.8,7.9,5.6c3.2-1.4,6.4-0.2,8.5,1.8
			c-0.7,0.8-1.6,1.9-2.5,2.4l-0.4,0.2l0,0.5c0.1,1,0.3,5.8-4.2,6.8c-2.1,0.1-4.6-0.6-5.6-2.1c1.3-1.1,2.3-2.8,2.8-5.2l-1.5-0.3
			c-0.6,2.5-1.6,4.1-3.2,4.9c-2.2,1-4.7-0.1-4.7-0.1l-0.7,1.4c0.1,0,1.5,0.7,3.3,0.7c0.8,0,1.7-0.1,2.5-0.5c1,1.7,3.2,2.6,5.4,2.8
			c-1.5,2.1-2.3,5.1-1.8,7.5c-6.2,1.6-6.9,6.7-6.9,9c-2.6-0.5-5-0.3-5.8-0.2C373.2,65,373.2,52.8,373.2,50.4z M405.8,97.4
			c-0.1,4.7-2.8,8-5.8,9.7c-2.7,0.4-4.6,0-5.7-1.2c-1.7-1.8-1.1-5-1.1-5.1v0l-0.8-0.2l-0.8-0.2c0,0.2-0.8,4,1.5,6.5
			c0.5,0.5,1.1,1,1.9,1.3c0,0-0.1,0-0.1,0c-3.9,7.5-21.8,10.7-21.8-5.9c0-2.5,0-12.9,0-23.8c0.7-0.1,6.5-0.7,9.9,1.9
			c1.4,1,2.2,2.5,2.4,4.4c0.4,3.6-2.5,6.6-2.5,6.6l-0.7,0.7l0.8,0.5c2.3,1.5,3.6,3.3,3.9,5.4c0.4,3-1.4,5.9-2.3,7.1
			c-1.6-1-3.8-1.2-6.6-0.4l0.4,1.5c2.6-0.7,4.6-0.5,5.8,0.6c1.9,1.6,1.6,4.9,1.6,4.9l1.5,0.2c0-0.2,0.3-3.5-1.6-5.7
			c1-1.3,3.2-4.6,2.7-8.3c-0.3-2.3-1.6-4.3-3.8-6c1-1.2,2.8-4,2.4-7.2c-0.3-2.3-1.3-4.1-3-5.4c-1-0.8-2.3-1.3-3.5-1.7
			c-0.1-1.6,0.1-6.5,5.9-7.9c0.7,1.2,2.5,3.2,4.6,3.8c-0.1,4,1.9,7.2,4.2,8.2c-0.6,3.3,0.7,6.9,1.3,8.2c-1.3,1.3-1.9,3.4-1.8,6.2
			l1.5,0c-0.1-2.7,0.6-4.6,1.9-5.6c2-1.5,5.2-0.4,5.2-0.4l0.3-0.7l0.3-0.7c-0.1-0.1-3.4-1.2-6,0.3c-0.5-1.4-1.4-4.2-1-6.8
			c0.3,0,0.7,0.1,1,0.1c2.5,0,5.5-1,7.1-3.8c1.2,0.5,2.3,0.5,3.4,0.1c1-0.3,1.8-1,2.5-1.7c2.3,2.9,2.9,8.6-1.3,12
			C411.5,92.7,406.8,96.8,405.8,97.4z"/>
		<g>
			<g>
				<path fill="#B5B5B7" d="M397.5,178.6c0,2.8-3,4.9-6.2,4.9h-39.8c-3.3,0-5.9-2.1-5.9-4.9v-20.5c0-2.8,2.7-5.1,5.9-5.1h39.8
					c3.3,0,6.2,2.3,6.2,5.1V178.6z"/>
				<path fill="#ECEDEF" d="M400.6,144.6c-5.6,1.4-23.2,2-28.8,2.1c-5.6-0.1-23.1-0.7-28.7-2.1c0,0-1.6,0.2-0.4,2.2
					c0,0,0.9,1,1.1,3.9c0.3,3.4-0.7,5.7,0.6,7.4h25.6h3.4h25.8c1.3-1.7,0.5-3.9,0.6-7.4c0.1-2.4,1.1-3.8,1.1-3.8
					C402.1,145,400.6,144.6,400.6,144.6z"/>
				<path fill="#ECEDEF" d="M399.1,162.6c0,1-1,1.7-2.2,1.7h-51.7c-1.2,0-2.2-0.7-2.2-1.7l0,0c0-1,1-1.7,2.2-1.7h51.7
					C398.1,160.9,399.1,161.6,399.1,162.6L399.1,162.6z"/>
				<path fill="#ECEDEF" d="M399.1,169.1c0,1-1,2-2.2,2h-51.7c-1.2,0-2.2-0.9-2.2-2l0,0c0-1,1-2,2.2-2h51.7
					C398.1,167.1,399.1,168.1,399.1,169.1L399.1,169.1z"/>
				<path fill="#ECEDEF" d="M399.1,176.2c0,1-1,1.7-2.2,1.7h-51.6c-1.2,0-2.2-0.7-2.2-1.7l0,0c0-1,1-1.7,2.2-1.7h51.6
					C398.1,174.5,399.1,175.1,399.1,176.2L399.1,176.2z"/>
				<path fill="#ECEDEF" d="M399.1,182.7c0,1-1,2-2.2,2h-51.6c-1.2,0-2.2-0.9-2.2-2l0,0c0-1,1-2,2.2-2h51.6
					C398.1,180.7,399.1,181.6,399.1,182.7L399.1,182.7z"/>
			</g>
			<path fill="#B5B5B7" d="M354.1,184.6c3.1,6.2,9.6,10.5,17,10.5c7.5,0,13.9-4.3,17-10.5H354.1z"/>
		</g>
	</g>
	<g>
		<circle fill="#9ECCE4" cx="40.7" cy="180.7" r="28.3"/>
		<rect x="22.3" y="167.6" fill="#FFFFFF" width="36.7" height="26.2"/>
		<polygon fill="#2C5871" points="23.5,192.5 23.5,187.3 27,189.9 32.2,185.1 35.9,187.6 43.1,179 47.8,182.1 58,170.6 58,192.5 		
			"/>
	</g>
	<g>
		<circle fill="#9ECCE4" cx="120.9" cy="94.2" r="20.7"/>
		<g>
			<g>
				<g>
					<polygon fill="#2C5871" points="115.1,94 106.3,85.2 106.3,102.7 					"/>
					<path fill="#2C5871" d="M121.9,97.2l12.4-12.4h-26.8L120,97.2C120.5,97.7,121.4,97.7,121.9,97.2z"/>
					<path fill="#2C5871" d="M125.9,94.8l-3.2,3.2c-0.5,0.5-1.1,0.7-1.8,0.7c-0.7,0-1.3-0.3-1.8-0.7l-3.2-3.2l-8.6,8.6h27.3
						L125.9,94.8z"/>
					<polygon fill="#2C5871" points="126.8,94 135.5,102.7 135.5,85.2 					"/>
				</g>
			</g>
			<path fill="#2C5871" d="M120.9,98.8C120.9,98.8,120.9,98.8,120.9,98.8l0,4.7h13.7l-8.7-8.6l-3.2,3.2
				C122.2,98.5,121.6,98.8,120.9,98.8z"/>
			<path fill="#2C5871" d="M120.9,97.6c0.4,0,0.7-0.1,1-0.4l12.4-12.4h-13.4V97.6z"/>
		</g>
	</g>
	<g>
		<g>
			<circle fill="#9ECCE4" cx="731.3" cy="114.3" r="24.7"/>
		</g>
		<g id="calculator">
			<path fill="#617B93" d="M743.4,107.5h-24.3v23.2c0,0.3,0.1,0.6,0.3,0.8c0.2,0.2,0.5,0.3,0.8,0.3h22.1c0.3,0,0.6-0.1,0.8-0.3
				c0.2-0.2,0.3-0.5,0.3-0.8L743.4,107.5z"/>
			<polygon opacity="0.1" fill="#FFFFFF" points="722.2,107.5 743.4,107.5 743.4,127.9 			"/>
			<g>
				<g>
					<g>
						<path fill="#21D8DE" d="M730.1,112.8c0,0.1-0.1,0.2-0.2,0.2h-8.1c-0.1,0-0.2-0.1-0.2-0.2v-2.6c0-0.1,0.1-0.2,0.2-0.2h8.1
							c0.1,0,0.2,0.1,0.2,0.2V112.8z"/>
					</g>
					<g>
						<path fill="#E64717" d="M735.6,112.8c0,0.1-0.1,0.2-0.2,0.2h-2.6c-0.1,0-0.2-0.1-0.2-0.2v-2.6c0-0.1,0.1-0.2,0.2-0.2h2.6
							c0.1,0,0.2,0.1,0.2,0.2V112.8z"/>
					</g>
					<g>
						<g>
							<path fill="#F2F9FF" d="M741.1,112.8c0,0.1-0.1,0.2-0.2,0.2h-2.6c-0.1,0-0.2-0.1-0.2-0.2v-2.6c0-0.1,0.1-0.2,0.2-0.2h2.6
								c0.1,0,0.2,0.1,0.2,0.2V112.8z"/>
						</g>
					</g>
					<g>
						<g>
							<path fill="#F2F9FF" d="M724.6,118.3c0,0.1-0.1,0.2-0.2,0.2h-2.6c-0.1,0-0.2-0.1-0.2-0.2v-2.6c0-0.1,0.1-0.2,0.2-0.2h2.6
								c0.1,0,0.2,0.1,0.2,0.2L724.6,118.3z"/>
						</g>
					</g>
					<g>
						<g>
							<path fill="#F2F9FF" d="M730.1,118.3c0,0.1-0.1,0.2-0.2,0.2h-2.6c-0.1,0-0.2-0.1-0.2-0.2v-2.6c0-0.1,0.1-0.2,0.2-0.2h2.6
								c0.1,0,0.2,0.1,0.2,0.2V118.3z"/>
						</g>
					</g>
					<g>
						<g>
							<path fill="#F2F9FF" d="M735.6,118.3c0,0.1-0.1,0.2-0.2,0.2l-2.6,0c-0.1,0-0.2-0.1-0.2-0.2l0-2.6c0-0.1,0.1-0.2,0.2-0.2h2.6
								c0.1,0,0.2,0.1,0.2,0.2L735.6,118.3z"/>
						</g>
					</g>
					<g>
						<g>
							<path fill="#F2F9FF" d="M741.1,118.3c0,0.1-0.1,0.2-0.2,0.2h-2.6c-0.1,0-0.2-0.1-0.2-0.2v-2.6c0-0.1,0.1-0.2,0.2-0.2h2.6
								c0.1,0,0.2,0.1,0.2,0.2V118.3z"/>
						</g>
					</g>
					<g>
						<g>
							<path fill="#F2F9FF" d="M724.6,123.7c0,0.1-0.1,0.2-0.2,0.2l-2.6,0c-0.1,0-0.2-0.1-0.2-0.2v-2.6c0-0.1,0.1-0.2,0.2-0.2h2.6
								c0.1,0,0.2,0.1,0.2,0.2L724.6,123.7z"/>
						</g>
					</g>
					<g>
						<g>
							<path fill="#F2F9FF" d="M730.1,123.7c0,0.1-0.1,0.2-0.2,0.2h-2.6c-0.1,0-0.2-0.1-0.2-0.2v-2.6c0-0.1,0.1-0.2,0.2-0.2h2.6
								c0.1,0,0.2,0.1,0.2,0.2V123.7z"/>
						</g>
					</g>
					<g>
						<path fill="#20364D" d="M735.6,123.7c0,0.1-0.1,0.2-0.2,0.2h-2.6c-0.1,0-0.2-0.1-0.2-0.2v-2.6c0-0.1,0.1-0.2,0.2-0.2h2.6
							c0.1,0,0.2,0.1,0.2,0.2V123.7z"/>
					</g>
					<g>
						<g>
							<path fill="#F2F9FF" d="M724.6,129.2c0,0.1-0.1,0.2-0.2,0.2h-2.6c-0.1,0-0.2-0.1-0.2-0.2v-2.6c0-0.1,0.1-0.2,0.2-0.2h2.6
								c0.1,0,0.2,0.1,0.2,0.2V129.2z"/>
						</g>
					</g>
					<g>
						<g>
							<path fill="#F2F9FF" d="M730.1,129.2c0,0.1-0.1,0.2-0.2,0.2h-2.6c-0.1,0-0.2-0.1-0.2-0.2l0-2.6c0-0.1,0.1-0.2,0.2-0.2h2.6
								c0.1,0,0.2,0.1,0.2,0.2V129.2z"/>
						</g>
					</g>
					<g>
						<g>
							<path fill="#20364D" d="M735.6,129.2c0,0.1-0.1,0.2-0.2,0.2h-2.6c-0.1,0-0.2-0.1-0.2-0.2l0-2.6c0-0.1,0.1-0.2,0.2-0.2h2.6
								c0.1,0,0.2,0.1,0.2,0.2V129.2z"/>
						</g>
					</g>
					<g>
						<path fill="#20364D" d="M741.1,129.2c0,0.1-0.1,0.2-0.2,0.2h-2.6c-0.1,0-0.2-0.1-0.2-0.2v-2.6c0-0.1,0.1-0.2,0.2-0.2h2.6
							c0.1,0,0.2,0.1,0.2,0.2V129.2z"/>
					</g>
					<g>
						<path fill="#20364D" d="M741.1,123.7c0,0.1-0.1,0.2-0.2,0.2h-2.6c-0.1,0-0.2-0.1-0.2-0.2v-2.6c0-0.1,0.1-0.2,0.2-0.2h2.6
							c0.1,0,0.2,0.1,0.2,0.2V123.7z"/>
					</g>
				</g>
			</g>
			<path fill="#365772" d="M743.4,97.9c0-0.3-0.1-0.6-0.3-0.8c-0.2-0.2-0.5-0.3-0.8-0.3l-22.1,0c-0.3,0-0.6,0.1-0.8,0.3
				c-0.2,0.2-0.3,0.5-0.3,0.8l0,9.7h24.3L743.4,97.9z"/>
			<path fill="#2F4F6B" d="M721.8,105.6c-0.2,0-0.3-0.1-0.5-0.2c-0.1-0.1-0.2-0.3-0.2-0.5v-5.6c0-0.2,0.1-0.3,0.2-0.5
				c0.1-0.1,0.3-0.2,0.5-0.2h19.1c0.2,0,0.3,0.1,0.5,0.2c0.1,0.1,0.2,0.3,0.2,0.5v5.6c0,0.2-0.1,0.3-0.2,0.5
				c-0.1,0.1-0.3,0.2-0.5,0.2H721.8z"/>
			<path fill="#FEC00F" d="M721.8,99.1c0,0-0.1,0-0.1,0.1c0,0-0.1,0.1-0.1,0.1v5.6c0,0,0,0.1,0.1,0.1c0,0,0.1,0.1,0.1,0.1h19.1
				c0.1,0,0.1,0,0.1-0.1c0,0,0.1-0.1,0.1-0.1v-5.6c0,0,0-0.1-0.1-0.1c0,0-0.1-0.1-0.1-0.1H721.8z"/>
			<rect x="719.1" y="107.1" fill="#2F4F6B" width="24.3" height="0.5"/>
		</g>
	</g>
	<g>
		<g>
			<circle fill="#9ECCE4" cx="511.9" cy="203.6" r="22.6"/>
		</g>
		<g>
			<g>
				<g>
					<path fill="#0E303F" d="M525,219.7c0,0.7-0.5,1.2-1.2,1.2h-23.9c-0.7,0-1.2-0.5-1.2-1.2v-30.8c0-0.7,0.5-1.2,1.2-1.2h23.9
						c0.6,0,1.2,0.5,1.2,1.2V219.7z"/>
					<path fill="#2C5871" d="M525,218.8c0,0.7-0.5,1.2-1.2,1.2h-23.9c-0.7,0-1.2-0.5-1.2-1.2V188c0-0.6,0.5-1.2,1.2-1.2h23.9
						c0.6,0,1.2,0.5,1.2,1.2V218.8z"/>
					<rect x="500.9" y="189" fill="#FFFFFF" width="22" height="28.9"/>
					<rect x="500.9" y="216.9" fill="#CFEAF9" width="22" height="0.9"/>
					<path fill="#8DC2D5" d="M517,190.5v-1.2c0-0.4-0.3-0.7-0.7-0.7h-8.8c-0.4,0-0.7,0.3-0.7,0.7v1.2H517z"/>
					<path fill="#A4D8E7" d="M517,190v-1.2c0-0.4-0.3-0.7-0.7-0.7h-8.8c-0.4,0-0.7,0.3-0.7,0.7v1.2H517z"/>
					<circle fill="#A4D8E7" cx="511.9" cy="188" r="1.6"/>
					<path fill="#2C5871" d="M512.6,188c0,0.4-0.3,0.7-0.7,0.7c-0.4,0-0.7-0.3-0.7-0.7c0-0.4,0.3-0.7,0.7-0.7
						C512.3,187.3,512.6,187.7,512.6,188z"/>
					<g>
						<rect x="506.2" y="196.7" fill="#A4D8E7" width="13.7" height="0.7"/>
						<rect x="506.2" y="199.7" fill="#A4D8E7" width="13.7" height="0.7"/>
						<rect x="506.2" y="202.6" fill="#A4D8E7" width="13.7" height="0.7"/>
						<rect x="506.2" y="205.6" fill="#A4D8E7" width="13.7" height="0.7"/>
					</g>
					<g>
						<path fill="#F9AA0D" d="M503.7,197.9c-0.1,0-0.2,0-0.2-0.1l-0.5-0.6c-0.1-0.1-0.1-0.3,0-0.5c0.1-0.1,0.3-0.1,0.5,0l0.3,0.3
							l1-1.2c0.1-0.1,0.3-0.2,0.5,0c0.1,0.1,0.2,0.3,0,0.5l-1.2,1.5C503.9,197.9,503.8,197.9,503.7,197.9
							C503.7,197.9,503.7,197.9,503.7,197.9z"/>
					</g>
					<g>
						<path fill="#F9AA0D" d="M503.7,200.8c-0.1,0-0.2,0-0.2-0.1l-0.5-0.6c-0.1-0.1-0.1-0.3,0-0.5c0.1-0.1,0.3-0.1,0.5,0l0.3,0.3
							l1-1.2c0.1-0.1,0.3-0.2,0.5,0c0.1,0.1,0.2,0.3,0,0.5l-1.2,1.5C503.9,200.7,503.8,200.8,503.7,200.8
							C503.7,200.8,503.7,200.8,503.7,200.8z"/>
					</g>
					<g>
						<path fill="#F9AA0D" d="M503.7,203.6c-0.1,0-0.2,0-0.2-0.1l-0.5-0.6c-0.1-0.1-0.1-0.3,0-0.5c0.1-0.1,0.3-0.1,0.5,0l0.3,0.3
							l1-1.2c0.1-0.1,0.3-0.2,0.5,0c0.1,0.1,0.2,0.3,0,0.5l-1.2,1.5C503.9,203.6,503.8,203.6,503.7,203.6
							C503.7,203.6,503.7,203.6,503.7,203.6z"/>
					</g>
					<g>
						<path fill="#15AEBD" d="M512.5,214C512.5,214,512.5,214,512.5,214c-0.2,0-0.3-0.3-0.4-0.4c-0.2-0.6-0.1-1.2,0.2-1.7
							c-0.1-0.2-0.1-0.3-0.2-0.5c0-0.1,0-0.2,0.1-0.3c0.1,0,0.2,0,0.2,0.1c0.1,0.1,0.1,0.2,0.2,0.3c0.3-0.3,0.8-0.5,1.2-0.5
							c0.6,0,1.2,0.5,1.5,1.1c0,0,0,0,0,0.1c0.6-0.4,1.3-0.7,1.7-0.6c0.5,0.1,0.6,0.6,0.6,0.9c0.1-0.2,0.2-0.3,0.2-0.4
							c0.1-0.4,0.3-0.4,1.2-0.2l0.2,0c0.1,0,0.2,0.1,0.1,0.2c0,0.1-0.1,0.2-0.2,0.1l-0.2,0c-0.4-0.1-0.7-0.1-0.8-0.1l0,0
							c0,0,0,0,0,0.1c0,0.1-0.1,0.3-0.3,0.6c-0.1,0.2-0.3,0.3-0.5,0.3c-0.2-0.1-0.2-0.2-0.2-0.4c0-0.4,0-0.6-0.3-0.7
							c-0.4,0-1,0.3-1.5,0.6c0.1,0.3,0.2,0.7,0.1,0.9c-0.1,0.1-0.2,0.2-0.5,0.1c-0.4-0.1-0.4-0.4-0.4-0.5c0-0.2,0.2-0.4,0.4-0.6
							c0,0,0-0.1-0.1-0.1c-0.3-0.4-0.7-0.9-1.2-0.9c-0.4,0-0.8,0.2-1.1,0.6c0.2,0.8,0.1,1.7,0,1.9C512.6,214,512.6,214,512.5,214z
							 M512.5,212.5c-0.1,0.3-0.1,0.7,0,1c0,0,0,0,0,0C512.5,213.3,512.6,212.9,512.5,212.5z M515.3,212.7c-0.1,0.1-0.2,0.2-0.2,0.3
							c0,0,0,0.1,0.1,0.1c0.1,0,0.1,0,0.2,0C515.4,213.1,515.4,212.9,515.3,212.7z"/>
					</g>
				</g>
			</g>
		</g>
	</g>
	<g>
		<circle fill="#9ECCE4" cx="298.1" cy="202.7" r="28.3"/>
		<g>
			<circle fill="#0E303F" cx="298.1" cy="202.7" r="20.3"/>
			<circle fill="#2C5871" cx="298.1" cy="202.7" r="19.2"/>
			<circle fill="#FFFFFF" cx="298.1" cy="202.7" r="15.6"/>
			<circle fill="#0E303F" cx="298.1" cy="202.7" r="2.7"/>
			<g>
				<g>
					<g>
						<g>
							<path fill="#0E303F" d="M304.5,191.9c0,0-0.1,0-0.1,0c-0.1-0.1-0.1-0.2-0.1-0.3l0.4-0.7c0.1-0.1,0.2-0.1,0.3-0.1
								c0.1,0.1,0.1,0.2,0.1,0.3l-0.4,0.7C304.6,191.9,304.5,191.9,304.5,191.9L304.5,191.9z"/>
						</g>
						<g>
							<path fill="#0E303F" d="M291.3,214.6c0,0-0.1,0-0.1,0c-0.1-0.1-0.1-0.2-0.1-0.3l0.4-0.7c0.1-0.1,0.2-0.1,0.3-0.1
								c0.1,0.1,0.1,0.2,0.1,0.3l-0.4,0.7C291.5,214.6,291.4,214.6,291.3,214.6L291.3,214.6z"/>
						</g>
						<g>
							<path fill="#0E303F" d="M309.8,209.7c0,0-0.1,0-0.1,0l-0.7-0.4c-0.1-0.1-0.1-0.2-0.1-0.3c0.1-0.1,0.2-0.1,0.3-0.1l0.7,0.4
								c0.1,0.1,0.1,0.2,0.1,0.3C310,209.6,309.9,209.7,309.8,209.7L309.8,209.7z"/>
						</g>
						<g>
							<path fill="#0E303F" d="M287.1,196.5c0,0-0.1,0-0.1,0l-0.7-0.4c-0.1-0.1-0.1-0.2-0.1-0.3c0.1-0.1,0.2-0.1,0.3-0.1l0.7,0.4
								c0.1,0.1,0.1,0.2,0.1,0.3C287.2,196.5,287.2,196.5,287.1,196.5L287.1,196.5z"/>
						</g>
					</g>
					<g>
						<g>
							<path fill="#0E303F" d="M291.7,191.9c-0.1,0-0.1,0-0.2-0.1l-0.4-0.7c-0.1-0.1,0-0.2,0.1-0.3c0.1-0.1,0.2,0,0.3,0.1l0.4,0.7
								c0.1,0.1,0,0.2-0.1,0.3C291.8,191.9,291.8,191.9,291.7,191.9L291.7,191.9z"/>
						</g>
						<g>
							<path fill="#0E303F" d="M304.9,214.6c-0.1,0-0.1,0-0.2-0.1l-0.4-0.7c-0.1-0.1,0-0.2,0.1-0.3c0.1-0.1,0.2,0,0.3,0.1l0.4,0.7
								c0.1,0.1,0,0.2-0.1,0.3C304.9,214.6,304.9,214.6,304.9,214.6L304.9,214.6z"/>
						</g>
						<g>
							<path fill="#0E303F" d="M286.4,209.7c-0.1,0-0.1,0-0.2-0.1c-0.1-0.1,0-0.2,0.1-0.3l0.7-0.4c0.1-0.1,0.2,0,0.3,0.1
								c0.1,0.1,0,0.2-0.1,0.3l-0.7,0.4C286.5,209.7,286.4,209.7,286.4,209.7L286.4,209.7z"/>
						</g>
						<g>
							<path fill="#0E303F" d="M309.1,196.5c-0.1,0-0.1,0-0.2-0.1c-0.1-0.1,0-0.2,0.1-0.3l0.7-0.4c0.1-0.1,0.2,0,0.3,0.1
								c0.1,0.1,0,0.2-0.1,0.3l-0.7,0.4C309.2,196.5,309.2,196.5,309.1,196.5L309.1,196.5z"/>
						</g>
					</g>
					<g>
						<g>
							<path fill="#0E303F" d="M285.4,202.9L285.4,202.9h-0.8c-0.1,0-0.2-0.1-0.2-0.2c0-0.1,0.1-0.2,0.2-0.2l0,0h0.8
								c0.1,0,0.2,0.1,0.2,0.2C285.6,202.8,285.5,202.9,285.4,202.9L285.4,202.9z"/>
						</g>
						<g>
							<path fill="#0E303F" d="M310.8,202.9c-0.1,0-0.2-0.1-0.2-0.2c0-0.1,0.1-0.2,0.2-0.2l0.8,0l0,0c0.1,0,0.2,0.1,0.2,0.2
								c0,0.1-0.1,0.2-0.2,0.2L310.8,202.9L310.8,202.9L310.8,202.9z"/>
						</g>
						<g>
							<path fill="#0E303F" d="M298.1,216.4L298.1,216.4c-0.1,0-0.2-0.1-0.2-0.2l0-0.8c0-0.1,0.1-0.2,0.2-0.2h0
								c0.1,0,0.2,0.1,0.2,0.2l0,0.8C298.3,216.3,298.2,216.4,298.1,216.4L298.1,216.4z"/>
						</g>
						<g>
							<path fill="#0E303F" d="M298.1,190.2c-0.1,0-0.2-0.1-0.2-0.2v-0.8c0-0.2,0.4-0.2,0.4,0v0.8
								C298.3,190.1,298.2,190.2,298.1,190.2L298.1,190.2z"/>
						</g>
					</g>
				</g>
				<g>
					<g>
						<path fill="#0E303F" d="M298.1,203.4c-0.4,0-0.7-0.3-0.7-0.7v-10.6c0-0.4,0.3-0.7,0.7-0.7s0.7,0.3,0.7,0.7v10.6
							C298.8,203.1,298.5,203.4,298.1,203.4L298.1,203.4z"/>
					</g>
					<g>
						<path fill="#0E303F" d="M293.5,208c-0.2,0-0.4-0.1-0.5-0.2c-0.3-0.3-0.3-0.7,0-1l4.5-4.5c0.3-0.3,0.7-0.3,1,0
							c0.3,0.3,0.3,0.7,0,1l-4.5,4.5C293.8,208,293.6,208,293.5,208L293.5,208z"/>
					</g>
				</g>
			</g>
			<circle fill="#FFFFFF" cx="298.1" cy="202.7" r="1.6"/>
			<circle fill="#F99B1C" cx="298.1" cy="202.7" r="0.8"/>
			<g>
				<path fill="#F99B1C" d="M298.1,203c-0.2,0-0.3-0.1-0.3-0.3c-0.1-0.2,0-0.4,0.2-0.4l9.2-2.8c0.2-0.1,0.4,0.1,0.4,0.2
					c0.1,0.2,0,0.4-0.2,0.4l-9.2,2.8C298.2,203,298.1,203,298.1,203L298.1,203z"/>
			</g>
		</g>
	</g>
	<g>
		<g>
			<circle fill="#9ECCE4" cx="455.7" cy="122.2" r="22.6"/>
		</g>
		<g>
			<g>
				<g>
					<path fill="#E64717" d="M457.2,110.9c-1.7-1.7-4-2.7-6.4-2.7c-2.4,0-4.7,0.9-6.4,2.7c-1.7,1.7-2.6,4-2.7,6.4c0,5,4,9.1,9,9.1
						c2.4,0,4.7-0.9,6.4-2.7c0,0,0,0,0,0c1.7-1.7,2.6-4,2.7-6.4C459.8,114.9,458.9,112.6,457.2,110.9z M455.5,122
						c-1.3,1.3-3,2-4.8,2c-3.7,0-6.7-3-6.7-6.7c0-1.8,0.7-3.5,2-4.7c1.3-1.3,3-2,4.8-2c1.8,0,3.5,0.7,4.8,2c1.3,1.3,2,3,2,4.8
						C457.5,119.1,456.8,120.7,455.5,122z"/>
					<path fill="#2F4F6B" d="M469.3,135.9C469.3,135.9,469.3,135.9,469.3,135.9c-1,0.9-2.5,0.9-3.4,0l-7.4-7.4
						c-0.9-0.9-0.9-2.5,0-3.4c0,0,0,0,0,0c0.9-0.9,2.5-0.9,3.4,0l7.4,7.4C470.3,133.4,470.3,134.9,469.3,135.9L469.3,135.9z"/>
					<g>
						<path fill="none" d="M456.7,123.2"/>
					</g>
					<path fill="#FEC00F" d="M457.5,110.6c-1.8-1.8-4.2-2.8-6.7-2.8c-2.5,0-4.9,1-6.7,2.8c-1.8,1.8-2.8,4.2-2.8,6.7
						c0,5.2,4.2,9.5,9.5,9.5c2.5,0,4.9-1,6.7-2.8c0,0,0,0,0,0c1.8-1.8,2.8-4.2,2.8-6.7C460.3,114.7,459.3,112.4,457.5,110.6z
						 M456.5,123c-1.5,1.5-3.6,2.4-5.8,2.4c-4.5,0-8.1-3.7-8.1-8.1c0-2.2,0.9-4.2,2.4-5.7c1.5-1.5,3.6-2.4,5.8-2.4
						c2.2,0,4.2,0.9,5.7,2.4c1.5,1.5,2.4,3.6,2.4,5.7C458.9,119.4,458.1,121.5,456.5,123z"/>
					<g opacity="0.5">
						<path fill="#F99B1C" d="M449.3,110.4c0.1,0,0.1,0,0.2,0C449.4,110.3,449.4,110.3,449.3,110.4z"/>
						<path fill="#F99B1C" d="M455.3,122.7c-0.1,0.1-0.1,0.1-0.2,0.2C455.1,122.8,455.2,122.8,455.3,122.7z"/>
						<path fill="#F99B1C" d="M450,110.2c0,0,0.1,0,0.1,0C450.1,110.2,450.1,110.2,450,110.2z"/>
						<path fill="#F99B1C" d="M454.2,123.4c-0.1,0.1-0.2,0.1-0.3,0.2C454,123.5,454.1,123.5,454.2,123.4z"/>
						<path fill="#F99B1C" d="M454.7,123.1c-0.1,0.1-0.2,0.1-0.3,0.2C454.5,123.2,454.6,123.2,454.7,123.1z"/>
					</g>
					<g>
						<path fill="#365772" d="M459.5,126c-0.5,0.5-1.2,0.5-1.7,0l-1.5-1.6c-0.5-0.5-0.5-1.2,0-1.7c0,0,0,0,0,0
							c0.5-0.5,1.2-0.5,1.7,0l1.5,1.6C459.9,124.8,459.9,125.5,459.5,126C459.5,126,459.5,126,459.5,126z"/>
					</g>
				</g>
			</g>
		</g>
	</g>
	<g>
		<g>
			<circle fill="#9ECCE4" cx="670.3" cy="198.6" r="22.6"/>
		</g>
		<g>
			<path fill="#F7941E" d="M678.4,200.9h-1.5c-0.1-0.5-0.3-1.1-0.4-1.6l1.3-0.7c0.3-0.2,0.4-0.6,0.2-0.9l-1.3-2.2
				c-0.2-0.3-0.6-0.4-0.9-0.2l-1.3,0.8c-0.4-0.4-0.7-0.8-1.2-1.1l0.7-1.3c0.2-0.3,0.1-0.7-0.2-0.9l-2.2-1.3
				c-0.3-0.2-0.7-0.1-0.9,0.2l-0.8,1.3c-0.5-0.2-1-0.3-1.6-0.4v-1.5c0-0.4-0.3-0.6-0.6-0.6h-2.6c-0.4,0-0.6,0.3-0.6,0.6v1.5
				c-0.5,0.1-1.1,0.3-1.6,0.4l-0.7-1.3c-0.2-0.3-0.6-0.4-0.9-0.2l-2.2,1.3c-0.3,0.2-0.4,0.6-0.2,0.9l0.8,1.3
				c-0.4,0.4-0.8,0.7-1.1,1.2l-1.3-0.7c-0.3-0.2-0.7-0.1-0.9,0.2L655,198c-0.2,0.3-0.1,0.7,0.2,0.9l1.3,0.8c-0.2,0.5-0.3,1-0.4,1.6
				h-1.5c-0.4,0-0.6,0.3-0.6,0.6v2.6c0,0.4,0.3,0.6,0.6,0.6h1.5c0.1,0.5,0.3,1.1,0.4,1.6l-1.3,0.7c-0.3,0.2-0.4,0.6-0.2,0.9l1.3,2.2
				c0.2,0.3,0.6,0.4,0.9,0.2l1.3-0.8c0.4,0.4,0.7,0.8,1.2,1.1l-0.7,1.3c-0.2,0.3-0.1,0.7,0.2,0.9l2.2,1.3c0.3,0.2,0.7,0.1,0.9-0.2
				l0.8-1.3c0.5,0.2,1,0.3,1.6,0.4v1.5c0,0.4,0.3,0.6,0.6,0.6l2.6,0c0.4,0,0.6-0.3,0.6-0.6v-1.5c0.5-0.1,1.1-0.3,1.6-0.4l0.7,1.3
				c0.2,0.3,0.6,0.4,0.9,0.2l2.2-1.3c0.3-0.2,0.4-0.6,0.2-0.9l-0.8-1.3c0.4-0.4,0.8-0.7,1.1-1.2l1.3,0.7c0.3,0.2,0.7,0.1,0.9-0.2
				l1.3-2.2c0.2-0.3,0.1-0.7-0.2-0.9l-1.3-0.8c0.2-0.5,0.3-1,0.4-1.6h1.5c0.4,0,0.6-0.3,0.6-0.6v-2.6
				C679,201.2,678.7,200.9,678.4,200.9z M666.5,209.6c-3.7,0-6.7-3-6.7-6.7c0-3.7,3-6.7,6.7-6.7c3.7,0,6.7,3,6.7,6.7
				C673.2,206.6,670.2,209.6,666.5,209.6z"/>
			<path fill="#FBB040" d="M666.5,194.8c-4.5,0-8.1,3.6-8.1,8.1c0,4.5,3.6,8.1,8.1,8.1c4.5,0,8.1-3.6,8.1-8.1
				C674.6,198.5,671,194.8,666.5,194.8z M666.5,209.6c-3.7,0-6.7-3-6.7-6.7c0-3.7,3-6.7,6.7-6.7c3.7,0,6.7,3,6.7,6.7
				C673.2,206.6,670.2,209.6,666.5,209.6z"/>
			<path fill="#FBB040" d="M685.5,188.6h-0.9c-0.2,0-0.5-0.2-0.5-0.4l-0.2-0.4c-0.1-0.2-0.1-0.5,0.1-0.6l0.7-0.7
				c0.2-0.2,0.2-0.4,0-0.6l-1-1c-0.2-0.2-0.4-0.2-0.6,0l-0.7,0.7c-0.2,0.2-0.4,0.2-0.6,0.1l-0.4-0.2c-0.2-0.1-0.4-0.3-0.4-0.5v-0.9
				c0-0.2-0.2-0.4-0.4-0.4h-1.4c-0.2,0-0.4,0.2-0.4,0.4v0.9c0,0.2-0.2,0.4-0.4,0.5l-0.4,0.2c-0.2,0.1-0.5,0.1-0.6-0.1l-0.7-0.7
				c-0.2-0.2-0.4-0.2-0.6,0l-1,1c-0.2,0.2-0.2,0.4,0,0.6l0.7,0.7c0.2,0.2,0.2,0.4,0.1,0.6l-0.2,0.4c-0.1,0.2-0.3,0.4-0.5,0.4h-0.9
				c-0.2,0-0.4,0.2-0.4,0.4v1.4c0,0.2,0.2,0.4,0.4,0.4h0.9c0.2,0,0.5,0.2,0.5,0.4l0.2,0.4c0.1,0.2,0.1,0.5-0.1,0.6l-0.7,0.7
				c-0.2,0.2-0.2,0.4,0,0.6l1,1c0.2,0.2,0.4,0.2,0.6,0l0.7-0.7c0.2-0.2,0.4-0.2,0.6-0.1l0.4,0.2c0.2,0.1,0.4,0.3,0.4,0.5v0.9
				c0,0.2,0.2,0.4,0.4,0.4h1.4c0.2,0,0.4-0.2,0.4-0.4v-0.9c0-0.2,0.2-0.4,0.4-0.5l0.4-0.2c0.2-0.1,0.5-0.1,0.6,0.1l0.7,0.7
				c0.2,0.2,0.4,0.2,0.6,0l1-1c0.2-0.2,0.2-0.4,0-0.6l-0.7-0.7c-0.2-0.2-0.2-0.4-0.1-0.6l0.2-0.4c0.1-0.2,0.3-0.4,0.5-0.4h0.9
				c0.2,0,0.4-0.2,0.4-0.4V189C685.9,188.8,685.7,188.6,685.5,188.6z M679.9,191.6c-1.1,0-1.9-0.9-1.9-1.9c0-1.1,0.8-1.9,1.9-1.9
				c1,0,1.9,0.9,1.9,1.9C681.8,190.8,680.9,191.6,679.9,191.6z"/>
			<path fill="#F7941E" d="M679.9,191.6C679.9,191.6,679.9,191.6,679.9,191.6c-1.1,0-1.9-0.9-1.9-1.9c0-1.1,0.8-1.9,1.9-1.9
				c0,0,0,0,0,0v-4.1h-0.7c-0.2,0-0.4,0.2-0.4,0.4v0.9c0,0.2-0.2,0.4-0.4,0.5l-0.4,0.2c-0.2,0.1-0.5,0.1-0.6-0.1l-0.7-0.7
				c-0.2-0.2-0.4-0.2-0.6,0l-1,1c-0.2,0.2-0.2,0.4,0,0.6l0.7,0.7c0.2,0.2,0.2,0.4,0.1,0.6l-0.2,0.4c-0.1,0.2-0.3,0.4-0.5,0.4h-0.9
				c-0.2,0-0.4,0.2-0.4,0.4v1.4c0,0.2,0.2,0.4,0.4,0.4h0.9c0.2,0,0.5,0.2,0.5,0.4l0.2,0.4c0.1,0.2,0.1,0.5-0.1,0.6l-0.7,0.7
				c-0.2,0.2-0.2,0.4,0,0.6l1,1c0.2,0.2,0.4,0.2,0.6,0l0.7-0.7c0.2-0.2,0.4-0.2,0.6-0.1l0.4,0.2c0.2,0.1,0.4,0.3,0.4,0.5v0.9
				c0,0.2,0.2,0.4,0.4,0.4h0.7V191.6z"/>
		</g>
	</g>
	<g>
		<circle fill="#9ECCE4" cx="192.9" cy="152.4" r="22.6"/>
		<g>
			<g>
				<g>
					<path fill="#FFFFFF" d="M188.4,154.2C188.4,154.2,188.4,154.2,188.4,154.2c-0.8-0.3-2.6-0.9-3.7-1.3c-0.1,0-0.1,0-0.1-0.4
						c0-0.3,0.1-0.7,0.3-0.9c0.1-0.3,0.3-0.8,0.4-1.3c0.2-0.2,0.4-0.6,0.5-1.3c0.1-0.6,0.1-0.9,0-1.1c0,0,0,0,0-0.1
						c0-0.2,0-0.9,0.1-1.6c0.1-0.4,0-1.3-0.6-2.1c-0.4-0.5-1.1-1-2.3-1.1l-0.7,0c-1.3,0.1-2,0.7-2.3,1.1c-0.6,0.7-0.7,1.6-0.6,2.1
						c0.1,0.6,0.2,1.4,0.1,1.6c0,0,0,0,0,0.1c-0.1,0.2-0.1,0.5,0,1.1c0.1,0.7,0.4,1.1,0.5,1.3c0.1,0.5,0.2,1,0.4,1.3
						c0.1,0.2,0.2,0.5,0.2,0.9c0,0.4,0,0.4-0.1,0.4c-1.1,0.3-3,1-3.7,1.3c0,0,0,0,0,0v2.9h11.7V154.2z"/>
					<path fill="#FFFFFF" d="M184.7,152.9c-0.1,0-0.1,0-0.1-0.4c0-0.3,0.1-0.7,0.3-0.9c0.1-0.3,0.3-0.8,0.4-1.3
						c0.2-0.2,0.4-0.6,0.5-1.3c0.1-0.6,0.1-0.9,0-1.1c0,0,0,0,0-0.1c0-0.2,0-0.9,0.1-1.6c0.1-0.4,0-1.3-0.6-2.1
						c-0.4-0.5-1.1-1-2.3-1.1l-0.4,0v14h5.9v-2.9c0,0,0,0,0,0C187.6,153.8,185.8,153.2,184.7,152.9z"/>
				</g>
			</g>
			<g>
				<g>
					<path fill="#FFFFFF" d="M210.6,154.2C210.6,154.2,210.6,154.2,210.6,154.2c-0.8-0.3-2.6-0.9-3.7-1.3c-0.1,0-0.1,0-0.1-0.4
						c0-0.3,0.1-0.7,0.3-0.9c0.1-0.3,0.3-0.8,0.4-1.3c0.2-0.2,0.4-0.6,0.5-1.3c0.1-0.6,0.1-0.9,0-1.1c0,0,0,0,0-0.1
						c0-0.2,0-0.9,0.1-1.6c0.1-0.4,0-1.3-0.6-2.1c-0.4-0.5-1.1-1-2.3-1.1l-0.7,0c-1.3,0.1-2,0.7-2.3,1.1c-0.6,0.7-0.7,1.6-0.6,2.1
						c0.1,0.6,0.2,1.4,0.1,1.6c0,0,0,0,0,0.1c-0.1,0.2-0.1,0.5,0,1.1c0.1,0.7,0.4,1.1,0.5,1.3c0.1,0.5,0.2,1,0.4,1.3
						c0.1,0.2,0.2,0.5,0.2,0.9c0,0.4,0,0.4-0.1,0.4c-1.1,0.3-3,1-3.7,1.3c0,0,0,0,0,0v2.9h11.7V154.2z"/>
					<path fill="#FFFFFF" d="M207,152.9c-0.1,0-0.1,0-0.1-0.4c0-0.3,0.1-0.7,0.3-0.9c0.1-0.3,0.3-0.8,0.4-1.3
						c0.2-0.2,0.4-0.6,0.5-1.3c0.1-0.6,0.1-0.9,0-1.1c0,0,0,0,0-0.1c0-0.2,0-0.9,0.1-1.6c0.1-0.4,0-1.3-0.6-2.1
						c-0.4-0.5-1.1-1-2.3-1.1l-0.4,0v14h5.9v-2.9c0,0,0,0,0,0C209.9,153.8,208.1,153.2,207,152.9z"/>
				</g>
			</g>
			<g>
				<g>
					<path fill="#FFFFFF" d="M201.8,158.2C201.8,158.2,201.8,158.2,201.8,158.2c-1.1-0.4-3.6-1.3-5.2-1.8c-0.1,0-0.2,0-0.2-0.6
						c0-0.5,0.2-0.9,0.4-1.3c0.2-0.4,0.4-1.1,0.5-1.8c0.2-0.3,0.6-0.8,0.8-1.9c0.2-0.9,0.1-1.2,0-1.6c0,0,0-0.1,0-0.1
						c0-0.2,0-1.3,0.2-2.2c0.1-0.6,0-1.8-0.8-2.9c-0.5-0.7-1.5-1.5-3.3-1.6l-1,0c-1.8,0.1-2.8,0.9-3.3,1.6c-0.8,1-0.9,2.3-0.8,2.9
						c0.2,0.9,0.2,2,0.2,2.2c0,0,0,0.1,0,0.1c-0.1,0.3-0.2,0.6,0,1.6c0.2,1,0.5,1.6,0.8,1.9c0.1,0.6,0.3,1.4,0.5,1.8
						c0.1,0.3,0.2,0.7,0.2,1.3c0,0.6,0,0.6-0.1,0.6c-1.6,0.5-4.2,1.4-5.1,1.8c0,0,0,0,0,0v4.1h16.5V158.2z"/>
					<path fill="#FFFFFF" d="M196.6,156.4c-0.1,0-0.2,0-0.2-0.6c0-0.5,0.2-0.9,0.4-1.3c0.2-0.4,0.4-1.1,0.5-1.8
						c0.2-0.3,0.6-0.8,0.8-1.9c0.2-0.9,0.1-1.2,0-1.6c0,0,0-0.1,0-0.1c0-0.2,0-1.3,0.2-2.2c0.1-0.6,0-1.8-0.8-2.9
						c-0.5-0.7-1.5-1.5-3.3-1.6l-0.6,0v19.7h8.2v-4.1c0,0,0,0,0,0C200.7,157.7,198.2,156.9,196.6,156.4z"/>
				</g>
			</g>
		</g>
	</g>
	<g>
		<circle fill="#9ECCE4" cx="580.6" cy="129.8" r="22.6"/>
		<g>
			<g>
				<polygon fill="#F7941E" points="568.8,142 572.3,138.2 586.8,138.2 586.8,134.2 573.7,134.2 573,134.2 573,133.5 573,124.8 
					566.7,124.8 566.7,138.2 568.8,138.2 				"/>
				<path fill="#FFFFFF" d="M588.7,133.4l3.6,4v-4h2.2v-13.9h-20.8v5.2v8.7h13H588.7z M591.1,125c0.9,0,1.6,0.7,1.6,1.6
					c0,0.9-0.7,1.6-1.6,1.6c-0.9,0-1.6-0.7-1.6-1.6C589.5,125.7,590.2,125,591.1,125 M577.8,128.2c-0.9,0-1.6-0.7-1.6-1.6
					c0-0.9,0.7-1.6,1.6-1.6c0.9,0,1.6,0.7,1.6,1.6C579.4,127.5,578.7,128.2,577.8,128.2 M582.2,128.2c-0.9,0-1.6-0.7-1.6-1.6
					c0-0.9,0.7-1.6,1.6-1.6c0.9,0,1.6,0.7,1.6,1.6C583.8,127.5,583.1,128.2,582.2,128.2 M586.7,128.2c-0.9,0-1.6-0.7-1.6-1.6
					c0-0.9,0.7-1.6,1.6-1.6c0,0,0.1,0,0.1,0c0.8,0,1.5,0.7,1.5,1.6C588.3,127.5,587.6,128.1,586.7,128.2
					C586.7,128.2,586.7,128.2,586.7,128.2"/>
			</g>
		</g>
	</g>
	<line fill="none" stroke="#46929E" stroke-miterlimit="10" stroke-dasharray="6" x1="333.3" y1="154.9" x2="217.1" y2="154.9"/>
	<line fill="none" stroke="#46929E" stroke-miterlimit="10" stroke-dasharray="6" x1="327.3" y1="203.6" x2="487.7" y2="203.6"/>
	<polyline fill="none" stroke="#46929E" stroke-miterlimit="10" stroke-dasharray="6" points="44.6,209.7 67.7,224.4 237.9,224.4 
		269.8,205.4 	"/>
	<polyline fill="none" stroke="#46929E" stroke-width="0.789" stroke-miterlimit="10" stroke-dasharray="4.7339" points="
		597.6,148.2 611.1,163.2 711.4,163.2 731.4,142 	"/>
	<polyline fill="none" stroke="#46929E" stroke-width="0.6101" stroke-miterlimit="10" stroke-dasharray="3.6604" points="
		176.9,130.3 164.5,120.1 62.4,120.1 40.7,144.6 	"/>
	<polyline fill="none" stroke="#46929E" stroke-width="0.789" stroke-miterlimit="10" stroke-dasharray="4.7339" points="528,221.2 
		541,238.2 642.9,238.2 656.6,218.9 	"/>
	<polyline fill="none" stroke="#46929E" stroke-width="0.789" stroke-miterlimit="10" stroke-dasharray="4.7339" points="471.9,101 
		487.5,84.1 557.3,84.1 576.1,105.1 	"/>
	<g>
		<circle fill="#9ECCE4" cx="272.9" cy="95.9" r="20.3"/>
		<g>
			<path fill="#FEBD17" d="M287.4,95.6c0,7.8-6.4,14.2-14.2,14.2c-7.8,0-14.2-6.4-14.2-14.2c0-7.8,6.4-14.2,14.2-14.2
				C281.1,81.4,287.4,87.7,287.4,95.6z"/>
			<path fill="#F99825" d="M287,95.6c0,7.6-6.2,13.8-13.8,13.8c-7.6,0-13.8-6.2-13.8-13.8c0-7.6,6.2-13.8,13.8-13.8
				C280.8,81.8,287,88,287,95.6z"/>
			<path fill="#FEBD17" d="M284.1,95.6c0,6-4.9,10.8-10.8,10.8c-6,0-10.8-4.9-10.8-10.8c0-6,4.9-10.8,10.8-10.8
				C279.2,84.7,284.1,89.6,284.1,95.6z"/>
			<g>
				<g>
					<path fill="#F99825" d="M272.5,101.9c-0.7-0.1-1.4-0.2-2-0.5c-0.6-0.3-1.1-0.7-1.5-1.1l0.5-0.7c0-0.1,0.1-0.1,0.2-0.2
						c0.1,0,0.2-0.1,0.2-0.1c0.1,0,0.2,0.1,0.4,0.2c0.1,0.1,0.3,0.2,0.5,0.4c0.2,0.1,0.5,0.3,0.7,0.4c0.3,0.1,0.6,0.2,1,0.3l0.3-4.7
						c-0.4-0.1-0.8-0.3-1.2-0.4c-0.4-0.2-0.8-0.4-1.1-0.6c-0.3-0.3-0.6-0.6-0.8-1c-0.2-0.4-0.3-0.9-0.3-1.4c0-0.4,0.1-0.9,0.3-1.3
						c0.2-0.4,0.4-0.8,0.7-1.1c0.3-0.3,0.7-0.6,1.2-0.8c0.5-0.2,1-0.3,1.6-0.3l0.1-1.3c0-0.1,0.1-0.2,0.1-0.3
						c0.1-0.1,0.2-0.1,0.3-0.1h0.6l-0.1,1.8c0.6,0.1,1.2,0.2,1.6,0.5c0.5,0.2,0.9,0.5,1.2,0.9l-0.4,0.6c-0.1,0.2-0.3,0.3-0.4,0.3
						c-0.1,0-0.2,0-0.3-0.1c-0.1-0.1-0.3-0.2-0.4-0.3c-0.2-0.1-0.4-0.2-0.6-0.3c-0.2-0.1-0.5-0.2-0.8-0.2l-0.3,4.3
						c0.4,0.1,0.9,0.3,1.3,0.4c0.4,0.2,0.8,0.4,1.1,0.6c0.3,0.2,0.6,0.5,0.8,0.9c0.2,0.4,0.3,0.8,0.3,1.4c0,0.5-0.1,1-0.3,1.5
						c-0.2,0.5-0.4,0.9-0.8,1.2c-0.3,0.4-0.8,0.7-1.3,0.9c-0.5,0.2-1.1,0.3-1.7,0.3l-0.1,1.6c0,0.1-0.1,0.2-0.1,0.3
						c-0.1,0.1-0.2,0.1-0.3,0.1h-0.6L272.5,101.9z M271,92.3c0,0.3,0.1,0.5,0.2,0.7c0.1,0.2,0.2,0.4,0.4,0.6
						c0.2,0.2,0.4,0.3,0.6,0.4c0.2,0.1,0.5,0.2,0.8,0.3l0.3-4c-0.4,0-0.7,0.1-1,0.2c-0.3,0.1-0.5,0.3-0.7,0.4
						c-0.2,0.2-0.3,0.4-0.4,0.6C271.1,91.8,271,92,271,92.3z M276,98.2c0-0.3-0.1-0.6-0.2-0.8c-0.1-0.2-0.3-0.4-0.5-0.6
						c-0.2-0.2-0.4-0.3-0.7-0.4c-0.3-0.1-0.5-0.2-0.8-0.3l-0.3,4.5c0.4,0,0.7-0.1,1-0.3c0.3-0.1,0.6-0.3,0.8-0.5
						c0.2-0.2,0.4-0.5,0.5-0.7C275.9,98.8,276,98.5,276,98.2z"/>
				</g>
			</g>
		</g>
	</g>
	<polyline fill="none" stroke="#46929E" stroke-miterlimit="10" stroke-dasharray="6" points="119.1,69.5 131.1,46.9 248.4,46.9 
		275.2,73.6 	"/>
	<g>
		<g>
			<path fill="#279CAF" d="M513.5,114.3c2.9-2.9,7.3-3.3,10.7-1.3c-1.1,1.1-2.5,2.4-2.5,2.4c-0.9,1.1,0.1,1.7,0.6,1.7l6.1,0
				c0.3,0,0.6,0,0.6,0h0.6h1.2c0.3,0,0.6-0.3,0.6-0.6v-8.4c0-0.8-0.8-1.5-1.7-0.7c0,0-1.4,1.4-2.4,2.4c-5.1-3.7-12.3-3.3-16.9,1.3
				c-2.7,2.7-4,6.3-3.8,9.8h4.4C510.8,118.6,511.6,116.2,513.5,114.3"/>
			<path fill="#279CAF" d="M528,119.6c0.2,2.4-0.7,4.9-2.5,6.7c-2.9,2.9-7.3,3.3-10.7,1.3c1.1-1.1,2.4-2.4,2.4-2.4
				c0.9-1.1-0.1-1.7-0.6-1.7l-6.1,0c-0.3,0-0.6,0-0.6,0h-0.6h-1.2c-0.3,0-0.6,0.3-0.6,0.6v8.4c0,0.8,0.8,1.5,1.7,0.7
				c0,0,1.4-1.4,2.4-2.4c5.1,3.7,12.3,3.3,16.9-1.3c2.7-2.7,4-6.3,3.8-9.8L528,119.6L528,119.6z"/>
		</g>
	</g>
	<path fill="#279CAF" d="M190.9,90.2l-12.8-5.7l10.3-24.1l-15.4,21.8l-11.1-5l29.7-21.9L190.9,90.2z M174.5,94l-1.9-8.2l7.1,2.7
		L174.5,94z"/>
	<g>
		<g>
			<path fill="#279CAF" d="M221.1,201.8l-1.4,1.5l3.1,3l1.4-1.5c1.4,0.9,2.9,1.5,4.6,1.8l0,2.1l4.3-0.1l0-2.1c1.7-0.3,3.2-1,4.5-2
				l1.5,1.4l3-3.1l-1.5-1.4c0.9-1.4,1.5-2.9,1.8-4.6l2.1,0l-0.1-4.3l-2.1,0c-0.3-1.7-1-3.2-1.9-4.5l1.4-1.5l-3.1-3l-1.4,1.5
				c-1.4-0.9-2.9-1.5-4.6-1.8l0-2.1l-4.3,0.1l0,2.1c-1.7,0.3-3.2,1-4.5,2l-1.5-1.4l-3,3.1l1.5,1.4c-0.9,1.4-1.5,2.9-1.8,4.6l-2.1,0
				l0.1,4.3l2.1,0C219.5,198.9,220.2,200.4,221.1,201.8 M230.7,186.1c4.8-0.1,8.8,3.8,8.9,8.6c0.1,4.8-3.8,8.8-8.6,8.9
				c-4.8,0.1-8.8-3.8-8.9-8.6C222,190.2,225.9,186.2,230.7,186.1"/>
			<path fill="#279CAF" d="M255.2,176.2l1.3-0.6l-1.4-3.2l-1.3,0.6c-0.6-0.8-1.3-1.4-2.1-2l0.5-1.3l-3.2-1.2l-0.5,1.3
				c-0.9-0.1-1.9-0.1-2.8,0.1l-0.6-1.3l-3.2,1.4l0.6,1.3c-0.8,0.6-1.4,1.3-2,2.1l-1.3-0.5l-1.2,3.2l1.3,0.5c-0.1,1-0.1,1.9,0.1,2.8
				L238,180l1.4,3.2l1.3-0.6c0.6,0.8,1.3,1.4,2.1,2l-0.5,1.3l3.2,1.2l0.5-1.3c0.9,0.1,1.9,0.1,2.8-0.1l0.6,1.3l3.2-1.4l-0.6-1.3
				c0.8-0.6,1.4-1.3,2-2.1l1.3,0.5l1.2-3.2l-1.3-0.5C255.4,178.1,255.4,177.1,255.2,176.2 M249.4,182.8c-0.7,0.3-1.4,0.5-2.1,0.5
				c-2.2,0-4.2-1.2-5-3.2c-1.2-2.7,0-6,2.8-7.2c0.7-0.3,1.4-0.5,2.1-0.5c2.2,0,4.2,1.2,5,3.2C253.4,178.3,252.2,181.5,249.4,182.8"
				/>
		</g>
	</g>
	<polygon fill="#279CAF" points="564.6,206.7 552.6,218.7 548.1,214.2 543.4,218.9 547.9,223.4 552.6,228.1 557.3,223.4 
		569.3,211.4 	"/>
	<path fill="#279CAF" d="M95.4,137.7H71.7c-2,0-3.6,1.6-3.6,3.6v12.7c0,2,1.6,3.6,3.6,3.6h1.8v6.4c0,0.2,0.1,0.5,0.3,0.6
		c0.4,0.4,0.9,0.4,1.3,0l7.5-7h12.7c2,0,3.6-1.6,3.6-3.6v-12.7C99,139.3,97.4,137.7,95.4,137.7 M74.5,143.2H89
		c0.5,0,0.9,0.4,0.9,0.9c0,0.5-0.4,0.9-0.9,0.9H74.5c-0.5,0-0.9-0.4-0.9-0.9C73.5,143.6,73.9,143.2,74.5,143.2 M81.7,152.3h-7.3
		c-0.5,0-0.9-0.4-0.9-0.9c0-0.5,0.4-0.9,0.9-0.9h7.3c0.5,0,0.9,0.4,0.9,0.9C82.6,151.9,82.2,152.3,81.7,152.3 M92.6,148.6H74.5
		c-0.5,0-0.9-0.4-0.9-0.9c0-0.5,0.4-0.9,0.9-0.9h18.2c0.5,0,0.9,0.4,0.9,0.9C93.5,148.2,93.1,148.6,92.6,148.6"/>
	<g>
		<g>
			<path fill="#279CAF" d="M682.8,155.9h-32.7v3h32.7V155.9z M681.4,157.8h-2.7V157h2.7V157.8z"/>
			<path fill="#279CAF" d="M681.3,136.6h-29.6V155h29.6V136.6z M678,152.4h-23v-13.2h23V152.4z"/>
		</g>
	</g>
	<rect x="423.7" y="463" fill="#273244" width="8.4" height="59.8"/>
	<polygon fill="#273244" points="398.1,535.1 394.3,535.1 423.7,522.8 428.9,528.9 	"/>
	<polygon fill="#273244" points="456.4,535.1 461.6,535.1 432.2,522.8 427,528.9 	"/>
	<rect x="423.7" y="522.8" fill="#E6E7E8" width="8.4" height="5.3"/>
	<polygon fill="#273244" points="429.8,538.9 426.1,538.9 424.5,521 431.4,521 	"/>
	<rect x="394.3" y="535.1" fill="#E6E7E8" width="3.7" height="3.8"/>
	<rect x="457.9" y="535.1" fill="#E6E7E8" width="3.7" height="3.8"/>
	<g>
		<polyline fill="#273244" points="396.6,467.2 459.3,467.2 459.3,457.3 396.6,457.3 		"/>
		<polyline fill="#041728" points="396.6,467.2 459.3,467.2 459.3,463 396.6,463 		"/>
		<polyline fill="#041728" points="396.6,457.3 459.3,457.3 459.3,367.2 396.6,367.2 		"/>
	</g>
	<rect x="416.8" y="467.1" fill="#65859E" width="22.3" height="4.5"/>
	<ellipse fill="#231F20" cx="395.8" cy="539" rx="2.3" ry="2.4"/>
	<ellipse fill="#231F20" cx="427.7" cy="539" rx="2.3" ry="2.4"/>
	<ellipse fill="#231F20" cx="459.7" cy="539" rx="2.3" ry="2.4"/>
	<g>
		<path fill="#2A3A49" d="M407,422c0,0-15.6,15.7-0.1,35.3c20.4,0,44,0,44,0s6.3-6.8,6.1-17.7c-0.1-9.1-7.3-17.7-7.3-17.7H407z"/>
		<path fill="#231F20" d="M446.2,532.8c0,0,8.1,3.4,11.1,3.7c4,0.4,4.9,7,4.9,7h-27c0,0-1.3-3.9-0.9-7.9c5.1-1.2,11.1-2.8,11.1-2.8"
			/>
		<path fill="#231F20" d="M408.7,532.8c0,0-8.1,3.4-11.1,3.7c-4,0.4-4.9,7-4.9,7h27c0,0,1.3-3.9,0.9-7.9c-5.1-1.2-11.1-2.8-11.1-2.8
			"/>
		<path fill="#2D3E50" d="M420.5,535.9c0,0,8.5-92.1,8.5-92.9c0-0.8-1.3-14.6-12.7-14.6c-11.5,0-14.7,7.8-14.7,16.4
			c0,8.6,4.2,91.1,4.2,91.1H420.5z"/>
		<path fill="#2D3E50" d="M449.6,535.9c0,0,8.5-92.1,8.5-92.9c0-0.8-1.3-14.6-12.7-14.6c-11.5,0-14.7,7.8-14.7,16.4
			c0,8.6,4.2,91.1,4.2,91.1H449.6z"/>
	</g>
	<polygon fill="#B2B25B" points="406.7,403.7 407,422 449.7,422 450.8,403.7 	"/>
	<rect x="243" y="463" fill="#273244" width="8.4" height="59.8"/>
	<polygon fill="#273244" points="217.4,535.1 213.6,535.1 243,522.8 248.2,528.9 	"/>
	<polygon fill="#273244" points="275.7,535.1 280.9,535.1 251.5,522.8 246.3,528.9 	"/>
	<rect x="243" y="522.8" fill="#E6E7E8" width="8.4" height="5.3"/>
	<polygon fill="#273244" points="249.1,538.9 245.4,538.9 243.8,521 250.7,521 	"/>
	<rect x="213.6" y="535.1" fill="#E6E7E8" width="3.7" height="3.8"/>
	<rect x="277.2" y="535.1" fill="#E6E7E8" width="3.7" height="3.8"/>
	<g>
		<polyline fill="#273244" points="215.9,467.2 278.6,467.2 278.6,457.3 215.9,457.3 		"/>
		<polyline fill="#041728" points="215.9,467.2 278.6,467.2 278.6,463 215.9,463 		"/>
		<polyline fill="#041728" points="215.9,457.3 278.6,457.3 278.6,367.2 215.9,367.2 		"/>
	</g>
	<rect x="236.1" y="467.1" fill="#65859E" width="22.3" height="4.5"/>
	<ellipse fill="#231F20" cx="215.1" cy="539" rx="2.3" ry="2.4"/>
	<ellipse fill="#231F20" cx="247" cy="539" rx="2.3" ry="2.4"/>
	<ellipse fill="#231F20" cx="278.9" cy="539" rx="2.3" ry="2.4"/>
	<g>
		<path fill="#2A3A49" d="M226.3,422c0,0-15.6,15.7-0.1,35.3c20.4,0,44,0,44,0s6.3-6.8,6.1-17.7c-0.1-9.1-7.3-17.7-7.3-17.7H226.3z"
			/>
		<path fill="#231F20" d="M265.5,532.8c0,0,8.1,3.4,11.1,3.7c4,0.4,4.9,7,4.9,7h-27c0,0-1.3-3.9-0.9-7.9c5.1-1.2,11.1-2.8,11.1-2.8"
			/>
		<path fill="#231F20" d="M228,532.8c0,0-8.1,3.4-11.1,3.7c-4,0.4-4.9,7-4.9,7h27c0,0,1.3-3.9,0.9-7.9c-5.1-1.2-11.1-2.8-11.1-2.8"
			/>
		<path fill="#2D3E50" d="M239.7,535.9c0,0,8.5-92.1,8.5-92.9c0-0.8-1.2-14.6-12.7-14.6c-11.5,0-14.7,7.8-14.7,16.4
			c0,8.6,4.2,91.1,4.2,91.1H239.7z"/>
		<path fill="#2D3E50" d="M268.8,535.9c0,0,8.5-92.1,8.5-92.9c0-0.8-1.2-14.6-12.7-14.6c-11.5,0-14.7,7.8-14.7,16.4
			c0,8.6,4.2,91.1,4.2,91.1H268.8z"/>
	</g>
	<polygon fill="#602E48" points="225.9,403.7 226.3,422 269,422 270.1,403.7 	"/>
	
		<rect x="119.2" y="462.9" transform="matrix(1 5.051838e-003 -5.051838e-003 1 2.5078 -0.6193)" fill="#273244" width="9.4" height="66.5"/>
	<polygon fill="#273244" points="90.4,542.9 86.2,542.9 119,529.3 124.7,536.2 	"/>
	<polygon fill="#273244" points="155.2,543.2 161,543.2 128.4,529.4 122.6,536.2 	"/>
	
		<rect x="119" y="529.3" transform="matrix(1 5.051838e-003 -5.051838e-003 1 2.6906 -0.6179)" fill="#F9FDFF" width="9.4" height="5.9"/>
	<polygon fill="#273244" points="125.7,547.3 121.6,547.3 119.9,527.4 127.5,527.4 	"/>
	
		<rect x="86.2" y="542.9" transform="matrix(1 5.051838e-003 -5.051838e-003 1 2.7544 -0.439)" fill="#F9FDFF" width="4.2" height="4.2"/>
	
		<rect x="156.9" y="543.2" transform="matrix(1 5.051838e-003 -5.051838e-003 1 2.7571 -0.796)" fill="#F9FDFF" width="4.2" height="4.2"/>
	<polygon fill="#273244" points="54.2,366.8 86.7,467.4 157.3,467.7 157.3,456.7 96.1,456.4 65.9,368 	"/>
	<polygon fill="#041728" points="90,462.7 58.8,367.3 54.2,366.8 86.7,467.4 157.3,467.7 157.3,463 	"/>
	
		<rect x="111.6" y="467.5" transform="matrix(1 5.051838e-003 -5.051838e-003 1 2.3759 -0.6203)" fill="#65859E" width="24.7" height="5.1"/>
	<circle fill="#231F20" cx="88.3" cy="547.5" r="2.6"/>
	<circle fill="#231F20" cx="123.6" cy="547.7" r="2.6"/>
	<circle fill="#231F20" cx="158.9" cy="547.9" r="2.6"/>
	<path fill="#303244" d="M231,533.9l-32.4-97.7c-2.4-3.7-6.5-5.9-10.9-5.9c0,0-18.5-1.8-43.4-2.4c-10-0.3-18.3-4.4-19.2-5.2H92.9
		c0,0.2-1.8,33.7,39.4,33.7c16.9,0,39,0,48.3,0l33.7,80.3L231,533.9z"/>
	<path fill="#231F20" d="M231,533.9c0,0,11.4,3.4,15.7,3.7c5.6,0.4,6.9,7,6.9,7h-38.1c0,0-1.8-3.9-1.2-7.9
		c7.2-1.2,15.7-2.8,15.7-2.8"/>
	<polyline fill="#FFC5A8" points="108,340.4 111.4,313.6 127.1,294.8 118.7,348.3 	"/>
	<g>
		<path fill="#FFC5A8" d="M146.2,306c0,0-2.5,34.3-17.2,34.3c-9.3,0-15.6-5.9-15.6-16.3l1.5-18.1"/>
		<path fill="#243547" d="M118.2,306c0,0,20.6,7.5,29,0c8.3-7.5-3.8-15.8-17-15.8c-13.1,0-16.9,5.9-16.9,5.9L118.2,306z"/>
		<path fill="#243547" d="M113.4,296.1c0,0-5,0.2-6.8,4.6c-1.8,4.4-0.6,22.9,2.9,27.3c0.5-4.6,4.7-13.4,7.7-16c3-2.6,5-2.2,6.7,2.8
			c-1-6.2-0.5-8.9-0.5-8.9L113.4,296.1z"/>
	</g>
	<path fill="#243547" d="M117.2,312.1c0,0-3.2,4.9,0.3,13.7c-5.2,1-8,2.3-8,2.3s-2.5-4.8,0-8.7C112,315.4,117.2,312.1,117.2,312.1z"
		/>
	<path fill="#205160" d="M93,422.5c0,0-4.4-45.1,0.3-67.3c4.7-22.2,31.3-21,35,0.2c3.7,21.2-6.2,35.8-5.7,44.5
		c0.5,8.7,2.4,22.8,2.4,22.8L93,422.5z"/>
	<path fill="#205160" d="M196.5,384.2c0,0-47-4.1-65.6-26.6c-15-18.1-27.4-0.1-12.2,12.1c15.8,12.7,41.9,22,77.6,21.2
		C196.3,389.5,196.5,384.2,196.5,384.2z"/>
	<path fill="#FFC5A8" d="M195.9,390.7c0,0,8.2,0.9,9.1-0.7c0.3-0.4-0.4-0.8-0.9-0.9c1.1-0.3,1.5-0.4,1.5-1c0-0.6-1.5-0.8-1.5-0.8
		s2-0.1,2-1c0-0.9-1.7-0.8-1.7-0.8s1.8,0,1.7-0.8c0-0.8-0.7-0.8-1.5-0.8c-0.7,0-4.7,0.6-4.7,0.6s2.2-1,3.4-1.2
		c1.2-0.2,1.3-1.6-1.1-1.2c-2.4,0.4-6.1,2.3-6.1,2.3L195.9,390.7z"/>
	<rect x="615" y="462.9" fill="#273244" width="9.4" height="66.5"/>
	<polygon fill="#273244" points="652.9,543.1 657.1,543.1 624.4,529.3 618.6,536.2 	"/>
	<polygon fill="#273244" points="588,543.1 582.3,543.1 615,529.3 620.7,536.2 	"/>
	<rect x="615" y="529.3" fill="#F9FDFF" width="9.4" height="5.9"/>
	<polygon fill="#273244" points="617.6,547.3 621.7,547.3 623.5,527.4 615.9,527.4 	"/>
	<rect x="652.9" y="543.1" fill="#F9FDFF" width="4.2" height="4.2"/>
	<rect x="582.3" y="543.1" fill="#F9FDFF" width="4.2" height="4.2"/>
	<g>
		<polygon fill="#273244" points="689.9,367.2 656.9,467.6 586.4,467.6 586.4,456.6 647.6,456.6 678.2,368.3 		"/>
		<polygon fill="#041728" points="653.7,462.9 685.3,367.6 689.9,367.2 656.9,467.6 586.4,467.6 586.4,462.9 		"/>
	</g>
	<rect x="607.3" y="467.5" fill="#65859E" width="24.8" height="5.1"/>
	<circle fill="#231F20" cx="655" cy="547.7" r="2.6"/>
	<circle fill="#231F20" cx="619.7" cy="547.7" r="2.6"/>
	<circle fill="#231F20" cx="584.3" cy="547.7" r="2.6"/>
	<path fill="#051523" d="M512.8,533.9l32.4-97.7c2.4-3.7,6.5-5.9,10.9-5.9c0,0,18.5-1.8,43.4-2.4c10-0.3,18.3-4.4,19.2-5.2h32.2
		c0,0.2,1.8,33.7-39.4,33.7c-16.9,0-39,0-48.3,0l-33.7,80.3L512.8,533.9z"/>
	<path fill="#231F20" d="M512.8,533.9c0,0-11.4,3.4-15.7,3.7c-5.6,0.4-6.9,7-6.9,7h38.1c0,0,1.8-3.9,1.2-7.9
		c-7.2-1.2-15.7-2.8-15.7-2.8"/>
	<polyline fill="#FFC5A8" points="635.8,340.4 632.4,313.6 616.7,294.8 625.1,348.3 	"/>
	<g>
		<path fill="#FFC5A8" d="M597.6,306c0,0,2.5,34.3,17.2,34.3c9.3,0,15.6-5.9,15.6-16.3l-1.5-18.1"/>
		<path fill="#231F20" d="M625.6,306c0,0-20.6,7.5-29,0c-8.3-7.5,3.8-15.8,17-15.8c13.1,0,16.9,5.9,16.9,5.9L625.6,306z"/>
		<path fill="#231F20" d="M630.4,296.1c0,0-1.7-7.6-8.7-8.8s-21.6,5-33.5-4c-1.6,18.8,4.7,25.2,17.5,26.1"/>
		<path fill="#231F20" d="M630.4,296.1c0,0,5,0.2,6.8,4.6c1.8,4.4,0.6,22.9-2.9,27.3c-0.5-4.6-4.7-13.4-7.7-16c-3-2.6-5-2.2-6.7,2.8
			c1-6.2,0.5-8.9,0.5-8.9L630.4,296.1z"/>
	</g>
	<path fill="#231F20" d="M626.5,312.1c0,0,3.2,4.9-0.3,13.7c5.2,1,8,2.3,8,2.3s2.5-4.8,0-8.7C631.7,315.4,626.5,312.1,626.5,312.1z"
		/>
	<path fill="#15386B" d="M650.9,422.7c0,0,4.6-45.1,0-67.3c-4.6-22.3-31.2-21.2-35,0c-3.8,21.2,6,35.8,5.4,44.5
		c-0.5,8.7-2.6,22.8-2.6,22.8H650.9z"/>
	<path fill="#15386B" d="M547.6,383.9c0,0,47.1-3.8,65.8-26.2c15.1-18,27.4,0,12.1,12.2c-15.9,12.6-42.1,21.8-77.7,20.8
		C547.8,389.1,547.6,383.9,547.6,383.9z"/>
	<path fill="#FFC5A8" d="M547.9,390.7c0,0-8.2,0.9-9.1-0.7c-0.3-0.4,0.4-0.8,0.9-0.9c-1.1-0.3-1.5-0.4-1.5-1c0-0.6,1.5-0.8,1.5-0.8
		s-2-0.1-2-1c0-0.9,1.7-0.8,1.7-0.8s-1.8,0-1.7-0.8c0-0.8,0.7-0.8,1.5-0.8c0.7,0,4.7,0.6,4.7,0.6s-2.2-1-3.4-1.2
		c-1.2-0.2-1.3-1.6,1.1-1.2c2.4,0.4,6.1,2.3,6.1,2.3L547.9,390.7z"/>
	<rect x="153.7" y="391.7" fill="#C4996C" width="13.1" height="160.6"/>
	<rect x="583.5" y="391.7" fill="#C4996C" width="13.1" height="160.6"/>
	<rect x="153.7" y="391.7" fill="#C4996C" width="442.9" height="11.9"/>
	<polyline fill="#FFC5A8" points="244.6,354.1 244.6,326.2 256.2,307.9 256.2,359.2 	"/>
	<path fill="#602E48" d="M224.8,342.4c0,0-29.8,42.9-15.8,49c21,0,35.6,0,35.6,0l-2.3-6.3c0,0-21.7-0.5-24-4.2
		c-2.3-3.7,18.4-26.6,18.4-26.6"/>
	<path fill="#602E48" d="M273.6,344.3c0,0,23.3,41.1,9.2,47.2c-21.1,0-35.8,0-35.8,0l2.3-6.3c0,0,23.1,0,25.4-3.7
		c2.3-3.7-19.8-27.2-19.8-27.2"/>
	<g>
		<path fill="#FFC5A8" d="M267.3,319.7c0,9.2-7.5,16.7-16.7,16.7l0,0c-9.2,0-16.7-7.5-16.7-16.7V309c0-9.2,7.5-16.7,16.7-16.7l0,0
			c9.2,0,16.7,7.5,16.7,16.7V319.7z"/>
	</g>
	<path fill="#602E48" d="M226.3,391.7l-1.4-50.7c0,0,6-2.2,19.8-2.5l6.2,8.7l5.2-8.7c6.7,0.3,17.7,3.8,17.7,3.8l-4.7,49.5H226.3z"/>
	<path fill="#784E26" d="M236.2,319c0,0-5.7-2.7-7.2-8.8c-2.1-8.7,0.2-17,4.7-16.3c2.2,3.9,3.5,4.8,3.5,4.8S235.4,315,236.2,319z"/>
	<path fill="#784E26" d="M237.7,298.9c0,0,5.9,4.5,17.2,4.5c11.3,0,19.4-10.5,16.9-19.3c-3.7,3.3-11.5,3.9-18.1,1.6
		c-6.6-2.3-13.4-2.3-17.7,1.2C231.7,290.4,233.3,296.3,237.7,298.9z"/>
	<path fill="#784E26" d="M238.6,299.4c0,0-4.2,7.6-2.8,12.9c-3.3-4.2-4.3-10.3-4.3-10.3l2.5-7.8L238.6,299.4z"/>
	<path fill="#784E26" d="M261.9,299.2c0,0,4.9,1.8,4.4,9.7c4.8-5.5,2.4-12,2.4-12l-2.3-2.8L261.9,299.2z"/>
	<polyline fill="#FFC5A8" points="425.3,354.1 425.3,326.2 436.9,307.9 436.9,359.2 	"/>
	<path fill="#B2B25B" d="M405.6,342.4c0,0-29.8,42.9-15.8,49c21,0,35.6,0,35.6,0l-2.3-6.3c0,0-21.7-0.5-24-4.2
		c-2.3-3.7,18.4-26.6,18.4-26.6"/>
	<path fill="#B2B25B" d="M454.4,344.4c0,0,23.2,40.9,9.2,47c-21,0-35.6,0-35.6,0l2.3-6.3c0,0,22.9,0,25.3-3.7
		c2.3-3.7-19.7-27.1-19.7-27.1"/>
	<g>
		<path fill="#FFC5A8" d="M448,319.7c0,9.2-7.5,16.7-16.7,16.7l0,0c-9.2,0-16.7-7.5-16.7-16.7V309c0-9.2,7.5-16.7,16.7-16.7l0,0
			c9.2,0,16.7,7.5,16.7,16.7V319.7z"/>
	</g>
	<path fill="#A25016" d="M415.5,310.7c0,0,28.9,0,28.6-14.2c-0.3-14.2-16.3-13.5-24.4-7.7C411.7,294.6,406.3,309.7,415.5,310.7z"/>
	<path fill="#A25016" d="M439.4,301.3c0,0,6.7,2.8,8.7,10.6c3.4-4,7-9.7,3.5-16.2c-2.4-4.5-7.3-7.7-9.9-5.6
		C441.7,295.9,439.4,301.3,439.4,301.3z"/>
	<path fill="#B2B25B" d="M407,391.7l-1.4-50.7c0,0,6-2.2,19.8-2.5l6.2,8.7l5.2-8.7c6.7,0.3,17.7,3.8,17.7,3.8l-4.7,49.5H407z"/>
	<polyline fill="#FFC5A8" points="327.7,363.2 327.7,329.9 341.4,308 341.4,369.4 	"/>
	<g>
		<path fill="#FFC5A8" d="M354.9,322.1c0,11.1-9,20.1-20.1,20.1l0,0c-11.1,0-20.1-9-20.1-20.1v-12.9c0-11.1,9-20.1,20.1-20.1l0,0
			c11.1,0,20.1,9,20.1,20.1V322.1z"/>
	</g>
	<path fill="#104723" d="M305.8,408.4l0.8-61.5c0,0,4.7-2,21.2-2.3l7.4,10.4l6.2-10.4c8,0.3,18.5,3.7,18.5,3.7l-2.9,60.1H305.8z"/>
	<ellipse fill="#231F20" cx="334.7" cy="312.1" rx="25.3" ry="26.6"/>
	<polygon fill="#104723" points="341.4,344.6 341.4,343 327.7,343 327.7,344.6 334.9,356.6 	"/>
	<path fill="#104723" d="M306.4,346.9c0,0-29.8,38.9-15.8,44.4c21,0,35.6,0,35.6,0l-2.3-5.7c0,0-21.7-0.4-24-3.8
		c-2.3-3.4,18.4-24.1,18.4-24.1"/>
	<path fill="#104723" d="M359.9,348.3c0,0,29.2,37.5,15.2,43.1c-21,0-35.6,0-35.6,0l2.3-5.7c0,0,21.7-0.4,24-3.8
		c2.3-3.4-18.4-24.1-18.4-24.1"/>
	<path fill="#231F20" d="M357.6,544.7c0,0,9.6,3.4,13.2,3.7c4.7,0.4,5.8,7.1,5.8,7.1h-32.1c0,0-1.5-4-1-8c6.1-1.2,13.2-2.8,13.2-2.8
		"/>
	<path fill="#231F20" d="M309.8,544.7c0,0-9.6,3.4-13.2,3.7c-4.7,0.4-5.8,7.1-5.8,7.1h32.1c0,0,1.5-4,1-8c-6-1.2-13.2-2.8-13.2-2.8"
		/>
	<path fill="#2D080B" d="M324,547.8c0,0,8.8-93.5,8.8-94.3c0-0.8-1.3-14.8-13.3-14.8c-12,0-15.3,7.9-15.3,16.6
		c0,8.7,4.4,92.5,4.4,92.5H324z"/>
	<path fill="#2D080B" d="M358.6,547.8c0,0,8.8-93.5,8.8-94.3c0-0.8-1.3-14.8-13.2-14.8c-11.9,0-15.3,7.9-15.3,16.6
		c0,8.7,4.4,92.5,4.4,92.5H358.6z"/>
	<rect x="328.7" y="480.5" fill="#273244" width="10" height="72.4"/>
	<polygon fill="#273244" points="298.2,567.9 293.7,567.9 328.7,552.9 334.9,560.4 	"/>
	<polygon fill="#273244" points="367.6,567.9 373.7,567.9 338.8,552.9 332.6,560.4 	"/>
	<rect x="328.7" y="552.9" fill="#E6E7E8" width="10" height="6.4"/>
	<polygon fill="#273244" points="335.9,572.5 331.6,572.5 329.7,550.9 337.8,550.9 	"/>
	<rect x="293.7" y="567.9" fill="#E6E7E8" width="4.4" height="4.6"/>
	<rect x="369.3" y="567.9" fill="#E6E7E8" width="4.4" height="4.6"/>
	<g>
		<polyline fill="#041728" points="296.5,485.7 371,485.7 371,480.5 296.5,480.5 		"/>
		<polyline fill="#041728" points="296.5,480.5 371,480.5 371,369.8 296.5,369.8 		"/>
	</g>
	<rect x="320.5" y="485.6" fill="#65859E" width="26.5" height="5.5"/>
	<ellipse fill="#231F20" cx="295.5" cy="572.6" rx="2.8" ry="2.9"/>
	<ellipse fill="#231F20" cx="333.4" cy="572.6" rx="2.8" ry="2.9"/>
	<ellipse fill="#231F20" cx="371.4" cy="572.6" rx="2.8" ry="2.9"/>
	<path fill="#231F20" d="M312.5,317.2c0,0,1.3-8,11.5-9c10.2-1,17.9-5.2,20.3-10.1c5.9,4,12,8.9,12.5,19c4.5-6.9,6.5-24.7-8.5-27.8
		c-13.3-13.3-27.9-7.7-34.9,1.1C303,303.7,312.5,317.2,312.5,317.2z"/>
	<polyline fill="#FFC5A8" points="490.5,363.2 490.5,329.9 504.1,308 504.1,369.4 	"/>
	<g>
		<path fill="#FFC5A8" d="M517.6,322.1c0,11.1-9,20.1-20.1,20.1l0,0c-11.1,0-20.1-9-20.1-20.1v-12.9c0-11.1,9-20.1,20.1-20.1l0,0
			c11.1,0,20.1,9,20.1,20.1V322.1z"/>
	</g>
	<path fill="#243547" d="M478.7,311.3c0,0,34.7,0,34.3-17c-0.3-17-19.6-16.2-29.2-9.2C474.1,292,467.7,310.1,478.7,311.3z"/>
	<path fill="#243547" d="M507.3,303.6c0,0,7.5,4.1,9.8,15.8c3.8-6,7.8-14.4,3.9-24.1c-2.7-6.7-8.2-11.5-11.1-8.4
		C509.8,295.5,507.3,303.6,507.3,303.6z"/>
	<path fill="#857A93" d="M468.5,408.4l0.8-61.5c0,0,4.7-2,21.2-2.3l7.4,10.4l6.2-10.4c8,0.3,18.5,3.7,18.5,3.7l-2.9,60.1H468.5z"/>
	<ellipse fill="#243547" cx="497.4" cy="312.1" rx="25.3" ry="26.6"/>
	<polygon fill="#857A93" points="504.1,344.6 504.1,343 490.5,343 490.5,344.6 497.6,356.6 	"/>
	<path fill="#857A93" d="M469.1,346.9c0,0-29.8,38.9-15.8,44.4c21,0,35.6,0,35.6,0l-2.3-5.7c0,0-21.7-0.4-24-3.8
		c-2.3-3.4,18.4-24.1,18.4-24.1"/>
	<path fill="#857A93" d="M522.6,348.3c0,0,29.2,37.5,15.2,43.1c-21,0-35.6,0-35.6,0l2.3-5.7c0,0,21.7-0.4,24-3.8
		c2.3-3.4-18.4-24.1-18.4-24.1"/>
	<g>
		<path fill="#231F20" d="M520.3,544.7c0,0,9.6,3.4,13.2,3.7c4.7,0.4,5.8,7.1,5.8,7.1h-32.1c0,0-1.5-4-1-8
			c6.1-1.2,13.2-2.8,13.2-2.8"/>
		<path fill="#231F20" d="M472.5,544.7c0,0-9.6,3.4-13.2,3.7c-4.7,0.4-5.8,7.1-5.8,7.1h32.1c0,0,1.5-4,1-8c-6-1.2-13.2-2.8-13.2-2.8
			"/>
		<path fill="#2D3E50" d="M486.7,547.8c0,0,8.8-93.5,8.8-94.3c0-0.8-1.3-14.8-13.3-14.8c-12,0-15.3,7.9-15.3,16.6
			c0,8.7,4.4,92.5,4.4,92.5H486.7z"/>
		<path fill="#2D3E50" d="M521.3,547.8c0,0,8.8-93.5,8.8-94.3c0-0.8-1.3-14.8-13.2-14.8c-11.9,0-15.3,7.9-15.3,16.6
			c0,8.7,4.4,92.5,4.4,92.5H521.3z"/>
	</g>
	<rect x="491.4" y="480.5" fill="#273244" width="10" height="72.4"/>
	<polygon fill="#273244" points="460.9,567.9 456.5,567.9 491.4,552.9 497.6,560.4 	"/>
	<polygon fill="#273244" points="530.3,567.9 536.4,567.9 501.5,552.9 495.3,560.4 	"/>
	<rect x="491.4" y="552.9" fill="#E6E7E8" width="10" height="6.4"/>
	<polygon fill="#273244" points="498.7,572.5 494.3,572.5 492.4,550.9 500.5,550.9 	"/>
	<rect x="456.5" y="567.9" fill="#E6E7E8" width="4.4" height="4.6"/>
	<rect x="532" y="567.9" fill="#E6E7E8" width="4.4" height="4.6"/>
	<g>
		<polyline fill="#041728" points="459.2,485.7 533.7,485.7 533.7,480.5 459.2,480.5 		"/>
		<polyline fill="#041728" points="459.2,480.5 533.7,480.5 533.7,369.8 459.2,369.8 		"/>
	</g>
	<rect x="483.2" y="485.6" fill="#65859E" width="26.5" height="5.5"/>
	<ellipse fill="#231F20" cx="458.2" cy="572.6" rx="2.8" ry="2.9"/>
	<path fill="#231F20" d="M498.9,572.6c0-1.6-1.2-2.9-2.8-2.9c-1.5,0-2.8,1.3-2.8,2.9c0,1.6,1.3,2.9,2.8,2.9
		C497.7,575.5,498.9,574.2,498.9,572.6z"/>
	<ellipse fill="#231F20" cx="534.1" cy="572.6" rx="2.8" ry="2.9"/>
</g>
</svg>
