<?xml version="1.0" encoding="utf-8"?>
<!-- Generator: Adobe Illustrator 18.1.1, SVG Export Plug-In . SVG Version: 6.00 Build 0)  -->
<svg version="1.1" id="Layer_1" xmlns="http://www.w3.org/2000/svg" xmlns:xlink="http://www.w3.org/1999/xlink" x="0px" y="0px"
	 viewBox="0 0 120 100" enable-background="new 0 0 120 100" xml:space="preserve">
<g>
	<g>
		<rect x="26" y="58.4" fill-rule="evenodd" clip-rule="evenodd" fill="#E7D5B6" width="8.1" height="8.3"/>
		<path fill-rule="evenodd" clip-rule="evenodd" fill="#FEEAC7" d="M42.1,48.3c-0.2,0-0.3,0.1-0.5,0.2c0,0,0-0.1,0-0.2
			c0-0.1,0-0.2-0.1-0.3c0-0.1-0.1-0.2-0.1-0.3c0-0.1,0-0.2-0.1-0.3c0-0.1-0.1-0.2-0.1-0.3c0-0.1-0.1-0.2-0.1-0.2
			c0-0.1-0.1-0.2-0.1-0.3c0-0.1-0.1-0.1-0.1-0.2c0-0.1-0.1-0.2-0.1-0.3c0-0.1-0.1-0.1-0.1-0.2c0-0.1-0.1-0.2-0.2-0.3
			c0-0.1-0.1-0.1-0.1-0.2c-0.1-0.1-0.1-0.2-0.2-0.3c0-0.1-0.1-0.1-0.1-0.2c-0.1-0.1-0.1-0.2-0.2-0.3c0,0-0.1-0.1-0.1-0.1
			c-0.1-0.1-0.1-0.2-0.2-0.3c0,0-0.1-0.1-0.1-0.1c-0.1-0.1-0.2-0.2-0.2-0.3c0,0-0.1-0.1-0.1-0.1c-0.1-0.1-0.2-0.2-0.3-0.3
			c0,0-0.1-0.1-0.1-0.1c-0.1-0.1-0.2-0.2-0.3-0.3c0,0,0-0.1-0.1-0.1c-0.1-0.1-0.2-0.2-0.3-0.3c0,0,0,0-0.1-0.1
			c-0.1-0.1-0.2-0.2-0.3-0.3c0,0,0,0-0.1-0.1c-0.1-0.1-0.2-0.2-0.4-0.3c0,0,0,0,0,0c-0.1-0.1-0.3-0.2-0.4-0.3c0,0,0,0,0,0
			c-0.1-0.1-0.3-0.2-0.4-0.3c0,0,0,0,0,0c-0.1-0.1-0.3-0.2-0.4-0.3c0,0,0,0,0,0c-0.2-0.1-0.3-0.2-0.5-0.3c0,0,0,0,0,0
			c-0.2-0.1-0.3-0.2-0.5-0.2c0,0,0,0,0,0c-0.2-0.1-0.3-0.1-0.5-0.2c0,0,0,0,0,0c-1-0.4-2.1-0.7-3.3-0.8c0,0,0,0,0,0
			c-0.2,0-0.4,0-0.6,0c0,0,0,0,0,0c-0.1,0-0.2,0-0.3,0c-5.4,0-10,3.9-11.1,9.1c-0.1,0-0.2-0.1-0.2-0.1c-0.7,0-1.2,1.4-1.2,3.1
			c0,1.7,0.5,3.1,1.2,3.1c0.1,0,0.3-0.1,0.4-0.2c1.4,4.9,5.8,8.5,11,8.5c0.1,0,0.2,0,0.3,0c0,0,0,0,0,0c0.2,0,0.4,0,0.6,0
			c0,0,0,0,0,0c1.1-0.1,2.2-0.4,3.3-0.8c0,0,0,0,0,0c0.2-0.1,0.3-0.1,0.5-0.2c0,0,0,0,0,0c0.2-0.1,0.3-0.2,0.5-0.2c0,0,0,0,0,0
			c0.2-0.1,0.3-0.2,0.5-0.3c0,0,0,0,0,0c0.1-0.1,0.3-0.2,0.4-0.3c0,0,0,0,0,0c0.1-0.1,0.3-0.2,0.4-0.3c0,0,0,0,0,0
			c0.1-0.1,0.3-0.2,0.4-0.3c0,0,0,0,0,0c0.1-0.1,0.2-0.2,0.4-0.3c0,0,0,0,0.1-0.1c0.1-0.1,0.2-0.2,0.3-0.3c0,0,0,0,0.1-0.1
			c0.1-0.1,0.2-0.2,0.3-0.3c0,0,0-0.1,0.1-0.1c0.1-0.1,0.2-0.2,0.3-0.3c0,0,0.1-0.1,0.1-0.1c0.1-0.1,0.2-0.2,0.3-0.3
			c0,0,0.1-0.1,0.1-0.1c0.1-0.1,0.2-0.2,0.2-0.3c0,0,0.1-0.1,0.1-0.1c0.1-0.1,0.1-0.2,0.2-0.3c0,0,0.1-0.1,0.1-0.1
			c0.1-0.1,0.1-0.2,0.2-0.3c0-0.1,0.1-0.1,0.1-0.2c0.1-0.1,0.1-0.2,0.2-0.3c0-0.1,0.1-0.1,0.1-0.2c0.1-0.1,0.1-0.2,0.2-0.3
			c0-0.1,0.1-0.1,0.1-0.2c0-0.1,0.1-0.2,0.1-0.3c0-0.1,0.1-0.1,0.1-0.2c0-0.1,0.1-0.2,0.1-0.3c0-0.1,0.1-0.2,0.1-0.2
			c0-0.1,0.1-0.2,0.1-0.3c0-0.1,0-0.2,0.1-0.3c0,0,0-0.1,0-0.1c0.2,0.3,0.4,0.4,0.6,0.4c0.7,0,1.2-1.4,1.2-3.1
			C43.3,49.7,42.8,48.3,42.1,48.3z"/>
		<path fill-rule="evenodd" clip-rule="evenodd" fill="#212725" d="M56.8,92.6c0-10.1-3.9-20.2-9.3-23.4c-3.2-2.1-8.9-3.6-17.3-3.6
			c-8.3,0-14.5,1.5-17.7,3.5c-5.4,3.2-8.9,13.3-8.9,23.4v2.8h9.7v-2.8c0-6.6,2.1-10.8,3.5-12.9v15.7h26.8V80.3
			c1.5,2.2,3.6,6.2,3.6,12.3v2.8h9.7V92.6z"/>
		<path fill-rule="evenodd" clip-rule="evenodd" fill="#603A17" d="M41.4,47.8c0-0.1-0.1-0.3-0.1-0.4c-0.1-0.2-0.1-0.4-0.2-0.6
			c-0.1-0.2-0.1-0.3-0.2-0.5c-0.1-0.1-0.1-0.3-0.2-0.4c-0.1-0.2-0.2-0.4-0.3-0.5c-0.1-0.1-0.1-0.2-0.2-0.3c-0.1-0.2-0.2-0.4-0.4-0.6
			c-0.1-0.1-0.1-0.2-0.2-0.2c-0.1-0.2-0.3-0.4-0.5-0.6c0-0.1-0.1-0.1-0.1-0.2c-0.2-0.2-0.4-0.4-0.5-0.6c0,0-0.1-0.1-0.1-0.1
			c-0.2-0.2-0.4-0.4-0.6-0.6c0,0,0,0-0.1-0.1c-0.2-0.2-0.5-0.4-0.7-0.6c0,0,0,0,0,0c-1.9-1.4-4.2-2.2-6.7-2.2
			c-6.2,0-11.2,5-11.4,11.3c0.7-0.8,1.2-2,1.9-2.8c1.2-1.4,2.7-2.3,4-3.5c0.9-0.8,2.4-1,3.3,0c0.7,0.8,1.6,1.5,2.6,2l0,0
			c0,0,0,0,0,0c0.3,0.2,0.7,0.3,1,0.5c0,0,0.1,0,0.1,0c0.1,0,0.2,0.1,0.3,0.1c0,0,0,0,0.1,0c0.2,0.1,0.4,0.1,0.6,0.2
			c0.1,0,0.2,0,0.2,0.1c0.1,0,0.2,0,0.2,0c0.1,0,0.3,0,0.4,0.1c0.1,0,0.1,0,0.2,0c0.1,0,0.2,0,0.4,0c0,0,0.1,0,0.1,0
			c0.2,0,0.3,0,0.5,0c0,0,0.1,0,0.1,0c0.1,0,0.3-0.1,0.4-0.1c0,0,0,0,0.1,0c0.2,0,0.3-0.1,0.5-0.2c0,0,0.1,0,0.1-0.1
			c0.2-0.1,0.3-0.2,0.5-0.2c1.1-0.7,2.5-0.2,3.2,0.8c0.3,0.5,1.1,0.9,1.8,1.3C41.6,48.5,41.5,48.1,41.4,47.8z"/>
		<g>
			<g>
				<path fill-rule="evenodd" clip-rule="evenodd" fill="#F1A240" d="M42.9,44.7c0-0.1,0-0.2-0.1-0.3c-0.2-0.7-0.7-2.6-0.7-3.3
					c0-5.5-5.2-10-11.6-10c-6.4,0-11.6,4.5-11.6,10c0,0.6-0.6,2.5-1,3.6H42.9z"/>
				<path fill-rule="evenodd" clip-rule="evenodd" fill="#F1A240" d="M30.3,34.7c1.6,0,3-1.3,3-3c0-1.7-1.3-3-3-3c-1.7,0-3,1.3-3,3
					C27.3,33.3,28.7,34.7,30.3,34.7z"/>
				<g>
					<g>
						<g>
							<path fill-rule="evenodd" clip-rule="evenodd" fill="#D08D34" d="M23.7,33c1-0.7,2.2-1.2,3.5-1.5c0.1,0.2,0.1,0.4,0.1,0.7
								v8.1c0,1-0.8,1.8-1.8,1.8l0,0c-1,0-1.8-0.8-1.8-1.8V33z"/>
						</g>
						<g>
							<path fill-rule="evenodd" clip-rule="evenodd" fill="#D08D34" d="M33.6,31.4c1.2,0.3,2.4,0.8,3.5,1.4v7.4
								c0,1-0.8,1.8-1.8,1.8l0,0c-1,0-1.8-0.8-1.8-1.8v-8.1C33.4,31.9,33.4,31.6,33.6,31.4z"/>
						</g>
					</g>
				</g>
			</g>
			<path fill-rule="evenodd" clip-rule="evenodd" fill="#D08D34" d="M43.6,44.8c0,0.5-0.4,1-0.9,1H18.2c-0.5,0-0.9-0.4-0.9-1l0,0
				c0-0.5,0.4-1,0.9-1h24.5C43.2,43.9,43.6,44.3,43.6,44.8L43.6,44.8z"/>
		</g>
		<path fill="#E7D5B6" d="M30.7,65.6"/>
		<path fill-rule="evenodd" clip-rule="evenodd" fill="#FFFFFF" d="M25,65.8l5.2,16.6l4.8-16.6c0,0-0.8-0.2-4.6-0.2S25,65.8,25,65.8
			z"/>
		<ellipse fill-rule="evenodd" clip-rule="evenodd" fill="#0797A7" cx="30.3" cy="65.6" rx="2.6" ry="1.6"/>
		<polygon fill-rule="evenodd" clip-rule="evenodd" fill="#0797A7" points="29.6,66.4 28.5,76.9 30.2,82.4 31.9,77 31.3,66.4 		"/>
		<rect x="34.3" y="82.2" fill-rule="evenodd" clip-rule="evenodd" fill="#FFFFFF" width="6.9" height="3.7"/>
		<polygon fill-rule="evenodd" clip-rule="evenodd" fill="#141B17" points="35.1,65.8 39.3,70 30.2,82.4 		"/>
		<polygon fill-rule="evenodd" clip-rule="evenodd" fill="#141B17" points="25,65.8 21.4,70 30.2,82.4 		"/>
		<rect x="29.8" y="82.3" fill-rule="evenodd" clip-rule="evenodd" fill="#141B17" width="0.8" height="13.1"/>
	</g>
	<g>
		<rect x="85.1" y="58.4" fill-rule="evenodd" clip-rule="evenodd" fill="#E7D5B6" width="8.1" height="8.3"/>
		<path fill-rule="evenodd" clip-rule="evenodd" fill="#FEEAC7" d="M101.1,48.3c-0.2,0-0.3,0.1-0.5,0.2c0,0,0-0.1,0-0.2
			c0-0.1,0-0.2-0.1-0.3c0-0.1-0.1-0.2-0.1-0.3c0-0.1,0-0.2-0.1-0.3c0-0.1-0.1-0.2-0.1-0.3c0-0.1-0.1-0.2-0.1-0.2
			c0-0.1-0.1-0.2-0.1-0.3c0-0.1-0.1-0.1-0.1-0.2c0-0.1-0.1-0.2-0.1-0.3c0-0.1-0.1-0.1-0.1-0.2c0-0.1-0.1-0.2-0.2-0.3
			c0-0.1-0.1-0.1-0.1-0.2c-0.1-0.1-0.1-0.2-0.2-0.3c0-0.1-0.1-0.1-0.1-0.2c-0.1-0.1-0.1-0.2-0.2-0.3c0,0-0.1-0.1-0.1-0.1
			c-0.1-0.1-0.1-0.2-0.2-0.3c0,0-0.1-0.1-0.1-0.1c-0.1-0.1-0.2-0.2-0.2-0.3c0,0-0.1-0.1-0.1-0.1c-0.1-0.1-0.2-0.2-0.3-0.3
			c0,0-0.1-0.1-0.1-0.1c-0.1-0.1-0.2-0.2-0.3-0.3c0,0,0-0.1-0.1-0.1c-0.1-0.1-0.2-0.2-0.3-0.3c0,0,0,0-0.1-0.1
			c-0.1-0.1-0.2-0.2-0.3-0.3c0,0,0,0-0.1-0.1c-0.1-0.1-0.2-0.2-0.4-0.3c0,0,0,0,0,0c-0.1-0.1-0.3-0.2-0.4-0.3c0,0,0,0,0,0
			c-0.1-0.1-0.3-0.2-0.4-0.3c0,0,0,0,0,0c-0.1-0.1-0.3-0.2-0.4-0.3c0,0,0,0,0,0c-0.2-0.1-0.3-0.2-0.5-0.3c0,0,0,0,0,0
			c-0.2-0.1-0.3-0.2-0.5-0.2c0,0,0,0,0,0c-0.2-0.1-0.3-0.1-0.5-0.2c0,0,0,0,0,0c-1-0.4-2.1-0.7-3.3-0.8c0,0,0,0,0,0
			c-0.2,0-0.4,0-0.6,0c0,0,0,0,0,0c-0.1,0-0.2,0-0.3,0c-5.4,0-10,3.9-11.1,9.1c-0.1,0-0.2-0.1-0.2-0.1c-0.7,0-1.2,1.4-1.2,3.1
			c0,1.7,0.5,3.1,1.2,3.1c0.1,0,0.3-0.1,0.4-0.2c1.4,4.9,5.8,8.5,11,8.5c0.1,0,0.2,0,0.3,0c0,0,0,0,0,0c0.2,0,0.4,0,0.6,0
			c0,0,0,0,0,0c1.1-0.1,2.2-0.4,3.3-0.8c0,0,0,0,0,0c0.2-0.1,0.3-0.1,0.5-0.2c0,0,0,0,0,0c0.2-0.1,0.3-0.2,0.5-0.2c0,0,0,0,0,0
			c0.2-0.1,0.3-0.2,0.5-0.3c0,0,0,0,0,0c0.1-0.1,0.3-0.2,0.4-0.3c0,0,0,0,0,0c0.1-0.1,0.3-0.2,0.4-0.3c0,0,0,0,0,0
			c0.1-0.1,0.3-0.2,0.4-0.3c0,0,0,0,0,0c0.1-0.1,0.2-0.2,0.4-0.3c0,0,0,0,0.1-0.1c0.1-0.1,0.2-0.2,0.3-0.3c0,0,0,0,0.1-0.1
			c0.1-0.1,0.2-0.2,0.3-0.3c0,0,0.1-0.1,0.1-0.1c0.1-0.1,0.2-0.2,0.3-0.3c0,0,0.1-0.1,0.1-0.1c0.1-0.1,0.2-0.2,0.3-0.3
			c0,0,0.1-0.1,0.1-0.1c0.1-0.1,0.2-0.2,0.2-0.3c0,0,0.1-0.1,0.1-0.1c0.1-0.1,0.2-0.2,0.2-0.3c0,0,0.1-0.1,0.1-0.1
			c0.1-0.1,0.1-0.2,0.2-0.3c0-0.1,0.1-0.1,0.1-0.2c0.1-0.1,0.1-0.2,0.2-0.3c0-0.1,0.1-0.1,0.1-0.2c0.1-0.1,0.1-0.2,0.2-0.3
			c0-0.1,0.1-0.1,0.1-0.2c0-0.1,0.1-0.2,0.1-0.3c0-0.1,0.1-0.1,0.1-0.2c0-0.1,0.1-0.2,0.1-0.3c0-0.1,0.1-0.2,0.1-0.2
			c0-0.1,0.1-0.2,0.1-0.3c0-0.1,0-0.2,0.1-0.3c0,0,0-0.1,0-0.1c0.2,0.3,0.4,0.4,0.6,0.4c0.7,0,1.2-1.4,1.2-3.1
			C102.3,49.7,101.8,48.3,101.1,48.3z"/>
		<path fill-rule="evenodd" clip-rule="evenodd" fill="#212725" d="M115.9,92.6c0-10.1-3.9-20.2-9.3-23.4c-3.2-2.1-8.9-3.6-17.3-3.6
			c-8.3,0-14.5,1.5-17.7,3.5c-5.4,3.2-8.9,13.3-8.9,23.4v2.8h9.7v-2.8c0-6.6,2.1-10.8,3.5-12.9v15.7h26.8V80.3
			c1.5,2.2,3.6,6.2,3.6,12.3v2.8h9.7V92.6z"/>
		<path fill-rule="evenodd" clip-rule="evenodd" fill="#603A17" d="M100.5,47.8c0-0.1-0.1-0.3-0.1-0.4c-0.1-0.2-0.1-0.4-0.2-0.6
			c-0.1-0.2-0.1-0.3-0.2-0.5c-0.1-0.1-0.1-0.3-0.2-0.4c-0.1-0.2-0.2-0.4-0.3-0.5c-0.1-0.1-0.1-0.2-0.2-0.3c-0.1-0.2-0.2-0.4-0.4-0.6
			c-0.1-0.1-0.1-0.2-0.2-0.2c-0.1-0.2-0.3-0.4-0.5-0.6c0-0.1-0.1-0.1-0.1-0.2c-0.2-0.2-0.4-0.4-0.5-0.6c0,0-0.1-0.1-0.1-0.1
			c-0.2-0.2-0.4-0.4-0.6-0.6c0,0,0,0-0.1-0.1c-0.2-0.2-0.5-0.4-0.7-0.6c0,0,0,0,0,0c-1.9-1.4-4.2-2.2-6.7-2.2
			c-6.2,0-11.2,5-11.4,11.3c0.7-0.8,1.2-2,1.9-2.8c1.2-1.4,2.7-2.3,4-3.5c0.9-0.8,2.4-1,3.3,0c0.7,0.8,1.6,1.5,2.6,2l0,0
			c0,0,0,0,0,0c0.3,0.2,0.7,0.3,1,0.5c0,0,0.1,0,0.1,0c0.1,0,0.2,0.1,0.3,0.1c0,0,0,0,0.1,0c0.2,0.1,0.4,0.1,0.6,0.2
			c0.1,0,0.2,0,0.2,0.1c0.1,0,0.2,0,0.2,0c0.1,0,0.3,0,0.4,0.1c0.1,0,0.1,0,0.2,0c0.1,0,0.2,0,0.4,0c0,0,0.1,0,0.1,0
			c0.2,0,0.3,0,0.5,0c0,0,0.1,0,0.1,0c0.1,0,0.3-0.1,0.4-0.1c0,0,0,0,0.1,0c0.2,0,0.3-0.1,0.5-0.2c0,0,0.1,0,0.1-0.1
			c0.2-0.1,0.3-0.2,0.5-0.2c1.1-0.7,2.5-0.2,3.2,0.8c0.3,0.5,1.1,0.9,1.8,1.3C100.7,48.5,100.6,48.1,100.5,47.8z"/>
		<g>
			<g>
				<path fill-rule="evenodd" clip-rule="evenodd" fill="#F1A240" d="M102,44.7c0-0.1,0-0.2-0.1-0.3c-0.2-0.7-0.7-2.6-0.7-3.3
					c0-5.5-5.2-10-11.6-10c-6.4,0-11.6,4.5-11.6,10c0,0.6-0.6,2.5-1,3.6H102z"/>
				<path fill-rule="evenodd" clip-rule="evenodd" fill="#F1A240" d="M89.4,34.7c1.6,0,3-1.3,3-3c0-1.7-1.3-3-3-3c-1.6,0-3,1.3-3,3
					C86.4,33.3,87.7,34.7,89.4,34.7z"/>
				<g>
					<g>
						<g>
							<path fill-rule="evenodd" clip-rule="evenodd" fill="#D08D34" d="M82.7,33c1-0.7,2.2-1.2,3.5-1.5c0.1,0.2,0.1,0.4,0.1,0.7
								v8.1c0,1-0.8,1.8-1.8,1.8l0,0c-1,0-1.8-0.8-1.8-1.8V33z"/>
						</g>
						<g>
							<path fill-rule="evenodd" clip-rule="evenodd" fill="#D08D34" d="M92.6,31.4c1.2,0.3,2.4,0.8,3.5,1.4v7.4
								c0,1-0.8,1.8-1.8,1.8l0,0c-1,0-1.8-0.8-1.8-1.8v-8.1C92.4,31.9,92.5,31.6,92.6,31.4z"/>
						</g>
					</g>
				</g>
			</g>
			<path fill-rule="evenodd" clip-rule="evenodd" fill="#D08D34" d="M102.7,44.8c0,0.5-0.4,1-0.9,1H77.2c-0.5,0-0.9-0.4-0.9-1l0,0
				c0-0.5,0.4-1,0.9-1h24.5C102.3,43.9,102.7,44.3,102.7,44.8L102.7,44.8z"/>
		</g>
		<path fill="#E7D5B6" d="M89.7,65.6"/>
		<path fill-rule="evenodd" clip-rule="evenodd" fill="#FFFFFF" d="M84.1,65.8l5.2,16.6l4.8-16.6c0,0-0.8-0.2-4.6-0.2
			C85.7,65.6,84.1,65.8,84.1,65.8z"/>
		<ellipse fill-rule="evenodd" clip-rule="evenodd" fill="#60BD97" cx="89.4" cy="65.6" rx="2.6" ry="1.6"/>
		<polygon fill-rule="evenodd" clip-rule="evenodd" fill="#60BD97" points="88.7,66.4 87.5,76.9 89.3,82.4 90.9,77 90.3,66.4 		"/>
		<rect x="93.3" y="82.2" fill-rule="evenodd" clip-rule="evenodd" fill="#FFFFFF" width="6.9" height="3.7"/>
		<polygon fill-rule="evenodd" clip-rule="evenodd" fill="#141B17" points="94.1,65.8 98.3,70 89.3,82.4 		"/>
		<polygon fill-rule="evenodd" clip-rule="evenodd" fill="#141B17" points="84.1,65.8 80.5,70 89.3,82.4 		"/>
		<rect x="88.9" y="82.3" fill-rule="evenodd" clip-rule="evenodd" fill="#141B17" width="0.8" height="13.1"/>
	</g>
	<path fill="#424143" d="M41.3,23.5c0.5,0.6,1,1.2,1.6,1.8l-0.6,1.7c-0.2,0.5,0.1,1.2,0.6,1.4l2.4,1.2c0.5,0.3,1.2,0.1,1.5-0.4
		l0.9-1.5c0.8,0.2,1.6,0.2,2.5,0.2l0.8,1.6c0.3,0.5,0.9,0.8,1.4,0.6l2.5-0.9c0.5-0.2,0.9-0.8,0.7-1.3L55.3,26c0.7-0.5,1.4-1.1,2-1.7
		l1.6,0.6c0.5,0.2,1.2-0.1,1.4-0.6l1.2-2.4c0.3-0.5,0.1-1.1-0.4-1.5l-1.4-0.9c0.2-0.9,0.2-1.7,0.2-2.6l1.5-0.7
		c0.5-0.3,0.8-0.9,0.6-1.4l-0.9-2.5c-0.2-0.5-0.8-0.9-1.3-0.7L58,11.9c-0.5-0.7-1-1.3-1.7-1.9l0.5-1.5c0.2-0.5-0.1-1.2-0.6-1.4
		l-2.4-1.2c-0.5-0.3-1.1-0.1-1.5,0.4l-0.8,1.3c-0.9-0.2-1.8-0.2-2.7-0.2l-0.7-1.4c-0.3-0.5-0.9-0.8-1.4-0.6l-2.5,0.9
		c-0.5,0.2-0.9,0.8-0.7,1.3l0.3,1.5c-0.8,0.5-1.5,1.1-2,1.9l-1.5-0.5c-0.5-0.2-1.1,0.1-1.4,0.6l-1.2,2.4c-0.3,0.5-0.1,1.1,0.4,1.5
		l1.4,0.9c-0.1,0.8-0.2,1.7-0.1,2.6L38,19.2c-0.5,0.3-0.8,0.9-0.6,1.4l0.9,2.5c0.2,0.5,0.8,0.9,1.3,0.7L41.3,23.5z M48.1,13.4
		c2.3-0.8,4.9,0.4,5.7,2.7c0.8,2.3-0.4,4.9-2.7,5.7c-2.3,0.8-4.9-0.4-5.7-2.7C44.6,16.7,45.8,14.2,48.1,13.4z"/>
	<path fill="#818182" d="M67.9,27.3l-1.7-0.7c-0.5-0.2-1.1,0-1.4,0.5l-0.5,1c-0.7-0.1-1.5-0.1-2.2,0.1l-0.6-0.9
		c-0.3-0.5-0.9-0.7-1.4-0.5l-1.7,0.8c-0.5,0.2-0.8,0.8-0.6,1.4l0.3,1.1c-0.6,0.5-1.1,1-1.5,1.7l-1.1-0.3c-0.6-0.1-1.1,0.2-1.3,0.7
		l-0.7,1.7c-0.2,0.5,0,1.1,0.5,1.4l1.1,0.6c-0.1,0.7,0,1.4,0.1,2.1l-1,0.6c-0.5,0.3-0.7,0.9-0.5,1.4l0.8,1.7
		c0.2,0.5,0.8,0.8,1.4,0.6l1.2-0.4c0.4,0.5,0.9,0.9,1.4,1.3l-0.3,1.2c-0.1,0.6,0.2,1.1,0.7,1.3l1.7,0.7c0.5,0.2,1.1,0,1.4-0.5
		l0.6-1.1c0.7,0.1,1.3,0.1,2,0l0.7,1.1c0.3,0.5,0.9,0.7,1.4,0.5l1.7-0.8c0.5-0.2,0.8-0.8,0.6-1.4l-0.4-1.2c0.6-0.4,1.1-1,1.5-1.5
		l1.2,0.3c0.6,0.1,1.1-0.2,1.3-0.7l0.7-1.7c0.2-0.5,0-1.1-0.5-1.4l-1.1-0.6c0.1-0.7,0.1-1.4-0.1-2.1l1-0.6c0.5-0.3,0.7-0.9,0.5-1.4
		l-0.8-1.7c-0.2-0.5-0.8-0.8-1.4-0.6l-1.1,0.3c-0.4-0.5-0.9-1-1.5-1.4l0.3-1.1C68.8,28.1,68.5,27.5,67.9,27.3z M64.9,39.8
		c-1.8,0.8-4,0-4.8-1.8c-0.8-1.8,0-4,1.8-4.8c1.8-0.8,4,0,4.8,1.8C67.5,36.8,66.7,38.9,64.9,39.8z"/>
	<path fill="#231F20" d="M52.1,55.9c-0.5,0.2-0.8,0.8-0.6,1.4l0.4,1.1c0.2,0.5,0.7,0.9,1.3,0.7l0.8-0.2c0.3,0.4,0.6,0.8,1,1.2
		l-0.3,0.8c-0.2,0.5,0,1.1,0.6,1.4l1,0.5c0.5,0.3,1.1,0.1,1.4-0.4l0.5-0.7c0.5,0.1,1.1,0.2,1.6,0.1l0.4,0.8c0.2,0.5,0.8,0.8,1.4,0.6
		l1.1-0.4c0.5-0.2,0.9-0.7,0.7-1.3l-0.2-0.8c0.5-0.3,0.9-0.7,1.3-1.1l0.8,0.3c0.5,0.2,1.1,0,1.4-0.6l0.5-1c0.3-0.5,0.1-1.1-0.4-1.4
		l-0.7-0.4c0.1-0.6,0.2-1.1,0.1-1.7l0.7-0.3c0.5-0.2,0.8-0.8,0.6-1.4l-0.4-1.1c-0.2-0.5-0.7-0.9-1.3-0.7l-0.7,0.2
		c-0.3-0.5-0.7-0.9-1.1-1.3l0.2-0.7c0.2-0.5,0-1.1-0.6-1.4l-1-0.5c-0.5-0.3-1.1-0.1-1.4,0.4L61,48.4c-0.6-0.1-1.2-0.2-1.8-0.1
		l-0.3-0.6c-0.2-0.5-0.8-0.8-1.4-0.6l-1.1,0.4c-0.5,0.2-0.9,0.7-0.7,1.3l0.1,0.7c-0.5,0.3-1,0.8-1.4,1.2l-0.7-0.2
		c-0.5-0.2-1.1,0-1.4,0.6l-0.5,1c-0.3,0.5-0.1,1.1,0.4,1.4l0.7,0.4c-0.1,0.6-0.1,1.1-0.1,1.7L52.1,55.9z M58.7,52.3
		c1.6-0.5,3.2,0.3,3.8,1.9c0.5,1.6-0.3,3.2-1.9,3.8c-1.6,0.5-3.2-0.3-3.8-1.9C56.3,54.5,57.1,52.8,58.7,52.3z"/>
	<path fill="#231F20" d="M62.8,17.2c-0.5,0.2-0.8,0.8-0.6,1.4l0.4,1.1c0.2,0.5,0.7,0.9,1.3,0.7l0.8-0.2c0.3,0.4,0.6,0.8,1,1.2
		l-0.3,0.8c-0.2,0.5,0,1.1,0.6,1.4l1,0.5c0.5,0.3,1.1,0.1,1.4-0.4l0.5-0.7c0.5,0.1,1.1,0.2,1.6,0.1l0.4,0.8c0.2,0.5,0.8,0.8,1.4,0.6
		l1.1-0.4c0.5-0.2,0.9-0.7,0.7-1.3L74,22.1c0.5-0.3,0.9-0.7,1.3-1.1l0.8,0.3c0.5,0.2,1.1,0,1.4-0.6l0.5-1c0.3-0.5,0.1-1.1-0.4-1.4
		l-0.7-0.4c0.1-0.6,0.2-1.1,0.1-1.7l0.7-0.3c0.5-0.2,0.8-0.8,0.6-1.4l-0.4-1.1c-0.2-0.5-0.7-0.9-1.3-0.7l-0.7,0.2
		c-0.3-0.5-0.7-0.9-1.1-1.3l0.2-0.7c0.2-0.5,0-1.1-0.6-1.4l-1-0.5C73,8.5,72.3,8.7,72,9.2l-0.4,0.6c-0.6-0.1-1.2-0.2-1.8-0.1L69.6,9
		c-0.2-0.5-0.8-0.8-1.4-0.6l-1.1,0.4c-0.5,0.2-0.9,0.7-0.7,1.3l0.1,0.7c-0.5,0.3-1,0.8-1.4,1.2l-0.7-0.2c-0.5-0.2-1.1,0-1.4,0.6
		l-0.5,1c-0.3,0.5-0.1,1.1,0.4,1.4l0.7,0.4c-0.1,0.6-0.1,1.1-0.1,1.7L62.8,17.2z M69.3,13.6c1.6-0.5,3.2,0.3,3.8,1.9
		c0.5,1.6-0.3,3.2-1.9,3.8c-1.6,0.5-3.2-0.3-3.8-1.9C66.9,15.8,67.8,14.1,69.3,13.6z"/>
</g>
</svg>
