<?xml version="1.0" encoding="utf-8"?>
<!-- Generator: Adobe Illustrator 18.1.1, SVG Export Plug-In . SVG Version: 6.00 Build 0)  -->
<svg version="1.1" id="Layer_1" xmlns="http://www.w3.org/2000/svg" xmlns:xlink="http://www.w3.org/1999/xlink" x="0px" y="0px"
	 viewBox="0 0 120 100" enable-background="new 0 0 120 100" xml:space="preserve">
<g>
	<g>
		<rect x="52.6" y="42.3" fill-rule="evenodd" clip-rule="evenodd" fill="#E7D5B6" width="10" height="10.2"/>
		<path fill-rule="evenodd" clip-rule="evenodd" fill="#FEEAC7" d="M72.4,29.9c-0.2,0-0.4,0.1-0.6,0.3c0-0.1,0-0.1,0-0.2
			c0-0.1,0-0.2-0.1-0.4c0-0.1-0.1-0.2-0.1-0.4c0-0.1-0.1-0.2-0.1-0.3c0-0.1-0.1-0.2-0.1-0.4c0-0.1-0.1-0.2-0.1-0.3
			c0-0.1-0.1-0.2-0.1-0.4c0-0.1-0.1-0.2-0.1-0.3c-0.1-0.1-0.1-0.3-0.2-0.4c0-0.1-0.1-0.2-0.1-0.3c-0.1-0.1-0.1-0.3-0.2-0.4
			c0-0.1-0.1-0.2-0.1-0.2c-0.1-0.1-0.1-0.3-0.2-0.4c0-0.1-0.1-0.1-0.1-0.2c-0.1-0.1-0.2-0.3-0.2-0.4c0-0.1-0.1-0.1-0.1-0.2
			c-0.1-0.1-0.2-0.3-0.3-0.4c0-0.1-0.1-0.1-0.1-0.2c-0.1-0.1-0.2-0.3-0.3-0.4c0,0-0.1-0.1-0.1-0.1c-0.1-0.1-0.2-0.3-0.3-0.4
			c0,0-0.1-0.1-0.1-0.1c-0.1-0.1-0.2-0.3-0.4-0.4c0,0-0.1-0.1-0.1-0.1c-0.1-0.1-0.3-0.3-0.4-0.4c0,0-0.1-0.1-0.1-0.1
			c-0.1-0.1-0.3-0.3-0.4-0.4c0,0,0,0-0.1-0.1c-0.1-0.1-0.3-0.3-0.5-0.4c0,0,0,0-0.1-0.1c-0.2-0.1-0.3-0.2-0.5-0.4c0,0,0,0-0.1,0
			c-0.2-0.1-0.3-0.2-0.5-0.3c0,0,0,0,0,0c-0.2-0.1-0.4-0.2-0.5-0.3c0,0,0,0,0,0c-0.2-0.1-0.4-0.2-0.6-0.3c0,0,0,0,0,0
			c-0.2-0.1-0.4-0.2-0.6-0.3c0,0,0,0,0,0c-0.2-0.1-0.4-0.2-0.6-0.3c0,0,0,0,0,0c-1.3-0.5-2.6-0.8-4-0.9c0,0,0,0,0,0
			c-0.2,0-0.5,0-0.7,0c0,0,0,0,0,0c-0.1,0-0.3,0-0.4,0c-6.7,0-12.3,4.8-13.7,11.2c-0.1,0-0.2-0.1-0.3-0.1c-0.8,0-1.5,1.7-1.5,3.8
			c0,2.1,0.7,3.8,1.5,3.8c0.2,0,0.3-0.1,0.5-0.2c1.7,6,7.1,10.4,13.5,10.4c0.1,0,0.3,0,0.4,0c0,0,0,0,0,0c0.2,0,0.5,0,0.7,0
			c0,0,0,0,0,0c1.4-0.1,2.8-0.4,4-0.9c0,0,0,0,0,0c0.2-0.1,0.4-0.2,0.6-0.3c0,0,0,0,0,0c0.2-0.1,0.4-0.2,0.6-0.3c0,0,0,0,0,0
			c0.2-0.1,0.4-0.2,0.6-0.3c0,0,0,0,0,0c0.2-0.1,0.4-0.2,0.5-0.3c0,0,0,0,0,0c0.2-0.1,0.3-0.2,0.5-0.3c0,0,0,0,0.1,0
			c0.2-0.1,0.3-0.2,0.5-0.4c0,0,0,0,0.1,0c0.2-0.1,0.3-0.2,0.5-0.4c0,0,0,0,0.1-0.1c0.1-0.1,0.3-0.3,0.4-0.4c0,0,0.1-0.1,0.1-0.1
			c0.1-0.1,0.3-0.3,0.4-0.4c0,0,0.1-0.1,0.1-0.1c0.1-0.1,0.2-0.3,0.4-0.4c0,0,0.1-0.1,0.1-0.1c0.1-0.1,0.2-0.3,0.3-0.4
			c0,0,0.1-0.1,0.1-0.1c0.1-0.1,0.2-0.3,0.3-0.4c0-0.1,0.1-0.1,0.1-0.2c0.1-0.1,0.2-0.3,0.3-0.4c0-0.1,0.1-0.1,0.1-0.2
			c0.1-0.1,0.2-0.3,0.2-0.4c0-0.1,0.1-0.1,0.1-0.2c0.1-0.1,0.1-0.3,0.2-0.4c0-0.1,0.1-0.2,0.1-0.2c0.1-0.1,0.1-0.3,0.2-0.4
			c0-0.1,0.1-0.2,0.1-0.3c0.1-0.1,0.1-0.3,0.2-0.4c0-0.1,0.1-0.2,0.1-0.3c0-0.1,0.1-0.2,0.1-0.4c0-0.1,0.1-0.2,0.1-0.3
			c0-0.1,0.1-0.2,0.1-0.4c0-0.1,0.1-0.2,0.1-0.3c0-0.1,0-0.1,0-0.2c0.2,0.3,0.5,0.5,0.7,0.5c0.8,0,1.5-1.7,1.5-3.8
			C73.9,31.6,73.2,29.9,72.4,29.9z"/>
		<path fill-rule="evenodd" clip-rule="evenodd" fill="#EE7A23" d="M90.6,84.4c0-12.4-4.8-24.9-11.5-28.8c-3.9-2.6-11-4.4-21.3-4.4
			C47.6,51.2,40,53,36,55.5c-6.7,3.9-10.9,16.4-10.9,28.8v3.4h11.9v-3.4c0-8.2,2.6-13.3,4.3-15.8v19.3h33V69.2
			c1.8,2.7,4.4,7.7,4.4,15.1v3.4h11.9V84.4z"/>
		<path fill-rule="evenodd" clip-rule="evenodd" fill="#603A17" d="M71.6,29.3c0-0.2-0.1-0.3-0.2-0.5c-0.1-0.2-0.1-0.5-0.2-0.7
			c-0.1-0.2-0.2-0.4-0.2-0.6c-0.1-0.2-0.1-0.4-0.2-0.5c-0.1-0.2-0.2-0.4-0.3-0.7c-0.1-0.1-0.1-0.3-0.2-0.4c-0.1-0.2-0.3-0.5-0.4-0.7
			c-0.1-0.1-0.1-0.2-0.2-0.3c-0.2-0.3-0.4-0.5-0.6-0.7c-0.1-0.1-0.1-0.1-0.2-0.2c-0.2-0.3-0.4-0.5-0.7-0.8c0,0-0.1-0.1-0.1-0.1
			c-0.3-0.3-0.5-0.5-0.8-0.7c0,0,0,0-0.1-0.1c-0.3-0.3-0.6-0.5-0.9-0.7c0,0,0,0,0,0c-2.3-1.7-5.2-2.7-8.2-2.7
			c-7.6,0-13.7,6.2-14.1,13.9c0.9-1,1.4-2.4,2.3-3.4c1.4-1.7,3.3-2.8,4.9-4.3c1.1-1,3-1.2,4.1,0c0.8,0.9,2,1.8,3.2,2.5l0,0h0
			c0.4,0.2,0.8,0.4,1.2,0.6c0,0,0.1,0,0.1,0.1c0.1,0.1,0.3,0.1,0.4,0.1c0,0,0,0,0.1,0c0.2,0.1,0.5,0.1,0.7,0.2c0.1,0,0.2,0,0.3,0.1
			c0.1,0,0.2,0,0.3,0.1c0.2,0,0.4,0.1,0.5,0.1c0.1,0,0.2,0,0.2,0c0.1,0,0.3,0,0.4,0c0.1,0,0.1,0,0.2,0c0.2,0,0.4,0,0.6-0.1
			c0.1,0,0.1,0,0.2,0c0.2,0,0.4-0.1,0.5-0.1c0,0,0.1,0,0.1,0c0.2-0.1,0.4-0.1,0.6-0.2c0,0,0.1,0,0.1-0.1c0.2-0.1,0.4-0.2,0.6-0.3
			c1.4-0.8,3.1-0.3,3.9,1c0.4,0.6,1.3,1.1,2.3,1.6C71.8,30.1,71.7,29.7,71.6,29.3z"/>
		<g>
			<g>
				<path fill-rule="evenodd" clip-rule="evenodd" fill="#F1A240" d="M73.4,25.4c0-0.1,0-0.2-0.1-0.4c-0.3-0.8-0.9-3.2-0.9-4.1
					c0-6.8-6.4-12.4-14.3-12.4c-7.9,0-14.3,5.5-14.3,12.4c0,0.8-0.7,3.1-1.2,4.4H73.4z"/>
				<path fill-rule="evenodd" clip-rule="evenodd" fill="#F1A240" d="M57.9,13.1c2,0,3.7-1.7,3.7-3.7c0-2-1.7-3.7-3.7-3.7
					c-2,0-3.7,1.7-3.7,3.7C54.3,11.4,55.9,13.1,57.9,13.1z"/>
				<g>
					<g>
						<g>
							<path fill-rule="evenodd" clip-rule="evenodd" fill="#D08D34" d="M49.7,11c1.3-0.8,2.7-1.4,4.3-1.9c0.1,0.3,0.2,0.5,0.2,0.8
								v9.9c0,1.2-1,2.2-2.2,2.2l0,0c-1.2,0-2.2-1-2.2-2.2V11z"/>
						</g>
						<g>
							<path fill-rule="evenodd" clip-rule="evenodd" fill="#D08D34" d="M61.9,9.1c1.5,0.4,3,0.9,4.2,1.7v9.1c0,1.2-1,2.2-2.2,2.2
								l0,0c-1.2,0-2.2-1-2.2-2.2V10C61.7,9.6,61.8,9.3,61.9,9.1z"/>
						</g>
					</g>
				</g>
			</g>
			<path fill-rule="evenodd" clip-rule="evenodd" fill="#D08D34" d="M74.3,25.6c0,0.7-0.5,1.2-1.2,1.2H43c-0.6,0-1.2-0.5-1.2-1.2
				l0,0c0-0.7,0.5-1.2,1.2-1.2h30.2C73.8,24.4,74.3,25,74.3,25.6L74.3,25.6z"/>
		</g>
		<path fill="#E7D5B6" d="M58.4,51.1"/>
		<path fill-rule="evenodd" clip-rule="evenodd" fill="#FFFFFF" d="M51.4,51.4l6.4,20.4l6-20.5c0,0-0.9-0.2-5.6-0.2
			C53.4,51.2,51.4,51.4,51.4,51.4z"/>
		<ellipse fill-rule="evenodd" clip-rule="evenodd" fill="#212725" cx="57.9" cy="51.1" rx="3.2" ry="1.9"/>
		<polygon fill-rule="evenodd" clip-rule="evenodd" fill="#212725" points="57.1,52.1 55.7,65.1 57.8,71.8 59.8,65.1 59.1,52.1 		
			"/>
		<rect x="62.8" y="71.6" fill-rule="evenodd" clip-rule="evenodd" fill="#FFFFFF" width="8.5" height="4.6"/>
		<polygon opacity="0.4" fill-rule="evenodd" clip-rule="evenodd" fill="#212725" points="63.8,51.4 68.9,56.6 57.8,71.8 		"/>
		<polygon opacity="0.4" fill-rule="evenodd" clip-rule="evenodd" fill="#212725" points="51.4,51.4 47,56.6 57.8,71.9 		"/>
		<rect x="57.3" y="71.7" opacity="0.4" fill-rule="evenodd" clip-rule="evenodd" fill="#212725" width="1" height="16.2"/>
	</g>
	<g>
		<g>
			<polygon fill="#424143" points="30.2,55 87.5,55 83,84.4 34.2,84.4 			"/>
			<rect x="34.1" y="83.7" fill="#212725" width="49" height="4"/>
		</g>
		<polygon fill="#FFFFFF" points="53.7,67.1 63.9,67.1 63.1,72.3 54.5,72.3 		"/>
		<rect x="0.8" y="87.3" fill="#603A17" width="118.5" height="7"/>
	</g>
</g>
</svg>
