<?xml version="1.0" encoding="utf-8"?>
<!-- Generator: Adobe Illustrator 18.1.1, SVG Export Plug-In . SVG Version: 6.00 Build 0)  -->
<svg version="1.1" id="Layer_1" xmlns="http://www.w3.org/2000/svg" xmlns:xlink="http://www.w3.org/1999/xlink" x="0px" y="0px"
	 viewBox="0 0 120 100" enable-background="new 0 0 120 100" xml:space="preserve">
<g>
	<g>
		<rect x="53.7" y="37.7" fill-rule="evenodd" clip-rule="evenodd" fill="#E7D5B6" width="9.2" height="9.4"/>
		<path fill-rule="evenodd" clip-rule="evenodd" fill="#FEEAC7" d="M72,26.3c-0.2,0-0.4,0.1-0.5,0.3c0-0.1,0-0.1,0-0.2
			c0-0.1,0-0.2-0.1-0.3c0-0.1-0.1-0.2-0.1-0.3c0-0.1-0.1-0.2-0.1-0.3c0-0.1-0.1-0.2-0.1-0.3c0-0.1-0.1-0.2-0.1-0.3
			c0-0.1-0.1-0.2-0.1-0.3c0-0.1-0.1-0.2-0.1-0.3c0-0.1-0.1-0.2-0.2-0.4c0-0.1-0.1-0.2-0.1-0.2c-0.1-0.1-0.1-0.2-0.2-0.4
			c0-0.1-0.1-0.1-0.1-0.2c-0.1-0.1-0.1-0.2-0.2-0.4c0-0.1-0.1-0.1-0.1-0.2c-0.1-0.1-0.2-0.2-0.2-0.4c0-0.1-0.1-0.1-0.1-0.2
			c-0.1-0.1-0.2-0.2-0.3-0.4c0,0-0.1-0.1-0.1-0.1c-0.1-0.1-0.2-0.2-0.3-0.4c0,0-0.1-0.1-0.1-0.1c-0.1-0.1-0.2-0.2-0.3-0.4
			c0,0-0.1-0.1-0.1-0.1c-0.1-0.1-0.2-0.2-0.3-0.4c0,0-0.1-0.1-0.1-0.1c-0.1-0.1-0.2-0.2-0.4-0.4c0,0-0.1,0-0.1-0.1
			c-0.1-0.1-0.3-0.2-0.4-0.4c0,0,0,0-0.1-0.1c-0.1-0.1-0.3-0.2-0.4-0.3c0,0,0,0-0.1,0c-0.1-0.1-0.3-0.2-0.4-0.3c0,0,0,0,0,0
			c-0.2-0.1-0.3-0.2-0.5-0.3c0,0,0,0,0,0c-0.2-0.1-0.3-0.2-0.5-0.3c0,0,0,0,0,0c-0.2-0.1-0.3-0.2-0.5-0.3c0,0,0,0,0,0
			c-0.2-0.1-0.4-0.2-0.5-0.3c0,0,0,0,0,0c-0.2-0.1-0.4-0.2-0.6-0.2c0,0,0,0,0,0c-1.2-0.5-2.4-0.8-3.7-0.9c0,0,0,0,0,0
			c-0.2,0-0.4,0-0.6,0c0,0,0,0,0,0c-0.1,0-0.2,0-0.4,0c-6.2,0-11.3,4.4-12.7,10.4c-0.1,0-0.2-0.1-0.3-0.1c-0.8,0-1.4,1.6-1.4,3.5
			c0,1.9,0.6,3.5,1.4,3.5c0.2,0,0.3-0.1,0.5-0.2c1.6,5.6,6.6,9.6,12.5,9.6c0.1,0,0.2,0,0.4,0c0,0,0,0,0,0c0.2,0,0.4,0,0.6,0
			c0,0,0,0,0,0c1.3-0.1,2.5-0.4,3.7-0.9c0,0,0,0,0,0c0.2-0.1,0.4-0.2,0.6-0.2c0,0,0,0,0,0c0.2-0.1,0.4-0.2,0.5-0.3c0,0,0,0,0,0
			c0.2-0.1,0.4-0.2,0.5-0.3c0,0,0,0,0,0c0.2-0.1,0.3-0.2,0.5-0.3c0,0,0,0,0,0c0.2-0.1,0.3-0.2,0.5-0.3c0,0,0,0,0,0
			c0.2-0.1,0.3-0.2,0.4-0.3c0,0,0,0,0.1,0c0.1-0.1,0.3-0.2,0.4-0.3c0,0,0,0,0.1-0.1c0.1-0.1,0.3-0.2,0.4-0.4c0,0,0.1-0.1,0.1-0.1
			c0.1-0.1,0.2-0.2,0.4-0.4c0,0,0.1-0.1,0.1-0.1c0.1-0.1,0.2-0.2,0.3-0.4c0,0,0.1-0.1,0.1-0.1c0.1-0.1,0.2-0.2,0.3-0.4
			c0,0,0.1-0.1,0.1-0.1c0.1-0.1,0.2-0.2,0.3-0.4c0,0,0.1-0.1,0.1-0.1c0.1-0.1,0.2-0.2,0.3-0.4c0-0.1,0.1-0.1,0.1-0.2
			c0.1-0.1,0.2-0.2,0.2-0.4c0-0.1,0.1-0.1,0.1-0.2c0.1-0.1,0.1-0.2,0.2-0.4c0-0.1,0.1-0.1,0.1-0.2c0.1-0.1,0.1-0.2,0.2-0.4
			c0-0.1,0.1-0.2,0.1-0.2c0.1-0.1,0.1-0.2,0.2-0.4c0-0.1,0.1-0.2,0.1-0.3c0-0.1,0.1-0.2,0.1-0.3c0-0.1,0.1-0.2,0.1-0.3
			c0-0.1,0.1-0.2,0.1-0.3c0-0.1,0.1-0.2,0.1-0.3c0,0,0-0.1,0-0.2c0.2,0.3,0.4,0.5,0.7,0.5c0.8,0,1.4-1.6,1.4-3.5
			C73.4,27.9,72.7,26.3,72,26.3z"/>
		<path fill-rule="evenodd" clip-rule="evenodd" fill="#212725" d="M88.8,76.6c0-11.4-4.5-23-10.6-26.6c-3.6-2.4-10.2-4.1-19.6-4.1
			c-9.4,0-16.5,1.7-20.1,4c-6.2,3.6-10.1,15.2-10.1,26.6v3.2h11v-3.2c0-7.6,2.4-12.3,4-14.6v17.8h30.5V62.6c1.7,2.5,4.1,7.1,4.1,14
			v3.2h11V76.6z"/>
		<path fill-rule="evenodd" clip-rule="evenodd" fill="#603A17" d="M71.3,25.7c0-0.2-0.1-0.3-0.1-0.4C71,25,71,24.8,70.9,24.6
			c-0.1-0.2-0.2-0.4-0.2-0.5c-0.1-0.2-0.1-0.3-0.2-0.5c-0.1-0.2-0.2-0.4-0.3-0.6c-0.1-0.1-0.1-0.3-0.2-0.4c-0.1-0.2-0.3-0.4-0.4-0.7
			c-0.1-0.1-0.1-0.2-0.2-0.3c-0.2-0.2-0.3-0.5-0.5-0.7c0-0.1-0.1-0.1-0.1-0.2c-0.2-0.2-0.4-0.5-0.6-0.7c0,0-0.1-0.1-0.1-0.1
			c-0.2-0.2-0.5-0.5-0.7-0.7c0,0,0,0-0.1-0.1c-0.3-0.2-0.5-0.5-0.8-0.7c0,0,0,0,0,0c-2.1-1.6-4.8-2.5-7.6-2.5c-7,0-12.7,5.7-13,12.8
			c0.8-0.9,1.3-2.3,2.1-3.2c1.3-1.5,3-2.6,4.5-4c1-0.9,2.8-1.1,3.8,0c0.8,0.9,1.8,1.7,2.9,2.3l0,0c0,0,0,0,0,0
			c0.4,0.2,0.8,0.4,1.1,0.6c0,0,0.1,0,0.1,0.1c0.1,0,0.2,0.1,0.4,0.1c0,0,0,0,0.1,0c0.2,0.1,0.4,0.1,0.6,0.2c0.1,0,0.2,0,0.3,0.1
			c0.1,0,0.2,0,0.3,0.1c0.2,0,0.3,0,0.5,0.1c0.1,0,0.1,0,0.2,0c0.1,0,0.3,0,0.4,0c0.1,0,0.1,0,0.2,0c0.2,0,0.4,0,0.5,0
			c0.1,0,0.1,0,0.2,0c0.2,0,0.3-0.1,0.5-0.1c0,0,0,0,0.1,0c0.2-0.1,0.4-0.1,0.5-0.2c0,0,0.1,0,0.1-0.1c0.2-0.1,0.4-0.2,0.5-0.3
			c1.3-0.8,2.9-0.3,3.6,1c0.4,0.6,1.2,1.1,2.1,1.5C71.4,26.4,71.4,26.1,71.3,25.7z"/>
		<g>
			<g>
				<path fill-rule="evenodd" clip-rule="evenodd" fill="#F1A240" d="M72.9,22.2c0-0.1,0-0.2-0.1-0.3c-0.2-0.7-0.9-3-0.9-3.8
					c0-6.3-5.9-11.4-13.2-11.4c-7.3,0-13.2,5.1-13.2,11.4c0,0.7-0.6,2.9-1.1,4.1H72.9z"/>
				<path fill-rule="evenodd" clip-rule="evenodd" fill="#F1A240" d="M58.6,10.8c1.9,0,3.4-1.5,3.4-3.4C62,5.5,60.5,4,58.6,4
					c-1.9,0-3.4,1.5-3.4,3.4C55.2,9.3,56.8,10.8,58.6,10.8z"/>
				<g>
					<g>
						<g>
							<path fill-rule="evenodd" clip-rule="evenodd" fill="#D08D34" d="M51.1,8.8c1.2-0.8,2.5-1.3,4-1.7c0.1,0.2,0.1,0.5,0.1,0.8
								V17c0,1.1-0.9,2.1-2.1,2.1l0,0c-1.1,0-2.1-0.9-2.1-2.1V8.8z"/>
						</g>
						<g>
							<path fill-rule="evenodd" clip-rule="evenodd" fill="#D08D34" d="M62.3,7c1.4,0.3,2.7,0.9,3.9,1.6V17c0,1.1-0.9,2.1-2.1,2.1
								l0,0c-1.1,0-2.1-0.9-2.1-2.1V7.9C62.1,7.6,62.2,7.3,62.3,7z"/>
						</g>
					</g>
				</g>
			</g>
			<path fill-rule="evenodd" clip-rule="evenodd" fill="#D08D34" d="M73.7,22.3c0,0.6-0.5,1.1-1.1,1.1H44.8c-0.6,0-1.1-0.5-1.1-1.1
				l0,0c0-0.6,0.5-1.1,1.1-1.1h27.8C73.3,21.2,73.7,21.7,73.7,22.3L73.7,22.3z"/>
		</g>
		<path fill="#E7D5B6" d="M59,45.9"/>
		<path fill-rule="evenodd" clip-rule="evenodd" fill="#FFFFFF" d="M52.6,46.2L58.5,65L64,46.1c0,0-0.9-0.2-5.2-0.2
			S52.6,46.2,52.6,46.2z"/>
		<ellipse fill-rule="evenodd" clip-rule="evenodd" fill="#0797A7" cx="58.6" cy="45.9" rx="3" ry="1.8"/>
		<polygon fill-rule="evenodd" clip-rule="evenodd" fill="#0797A7" points="57.8,46.8 56.5,58.8 58.5,65 60.4,58.8 59.7,46.8 		"/>
		<rect x="63.1" y="64.8" fill-rule="evenodd" clip-rule="evenodd" fill="#FFFFFF" width="7.9" height="4.2"/>
		<polygon fill-rule="evenodd" clip-rule="evenodd" fill="#141B17" points="64,46.1 68.8,50.9 58.5,65 		"/>
		<polygon fill-rule="evenodd" clip-rule="evenodd" fill="#141B17" points="52.6,46.1 48.5,50.9 58.5,65.1 		"/>
		<rect x="58" y="64.9" fill-rule="evenodd" clip-rule="evenodd" fill="#141B17" width="0.9" height="14.9"/>
	</g>
	<g>
		<g>
			<polygon fill="#EFEFEF" points="105.9,96 11.1,96 21.7,74.3 95.3,74.3 			"/>
		</g>
		<g opacity="0.5">
			<g>
				<path fill="#212725" d="M23.1,89.2h-1.8c0,0-0.7,1,0.8,1.1h8.2c0,0.1,0,0.1,0.1,0.2l7.8,1.4c0.1,0,0.3,0,0.3-0.1c0,0,0,0,0,0
					h0.2c0,0,0,0.1,0,0.1c0,0.1,0.2,0.1,0.3,0.1l5.5-1.8c0.1,0,0.2-0.1,0.2-0.2l0.6,0c0,0,0.4-0.5-2.1-0.5h-2.8l0.3-1.2h-3.7
					l-0.3,1.2H23.6l2.6-8.3c0,0,0,0,0,0c0.5-0.1,0.9-0.4,1-0.8c0.1-0.4-0.1-0.7-0.5-0.8l0.2-0.5c0-0.1,0-0.1-0.1-0.1l-0.3-0.2
					c0,0,0-0.1,0-0.1c0-0.1,0.1-0.1,0.1-0.1c0.1-0.1,0.3-0.1,0.3,0c0.1,0.1,0.2,0.1,0.3,0c0.1-0.1,0.1-0.2,0.1-0.2
					c-0.1-0.1-0.2-0.2-0.4-0.2c-0.2,0-0.4,0.1-0.5,0.2c-0.2,0.1-0.3,0.2-0.3,0.4c0,0.1,0,0.3,0.1,0.4c0,0,0,0,0,0l0.2,0.1l-0.1,0.4
					c-0.5,0.1-0.9,0.4-1,0.8c-0.1,0.4,0.1,0.7,0.5,0.8c0,0,0,0,0,0L23.1,89.2L23.1,89.2z M39.7,89.8l4.5-0.1l-5.1,1.7L39.7,89.8z
					 M37,90.3l1.6-0.5l-0.1,1.7l-6.8-1.2H37L37,90.3z M25.7,80.1c0.1-0.2,0.4-0.4,0.7-0.4c0.3,0,0.5,0.2,0.4,0.4
					c-0.1,0.2-0.4,0.4-0.7,0.4C25.8,80.5,25.6,80.3,25.7,80.1z"/>
			</g>
			<polygon fill="#424143" points="41.6,88 38,88 38.7,85 42.2,85 			"/>
			<g>
				<polygon fill="#212725" points="41.6,85 39.3,85 40.8,78 43.1,78 				"/>
			</g>
			<polygon fill="#424143" points="39.9,75.8 41.2,76.5 40.8,78.1 43.1,78.1 43.3,76.7 44.9,75.8 			"/>
		</g>
		<path fill="#818182" d="M98.5,89.5h-2.6l-0.9-2.1h2.4l0-0.2h-2.5l-0.9-2.1h2.3l0-0.2h-2.4l-0.9-2.1h2.4l0-0.2h-2.5l-0.9-2.1h2.3
			l0-0.2h-2.3l-0.9-2.1h2.2l0-0.2h-2.2l-0.7-1.6l-0.3,0l0.6,1.5h-2.4l-0.6-1.6l-0.3,0l0.6,1.5h-2.4l-0.6-1.6l-0.3,0l0.6,1.5h-2.4
			L82,76.4l-0.3,0l0.6,1.5h-2.4l-0.6-1.6l-0.3,0l0.6,1.5h-2.4l-0.6-1.6l-0.3,0l0.5,1.5h-1.4l0,0.2H77l0.7,2.1h-1.3l0,0.2h1.4
			l0.8,2.1h-1.2l0,0.2h1.3l0.8,2.1h-1.4l0,0.2h1.4l0.8,2.1H79l0,0.2h1.3l0.8,2.1H80l0,0.2h1.3l0.8,2l0.3,0l-0.8-1.9h2.6l0.8,2l0.3,0
			l-0.8-1.9H87l0.8,2l0.3,0l-0.8-1.9h2.6l0.8,2l0.3,0l-0.8-1.9h2.6l0.9,2l0.3,0l-0.9-1.9h2.6l0.9,2l0.3,0L96,89.7h2.6L98.5,89.5z
			 M87.9,84.9h-2.5l-0.8-2.1H87L87.9,84.9z M87.2,82.6l-0.8-2.1h2.5l0.9,2.1H87.2z M86.9,82.6h-2.5l-0.8-2.1h2.5L86.9,82.6z
			 M84.1,82.6h-2.5l-0.8-2.1h2.5L84.1,82.6z M84.2,82.8l0.8,2.1h-2.5l-0.8-2.1H84.2z M85.4,85.1H88l0.9,2.1h-2.6L85.4,85.1z
			 M88.3,85.1h2.5l0.9,2.1h-2.6L88.3,85.1z M93.5,84.9H91l-0.9-2.1h2.5L93.5,84.9z M92.5,82.6H90l-0.9-2.1h2.5L92.5,82.6z
			 M90.6,78.2l0.9,2.1H89l-0.9-2.1H90.6z M87.9,78.2l0.9,2.1h-2.5l-0.8-2.1H87.9z M85.2,78.2l0.8,2.1h-2.5l-0.8-2.1H85.2z
			 M77.3,78.2h2.4l0.8,2.1H78L77.3,78.2z M78.1,80.5h2.5l0.8,2.1h-2.5L78.1,80.5z M78.9,82.8h2.5l0.8,2.1h-2.5L78.9,82.8z
			 M79.8,85.1h2.5l0.8,2.1h-2.6L79.8,85.1z M81.5,89.5l-0.8-2.1h2.6l0.8,2.1H81.5z M87.2,89.5l-0.9-2.1h2.6l0.9,2.1H87.2z
			 M90.1,89.5l-0.9-2.1h2.6l0.9,2.1H90.1z M93,89.5l-0.9-2.1h2.6l0.9,2.1H93z"/>
		<path fill="#EE7A23" d="M73.7,78.2c0.3,1.4-1.5,2.5-3.9,2.5c-2.4,0-4.4-1.1-4.5-2.5c0-1.4,1.7-2.5,3.9-2.5
			C71.4,75.7,73.4,76.8,73.7,78.2z"/>
		<path fill="#EE7A23" d="M75.5,84c0.3,1.4-1.5,2.5-4,2.5c-2.5,0-4.5-1.1-4.6-2.5c-0.1-1.4,1.7-2.5,4-2.5
			C73.1,81.5,75.2,82.6,75.5,84z"/>
		<path fill="#EE7A23" d="M77.3,89.8c0.3,1.4-1.5,2.5-4.1,2.5c-2.6,0-4.7-1.1-4.7-2.5c-0.1-1.4,1.8-2.5,4.1-2.5
			C74.9,87.4,77,88.5,77.3,89.8z"/>
		<line fill="none" stroke="#B9BBBD" stroke-miterlimit="10" x1="81.7" y1="82.8" x2="92.8" y2="89.6"/>
		<line fill="none" stroke="#B9BBBD" stroke-miterlimit="10" x1="82.6" y1="78.1" x2="93.6" y2="84.9"/>
		<line fill="none" stroke="#B9BBBD" stroke-miterlimit="10" x1="88.9" y1="80.3" x2="87.2" y2="82.7"/>
		<line fill="none" stroke="#B9BBBD" stroke-miterlimit="10" x1="86.1" y1="87.4" x2="84.3" y2="89.7"/>
		<line fill="none" stroke="#B9BBBD" stroke-miterlimit="10" x1="79.7" y1="78.1" x2="77.9" y2="80.5"/>
		<line fill="none" stroke="#B9BBBD" stroke-miterlimit="10" x1="88" y1="77.9" x2="86.2" y2="80.3"/>
		<line fill="none" stroke="#B9BBBD" stroke-miterlimit="10" x1="90.8" y1="85" x2="89" y2="87.4"/>
		<line fill="none" stroke="#B9BBBD" stroke-miterlimit="10" x1="78.8" y1="82.7" x2="82.4" y2="85"/>
		<line fill="none" stroke="#B9BBBD" stroke-miterlimit="10" x1="90.9" y1="85" x2="94.7" y2="87.3"/>
		<g>
			<line fill="none" stroke="#B9BBBD" stroke-miterlimit="10" x1="47.8" y1="77.7" x2="59.7" y2="77.7"/>
			<line fill="none" stroke="#B9BBBD" stroke-miterlimit="10" x1="45.9" y1="79.1" x2="57.8" y2="79.1"/>
			<line fill="none" stroke="#B9BBBD" stroke-miterlimit="10" x1="47.6" y1="80.2" x2="59.6" y2="80.2"/>
			<line fill="none" stroke="#B9BBBD" stroke-miterlimit="10" x1="46.7" y1="81.3" x2="58.8" y2="81.3"/>
			<line fill="none" stroke="#B9BBBD" stroke-miterlimit="10" x1="46.6" y1="82.9" x2="58.8" y2="82.9"/>
			<line fill="none" stroke="#B9BBBD" stroke-miterlimit="10" x1="48.9" y1="82" x2="53.8" y2="82"/>
			<line fill="none" stroke="#B9BBBD" stroke-miterlimit="10" x1="55.1" y1="78.4" x2="59.9" y2="78.4"/>
			<line fill="none" stroke="#B9BBBD" stroke-miterlimit="10" x1="54.8" y1="83.7" x2="59.6" y2="83.7"/>
			<line fill="none" stroke="#B9BBBD" stroke-miterlimit="10" x1="56.8" y1="82.2" x2="61.6" y2="82.2"/>
			<line fill="none" stroke="#B9BBBD" stroke-miterlimit="10" x1="59.5" y1="80.8" x2="64.3" y2="80.8"/>
			<line fill="none" stroke="#B9BBBD" stroke-miterlimit="10" x1="58.5" y1="79.7" x2="63.3" y2="79.7"/>
			<line fill="none" stroke="#B9BBBD" stroke-miterlimit="10" x1="45.5" y1="83.8" x2="50.4" y2="83.8"/>
			<line fill="none" stroke="#B9BBBD" stroke-miterlimit="10" x1="47.5" y1="78.4" x2="52.2" y2="78.4"/>
		</g>
		<g>
			<line fill="none" stroke="#B9BBBD" stroke-miterlimit="10" x1="31" y1="77.4" x2="36.7" y2="77.4"/>
			<line fill="none" stroke="#B9BBBD" stroke-miterlimit="10" x1="29.9" y1="78.8" x2="35.6" y2="78.8"/>
			<line fill="none" stroke="#B9BBBD" stroke-miterlimit="10" x1="30.6" y1="79.8" x2="36.4" y2="79.8"/>
			<line fill="none" stroke="#B9BBBD" stroke-miterlimit="10" x1="30" y1="80.9" x2="35.8" y2="80.9"/>
			<line fill="none" stroke="#B9BBBD" stroke-miterlimit="10" x1="29.8" y1="82.5" x2="35.7" y2="82.5"/>
			<line fill="none" stroke="#B9BBBD" stroke-miterlimit="10" x1="31" y1="81.6" x2="33.3" y2="81.6"/>
			<line fill="none" stroke="#B9BBBD" stroke-miterlimit="10" x1="34.4" y1="78.1" x2="36.7" y2="78.1"/>
			<line fill="none" stroke="#B9BBBD" stroke-miterlimit="10" x1="33.6" y1="83.4" x2="36" y2="83.4"/>
			<line fill="none" stroke="#B9BBBD" stroke-miterlimit="10" x1="34.8" y1="81.8" x2="37.1" y2="81.8"/>
			<line fill="none" stroke="#B9BBBD" stroke-miterlimit="10" x1="36.3" y1="80.4" x2="38.6" y2="80.4"/>
			<line fill="none" stroke="#B9BBBD" stroke-miterlimit="10" x1="35.9" y1="79.3" x2="38.2" y2="79.3"/>
			<line fill="none" stroke="#B9BBBD" stroke-miterlimit="10" x1="29.2" y1="83.5" x2="31.5" y2="83.5"/>
			<line fill="none" stroke="#B9BBBD" stroke-miterlimit="10" x1="30.7" y1="78.1" x2="33" y2="78.1"/>
		</g>
		<g>
			<path fill="#424143" d="M64.5,85.9L64,85.6c-0.2-0.1-0.4-0.1-0.5,0l-0.3,0.2c-0.2-0.1-0.5-0.1-0.7-0.2l-0.1-0.3
				c0-0.1-0.2-0.3-0.4-0.2l-0.6,0c-0.2,0-0.4,0.1-0.4,0.3l0,0.3c-0.3,0.1-0.5,0.2-0.7,0.3l-0.3-0.2c-0.2-0.1-0.4-0.1-0.5,0.1
				l-0.5,0.4c-0.1,0.1-0.2,0.3,0,0.4l0.3,0.2c-0.1,0.2-0.2,0.4-0.3,0.5l-0.4,0.1c-0.2,0-0.4,0.2-0.4,0.3l0,0.5
				c0,0.2,0.2,0.3,0.4,0.3l0.5,0c0.1,0.2,0.2,0.3,0.3,0.5l-0.3,0.3c-0.1,0.1-0.1,0.3,0,0.4l0.5,0.3c0.2,0.1,0.4,0.1,0.6,0l0.4-0.2
				c0.2,0.1,0.5,0.1,0.8,0.2l0.1,0.3c0,0.2,0.3,0.3,0.5,0.2l0.8,0c0.2,0,0.4-0.1,0.4-0.3l0-0.3c0.3-0.1,0.5-0.2,0.8-0.3l0.4,0.2
				c0.2,0.1,0.5,0.1,0.6-0.1l0.4-0.4c0.1-0.1,0.1-0.3-0.1-0.4l-0.3-0.2c0.1-0.2,0.2-0.4,0.2-0.5l0.4-0.1c0.2,0,0.3-0.2,0.3-0.3
				l-0.1-0.5c0-0.2-0.2-0.3-0.4-0.3l-0.4,0c-0.1-0.2-0.2-0.3-0.4-0.5l0.2-0.3C64.7,86.2,64.7,86,64.5,85.9z M62,88.8
				c-0.8,0-1.5-0.4-1.5-0.9c0-0.5,0.5-1,1.3-1.1c0.7,0,1.4,0.4,1.5,0.9C63.4,88.3,62.8,88.7,62,88.8z"/>
			<path fill="#424143" d="M57.2,85.7l-0.4-0.2c-0.1-0.1-0.3-0.1-0.4,0l-0.2,0.1c-0.2-0.1-0.3-0.1-0.5-0.1l-0.1-0.2
				c0-0.1-0.2-0.2-0.3-0.2l-0.5,0c-0.1,0-0.3,0.1-0.3,0.2l0,0.2c-0.2,0.1-0.4,0.1-0.5,0.2l-0.2-0.1c-0.1-0.1-0.3,0-0.4,0L53.1,86
				c-0.1,0.1-0.1,0.2,0,0.3l0.2,0.2c-0.1,0.1-0.2,0.3-0.2,0.4l-0.3,0c-0.2,0-0.3,0.1-0.3,0.2l0,0.4c0,0.1,0.1,0.2,0.3,0.2l0.4,0
				c0,0.1,0.1,0.2,0.2,0.3l-0.2,0.2c-0.1,0.1-0.1,0.2,0,0.3l0.4,0.2c0.1,0.1,0.3,0.1,0.4,0l0.3-0.2c0.2,0.1,0.4,0.1,0.5,0.1l0.1,0.2
				c0,0.1,0.2,0.2,0.3,0.2l0.5,0c0.2,0,0.3-0.1,0.3-0.2l0-0.2c0.2,0,0.4-0.1,0.5-0.2l0.3,0.1c0.1,0.1,0.3,0,0.4,0l0.3-0.3
				c0.1-0.1,0.1-0.2,0-0.3l-0.2-0.2c0.1-0.1,0.1-0.3,0.2-0.4l0.3,0c0.2,0,0.2-0.1,0.2-0.2L58,86.8c0-0.1-0.2-0.2-0.3-0.2l-0.3,0
				c-0.1-0.1-0.2-0.2-0.3-0.4l0.2-0.2C57.3,85.9,57.3,85.8,57.2,85.7z M55.3,87.8c-0.6,0-1-0.3-1.1-0.6c0-0.4,0.4-0.7,0.9-0.8
				c0.5,0,1,0.3,1,0.6C56.3,87.4,55.9,87.8,55.3,87.8z"/>
			<path fill="#424143" d="M58.5,90.1l-0.4-0.2c-0.1-0.1-0.3-0.1-0.4,0L57.5,90c-0.2-0.1-0.4-0.1-0.5-0.1l-0.1-0.2
				c0-0.1-0.2-0.2-0.3-0.2l-0.5,0c-0.1,0-0.3,0.1-0.3,0.2l0,0.2c-0.2,0.1-0.4,0.1-0.5,0.2L55.1,90c-0.1-0.1-0.3,0-0.4,0l-0.3,0.3
				c-0.1,0.1-0.1,0.2,0,0.3l0.2,0.2c-0.1,0.1-0.2,0.3-0.2,0.4l-0.3,0c-0.2,0-0.3,0.1-0.3,0.2l0,0.4c0,0.1,0.1,0.2,0.3,0.2l0.4,0
				c0.1,0.1,0.1,0.2,0.2,0.3l-0.2,0.2c-0.1,0.1-0.1,0.2,0,0.3l0.4,0.2c0.1,0.1,0.3,0.1,0.4,0l0.3-0.2c0.2,0.1,0.4,0.1,0.6,0.1
				l0.1,0.2c0,0.1,0.2,0.2,0.4,0.2l0.6,0c0.2,0,0.3-0.1,0.3-0.2l0-0.2c0.2,0,0.4-0.1,0.6-0.2l0.3,0.1c0.1,0.1,0.3,0,0.4,0l0.3-0.3
				c0.1-0.1,0.1-0.2,0-0.3l-0.2-0.2c0.1-0.1,0.1-0.3,0.2-0.4l0.3,0c0.2,0,0.3-0.1,0.2-0.2l-0.1-0.4c0-0.1-0.2-0.2-0.3-0.2l-0.3,0
				c-0.1-0.1-0.2-0.2-0.3-0.4l0.2-0.2C58.6,90.2,58.6,90.1,58.5,90.1z M56.6,92.1c-0.6,0-1.1-0.3-1.1-0.6c0-0.4,0.4-0.7,0.9-0.8
				c0.5,0,1,0.3,1.1,0.6C57.6,91.8,57.2,92.1,56.6,92.1z"/>
			<path fill="#424143" d="M53.7,89.3l-0.2-0.1c-0.1,0-0.1,0-0.2,0l-0.1,0.1c-0.1,0-0.2-0.1-0.3-0.1l0-0.1c0-0.1-0.1-0.1-0.2-0.1
				l-0.3,0c-0.1,0-0.1,0.1-0.1,0.1l0,0.1c-0.1,0-0.2,0.1-0.3,0.1l-0.1-0.1c-0.1,0-0.2,0-0.2,0l-0.2,0.1c-0.1,0-0.1,0.1,0,0.2
				l0.1,0.1c-0.1,0.1-0.1,0.1-0.1,0.2l-0.2,0c-0.1,0-0.1,0.1-0.2,0.1l0,0.2c0,0.1,0.1,0.1,0.1,0.1l0.2,0c0,0.1,0.1,0.1,0.1,0.2
				l-0.1,0.1c-0.1,0-0.1,0.1,0,0.2l0.2,0.1c0.1,0,0.2,0,0.2,0l0.2-0.1c0.1,0,0.2,0.1,0.3,0.1l0,0.1c0,0.1,0.1,0.1,0.2,0.1l0.3,0
				C53,91,53,91,53,90.9l0-0.1c0.1,0,0.2-0.1,0.3-0.1l0.2,0.1c0.1,0,0.2,0,0.2,0l0.2-0.1c0.1,0,0-0.1,0-0.2l-0.1-0.1
				c0-0.1,0.1-0.1,0.1-0.2l0.2,0c0.1,0,0.1-0.1,0.1-0.1l0-0.2c0-0.1-0.1-0.1-0.2-0.1l-0.2,0c0-0.1-0.1-0.1-0.1-0.2l0.1-0.1
				C53.8,89.4,53.8,89.3,53.7,89.3z M52.7,90.4c-0.3,0-0.6-0.1-0.6-0.3c0-0.2,0.2-0.4,0.5-0.4c0.3,0,0.5,0.1,0.6,0.3
				C53.2,90.2,53,90.4,52.7,90.4z"/>
			<path fill="#424143" d="M52,85.6l-0.2-0.1c-0.1,0-0.1,0-0.2,0l-0.1,0.1c-0.1,0-0.2-0.1-0.3-0.1l0-0.1c0-0.1-0.1-0.1-0.2-0.1
				l-0.2,0c-0.1,0-0.1,0.1-0.1,0.1l0,0.1c-0.1,0-0.2,0.1-0.3,0.1l-0.1-0.1c-0.1,0-0.1,0-0.2,0l-0.2,0.1c-0.1,0-0.1,0.1,0,0.2
				l0.1,0.1c0,0.1-0.1,0.1-0.1,0.2l-0.2,0c-0.1,0-0.1,0.1-0.2,0.1l0,0.2c0,0.1,0.1,0.1,0.1,0.1l0.2,0c0,0.1,0.1,0.1,0.1,0.2
				l-0.1,0.1c-0.1,0,0,0.1,0,0.2l0.2,0.1c0.1,0,0.2,0,0.2,0l0.2-0.1c0.1,0,0.2,0.1,0.3,0.1l0,0.1c0,0.1,0.1,0.1,0.2,0.1l0.3,0
				c0.1,0,0.2-0.1,0.2-0.1l0-0.1c0.1,0,0.2-0.1,0.3-0.1l0.2,0.1c0.1,0,0.2,0,0.2,0l0.2-0.1c0.1,0,0-0.1,0-0.2l-0.1-0.1
				c0-0.1,0.1-0.1,0.1-0.2l0.2,0c0.1,0,0.1-0.1,0.1-0.1l0-0.2c0-0.1-0.1-0.1-0.2-0.1l-0.2,0c0-0.1-0.1-0.1-0.1-0.2l0.1-0.1
				C52.1,85.7,52.1,85.6,52,85.6z M51,86.7c-0.3,0-0.5-0.1-0.5-0.3c0-0.2,0.2-0.4,0.5-0.4c0.3,0,0.5,0.1,0.5,0.3
				C51.5,86.5,51.3,86.7,51,86.7z"/>
			<path fill="#424143" d="M64.8,83.5l-0.2-0.1c-0.1,0-0.1,0-0.2,0l-0.1,0.1c-0.1,0-0.2-0.1-0.3-0.1l0-0.1c0-0.1-0.1-0.1-0.2-0.1
				l-0.2,0c-0.1,0-0.1,0.1-0.1,0.1l0,0.1c-0.1,0-0.2,0.1-0.3,0.1L63,83.5c-0.1,0-0.1,0-0.2,0l-0.2,0.1c-0.1,0-0.1,0.1,0,0.2l0.1,0.1
				c0,0.1-0.1,0.1-0.1,0.2l-0.2,0c-0.1,0-0.1,0.1-0.1,0.1l0,0.2c0,0.1,0.1,0.1,0.1,0.1l0.2,0c0,0.1,0.1,0.1,0.1,0.2l-0.1,0.1
				c-0.1,0.1,0,0.1,0,0.2l0.2,0.1c0.1,0,0.2,0,0.2,0l0.1-0.1c0.1,0,0.2,0.1,0.3,0.1l0,0.1c0,0.1,0.1,0.1,0.2,0.1l0.3,0
				c0.1,0,0.2-0.1,0.2-0.1l0-0.1c0.1,0,0.2-0.1,0.3-0.1l0.2,0.1c0.1,0,0.2,0,0.2,0l0.2-0.1c0.1,0,0-0.1,0-0.2l-0.1-0.1
				c0-0.1,0.1-0.1,0.1-0.2l0.2,0c0.1,0,0.1-0.1,0.1-0.1l0-0.2c0-0.1-0.1-0.1-0.2-0.1l-0.2,0c0-0.1-0.1-0.1-0.1-0.2l0.1-0.1
				C64.9,83.6,64.8,83.6,64.8,83.5z M63.8,84.6c-0.3,0-0.5-0.1-0.6-0.3c0-0.2,0.2-0.4,0.5-0.4c0.3,0,0.5,0.1,0.6,0.3
				C64.3,84.4,64.1,84.6,63.8,84.6z"/>
			<path fill="#424143" d="M50.6,87.8l-0.3-0.2c-0.1-0.1-0.2-0.1-0.3,0l-0.2,0.1c-0.1,0-0.3-0.1-0.4-0.1l0-0.2
				c0-0.1-0.1-0.1-0.2-0.1l-0.4,0c-0.1,0-0.2,0.1-0.2,0.2l0,0.2c-0.2,0-0.3,0.1-0.4,0.2l-0.2-0.1c-0.1-0.1-0.2,0-0.3,0L47.2,88
				c-0.1,0.1-0.1,0.2,0,0.2l0.2,0.1c-0.1,0.1-0.1,0.2-0.2,0.3l-0.3,0c-0.1,0-0.2,0.1-0.2,0.2l0,0.3c0,0.1,0.1,0.2,0.2,0.2l0.3,0
				c0,0.1,0.1,0.2,0.2,0.3l-0.2,0.2c-0.1,0.1-0.1,0.2,0,0.2l0.3,0.2c0.1,0.1,0.3,0.1,0.4,0l0.2-0.1c0.1,0,0.3,0.1,0.4,0.1l0,0.2
				c0,0.1,0.1,0.1,0.3,0.1l0.5,0c0.1,0,0.2-0.1,0.3-0.2l0-0.2c0.2,0,0.3-0.1,0.5-0.2l0.2,0.1c0.1,0.1,0.3,0,0.4,0l0.3-0.2
				c0.1-0.1,0.1-0.2,0-0.2l-0.2-0.1c0.1-0.1,0.1-0.2,0.1-0.3l0.3,0c0.1,0,0.2-0.1,0.2-0.2l0-0.3c0-0.1-0.1-0.2-0.2-0.2l-0.2,0
				c-0.1-0.1-0.1-0.2-0.2-0.3l0.1-0.1C50.7,88,50.7,87.9,50.6,87.8z M49,89.5c-0.5,0-0.8-0.2-0.8-0.5c0-0.3,0.4-0.6,0.8-0.6
				c0.4,0,0.8,0.2,0.8,0.5C49.8,89.2,49.5,89.5,49,89.5z"/>
		</g>
		<g>
			<path fill="#EFEFEF" d="M74,84c0.2,0.9-1,1.6-2.6,1.6c-1.6,0-2.9-0.7-3-1.6c0-0.9,1.1-1.6,2.6-1.6C72.4,82.4,73.8,83.1,74,84z"/>
		</g>
		<path fill="#EE7A23" d="M72.4,84c0.1,0.4-0.4,0.7-1.2,0.7c-0.7,0-1.3-0.3-1.4-0.7c0-0.4,0.5-0.7,1.2-0.7
			C71.8,83.3,72.4,83.6,72.4,84z"/>
		<g>
			<path fill="#EFEFEF" d="M70.3,78.2c0,0.3-0.3,0.5-0.7,0.5c-0.4,0-0.8-0.2-0.8-0.5c0-0.3,0.3-0.5,0.7-0.5
				C69.9,77.7,70.2,77.9,70.3,78.2z"/>
		</g>
	</g>
</g>
</svg>
