<?xml version="1.0" encoding="utf-8"?>
<!-- Generator: Adobe Illustrator 18.1.1, SVG Export Plug-In . SVG Version: 6.00 Build 0)  -->
<svg version="1.1" id="Layer_1" xmlns="http://www.w3.org/2000/svg" xmlns:xlink="http://www.w3.org/1999/xlink" x="0px" y="0px"
	 viewBox="0 0 120 100" enable-background="new 0 0 120 100" xml:space="preserve">
<g>
	<g>
		<rect x="80.2" y="65.6" fill-rule="evenodd" clip-rule="evenodd" fill="#E7D5B6" width="6.6" height="6.8"/>
		<path fill-rule="evenodd" clip-rule="evenodd" fill="#FEEAC7" d="M93.4,57.3c-0.1,0-0.3,0.1-0.4,0.2c0,0,0-0.1,0-0.1
			c0-0.1,0-0.2-0.1-0.2c0-0.1,0-0.2-0.1-0.2c0-0.1,0-0.1-0.1-0.2c0-0.1-0.1-0.2-0.1-0.2c0-0.1,0-0.1-0.1-0.2c0-0.1-0.1-0.2-0.1-0.2
			c0-0.1,0-0.1-0.1-0.2c0-0.1-0.1-0.2-0.1-0.3c0-0.1,0-0.1-0.1-0.2c0-0.1-0.1-0.2-0.1-0.3c0-0.1-0.1-0.1-0.1-0.2
			c0-0.1-0.1-0.2-0.1-0.3c0,0,0-0.1-0.1-0.1c-0.1-0.1-0.1-0.2-0.2-0.3c0,0,0-0.1-0.1-0.1c-0.1-0.1-0.1-0.2-0.2-0.3
			c0,0,0-0.1-0.1-0.1c-0.1-0.1-0.1-0.2-0.2-0.3c0,0,0-0.1-0.1-0.1c-0.1-0.1-0.1-0.2-0.2-0.3c0,0,0-0.1-0.1-0.1
			c-0.1-0.1-0.2-0.2-0.2-0.3c0,0,0,0-0.1-0.1c-0.1-0.1-0.2-0.2-0.3-0.3c0,0,0,0-0.1-0.1c-0.1-0.1-0.2-0.2-0.3-0.3c0,0,0,0,0,0
			c-0.1-0.1-0.2-0.2-0.3-0.3c0,0,0,0,0,0c-0.1-0.1-0.2-0.2-0.3-0.2c0,0,0,0,0,0c-0.1-0.1-0.2-0.2-0.3-0.2c0,0,0,0,0,0
			c-0.1-0.1-0.2-0.2-0.4-0.2c0,0,0,0,0,0c-0.1-0.1-0.2-0.1-0.4-0.2c0,0,0,0,0,0c-0.1-0.1-0.3-0.1-0.4-0.2c0,0,0,0,0,0
			c-0.1-0.1-0.3-0.1-0.4-0.2c0,0,0,0,0,0c-0.8-0.3-1.7-0.6-2.7-0.6c0,0,0,0,0,0c-0.2,0-0.3,0-0.5,0c0,0,0,0,0,0c-0.1,0-0.2,0-0.3,0
			c-4.5,0-8.2,3.2-9.1,7.5c-0.1,0-0.1,0-0.2,0c-0.6,0-1,1.1-1,2.5c0,1.4,0.4,2.5,1,2.5c0.1,0,0.2-0.1,0.3-0.1c1.1,4,4.7,7,9,7
			c0.1,0,0.2,0,0.3,0c0,0,0,0,0,0c0.2,0,0.3,0,0.5,0c0,0,0,0,0,0c0.9-0.1,1.8-0.3,2.7-0.6c0,0,0,0,0,0c0.1-0.1,0.3-0.1,0.4-0.2
			c0,0,0,0,0,0c0.1-0.1,0.3-0.1,0.4-0.2c0,0,0,0,0,0c0.1-0.1,0.3-0.1,0.4-0.2c0,0,0,0,0,0c0.1-0.1,0.2-0.1,0.4-0.2c0,0,0,0,0,0
			c0.1-0.1,0.2-0.2,0.3-0.2c0,0,0,0,0,0c0.1-0.1,0.2-0.2,0.3-0.2c0,0,0,0,0,0c0.1-0.1,0.2-0.2,0.3-0.3c0,0,0,0,0,0
			c0.1-0.1,0.2-0.2,0.3-0.3c0,0,0,0,0.1-0.1c0.1-0.1,0.2-0.2,0.3-0.3c0,0,0,0,0.1-0.1c0.1-0.1,0.2-0.2,0.2-0.3c0,0,0-0.1,0.1-0.1
			c0.1-0.1,0.1-0.2,0.2-0.3c0,0,0-0.1,0.1-0.1c0.1-0.1,0.1-0.2,0.2-0.3c0,0,0-0.1,0.1-0.1c0.1-0.1,0.1-0.2,0.2-0.3
			c0,0,0-0.1,0.1-0.1c0.1-0.1,0.1-0.2,0.2-0.3c0,0,0.1-0.1,0.1-0.1c0-0.1,0.1-0.2,0.1-0.3c0-0.1,0.1-0.1,0.1-0.2
			c0-0.1,0.1-0.2,0.1-0.3c0-0.1,0-0.1,0.1-0.2c0-0.1,0.1-0.2,0.1-0.3c0-0.1,0-0.1,0.1-0.2c0-0.1,0.1-0.2,0.1-0.3
			c0-0.1,0-0.1,0.1-0.2c0-0.1,0.1-0.2,0.1-0.2c0-0.1,0-0.1,0.1-0.2c0,0,0-0.1,0-0.1c0.1,0.2,0.3,0.3,0.5,0.3c0.5,0,1-1.1,1-2.5
			C94.4,58.5,94,57.3,93.4,57.3z"/>
		<path fill-rule="evenodd" clip-rule="evenodd" fill="#212725" d="M105.6,93.7c0-8.3-2.8-16.6-7.3-19.2c-2.6-1.7-7.7-2.9-14.6-2.9
			c-6.8,0-11.9,1.2-14.6,2.9c-4.5,2.6-7.3,10.9-7.3,19.2v2.8h7.9v-2.8c0-5.5,1.8-8.9,2.9-10.6v13.4h22V83.6c1.2,1.8,3,5.1,3,10.1
			v2.8h7.9V93.7z"/>
		<path fill-rule="evenodd" clip-rule="evenodd" fill="#603A17" d="M92.9,56.9c0-0.1-0.1-0.2-0.1-0.3c0-0.2-0.1-0.3-0.1-0.5
			c-0.1-0.1-0.1-0.3-0.2-0.4c-0.1-0.1-0.1-0.2-0.1-0.4c-0.1-0.2-0.2-0.3-0.2-0.4c0-0.1-0.1-0.2-0.1-0.3c-0.1-0.2-0.2-0.3-0.3-0.5
			c0-0.1-0.1-0.1-0.1-0.2c-0.1-0.2-0.2-0.3-0.4-0.5c0,0-0.1-0.1-0.1-0.1c-0.1-0.2-0.3-0.3-0.4-0.5c0,0-0.1-0.1-0.1-0.1
			c-0.2-0.2-0.3-0.3-0.5-0.5c0,0,0,0,0,0c-0.2-0.2-0.4-0.3-0.6-0.5c0,0,0,0,0,0c-1.5-1.1-3.4-1.8-5.5-1.8c-5.1,0-9.2,4.1-9.4,9.2
			c0.6-0.7,1-1.6,1.5-2.3c1-1.1,2.2-1.9,3.3-2.9c0.7-0.7,2-0.8,2.7,0c0.6,0.6,1.3,1.2,2.1,1.7l0,0h0c0.3,0.2,0.5,0.3,0.8,0.4
			c0,0,0.1,0,0.1,0c0.1,0,0.2,0.1,0.3,0.1c0,0,0,0,0.1,0c0.2,0.1,0.3,0.1,0.5,0.1c0.1,0,0.1,0,0.2,0c0.1,0,0.1,0,0.2,0
			c0.1,0,0.2,0,0.4,0c0.1,0,0.1,0,0.2,0c0.1,0,0.2,0,0.3,0c0,0,0.1,0,0.1,0c0.1,0,0.3,0,0.4,0c0,0,0.1,0,0.1,0c0.1,0,0.2,0,0.4-0.1
			c0,0,0,0,0.1,0c0.1,0,0.3-0.1,0.4-0.1c0,0,0.1,0,0.1,0c0.1-0.1,0.3-0.1,0.4-0.2c0.9-0.6,2.1-0.2,2.6,0.7c0.3,0.4,0.9,0.8,1.5,1.1
			C93,57.4,93,57.2,92.9,56.9z"/>
		<polygon fill="#EE7A23" points="92.5,72.2 89.6,71.9 88.1,82.4 84.1,82.4 78.9,82.4 77.4,71.9 74.5,72.2 75.8,82.4 75.8,96.5 
			84.1,96.5 91.2,96.5 91.2,82.4 91.2,82.4 		"/>
		<rect x="78" y="91.4" opacity="0.4" fill="#212725" width="11.1" height="5.1"/>
		<path fill="#E7D5B6" d="M86.8,73.6c0,0,0.1-0.1,0.1-0.1c0,0,0.1-0.1,0.1-0.1c0,0,0.1-0.1,0.1-0.1c0,0,0.1-0.1,0.1-0.1
			c0,0,0.1-0.1,0.1-0.1c0,0,0.1-0.1,0.1-0.1c0,0,0-0.1,0.1-0.2c0,0,0-0.1,0.1-0.1c0-0.1,0-0.1,0.1-0.2c0,0,0-0.1,0-0.1
			c0-0.1,0-0.1,0-0.2c0,0,0-0.1,0-0.1c0-0.1,0-0.2,0-0.3c0,0-1.6-0.1-3.6-0.2c-2-0.1-4.4,0.2-4.4,0.2c0,0.1,0,0.3,0,0.3
			c0,1.6,1.8,3,4,3c0.2,0,0.3,0,0.5,0l0,0c0,0,0,0,0,0c0.6-0.1,1.2-0.3,1.7-0.5c0,0,0,0,0,0c0.1,0,0.2-0.1,0.2-0.1c0,0,0,0,0.1,0
			c0.1,0,0.1-0.1,0.2-0.1c0,0,0.1,0,0.1-0.1c0.1,0,0.1-0.1,0.2-0.1c0,0,0.1-0.1,0.1-0.1C86.7,73.7,86.8,73.7,86.8,73.6z"/>
		<g>
			<g>
				<path fill-rule="evenodd" clip-rule="evenodd" fill="#F1A240" d="M94.1,54.3c0-0.1,0-0.2-0.1-0.2c-0.2-0.5-0.6-2.1-0.6-2.7
					c0-4.6-4.3-8.2-9.5-8.2c-5.3,0-9.5,3.7-9.5,8.2c0,0.5-0.5,2.1-0.8,3H94.1z"/>
				<path fill-rule="evenodd" clip-rule="evenodd" fill="#F1A240" d="M83.8,46.1c1.4,0,2.5-1.1,2.5-2.5c0-1.4-1.1-2.5-2.5-2.5
					c-1.4,0-2.5,1.1-2.5,2.5C81.3,45,82.4,46.1,83.8,46.1z"/>
				<g>
					<g>
						<g>
							<path fill-rule="evenodd" clip-rule="evenodd" fill="#D08D34" d="M78.3,44.7c0.9-0.5,1.8-1,2.9-1.2c0.1,0.2,0.1,0.4,0.1,0.5
								v6.6c0,0.8-0.7,1.5-1.5,1.5l0,0c-0.8,0-1.5-0.7-1.5-1.5V44.7z"/>
						</g>
						<g>
							<path fill-rule="evenodd" clip-rule="evenodd" fill="#D08D34" d="M86.4,43.4c1,0.2,2,0.6,2.8,1.1v6.1c0,0.8-0.7,1.5-1.5,1.5
								l0,0c-0.8,0-1.5-0.7-1.5-1.5V44C86.3,43.8,86.3,43.6,86.4,43.4z"/>
						</g>
					</g>
				</g>
			</g>
			<path fill-rule="evenodd" clip-rule="evenodd" fill="#D08D34" d="M94.7,54.5c0,0.4-0.3,0.8-0.8,0.8H73.8c-0.4,0-0.8-0.4-0.8-0.8
				l0,0c0-0.4,0.3-0.8,0.8-0.8h20.1C94.4,53.7,94.7,54,94.7,54.5L94.7,54.5z"/>
		</g>
		<path fill="#E7D5B6" d="M84.1,71.5"/>
	</g>
	<g>
		<rect x="33.2" y="66.1" fill-rule="evenodd" clip-rule="evenodd" fill="#E7D5B6" width="6.6" height="6.8"/>
		<path fill-rule="evenodd" clip-rule="evenodd" fill="#FEEAC7" d="M46.4,57.8c-0.1,0-0.3,0.1-0.4,0.2c0,0,0-0.1,0-0.1
			c0-0.1,0-0.2-0.1-0.2c0-0.1,0-0.2-0.1-0.2c0-0.1,0-0.1-0.1-0.2c0-0.1-0.1-0.2-0.1-0.2c0-0.1,0-0.1-0.1-0.2c0-0.1-0.1-0.2-0.1-0.2
			c0-0.1,0-0.1-0.1-0.2c0-0.1-0.1-0.2-0.1-0.3c0-0.1,0-0.1-0.1-0.2c0-0.1-0.1-0.2-0.1-0.3c0-0.1,0-0.1-0.1-0.2
			c0-0.1-0.1-0.2-0.1-0.3c0,0,0-0.1-0.1-0.1c-0.1-0.1-0.1-0.2-0.2-0.3c0,0,0-0.1-0.1-0.1c-0.1-0.1-0.1-0.2-0.2-0.3
			c0,0,0-0.1-0.1-0.1c-0.1-0.1-0.1-0.2-0.2-0.3c0,0,0-0.1-0.1-0.1c-0.1-0.1-0.1-0.2-0.2-0.3c0,0,0-0.1-0.1-0.1
			c-0.1-0.1-0.2-0.2-0.2-0.3c0,0,0,0-0.1-0.1c-0.1-0.1-0.2-0.2-0.3-0.3c0,0,0,0-0.1-0.1c-0.1-0.1-0.2-0.2-0.3-0.3c0,0,0,0,0,0
			c-0.1-0.1-0.2-0.2-0.3-0.3c0,0,0,0,0,0c-0.1-0.1-0.2-0.2-0.3-0.2c0,0,0,0,0,0c-0.1-0.1-0.2-0.2-0.3-0.2c0,0,0,0,0,0
			c-0.1-0.1-0.2-0.2-0.4-0.2c0,0,0,0,0,0c-0.1-0.1-0.3-0.1-0.4-0.2c0,0,0,0,0,0c-0.1-0.1-0.3-0.1-0.4-0.2c0,0,0,0,0,0
			c-0.1-0.1-0.3-0.1-0.4-0.2c0,0,0,0,0,0c-0.8-0.3-1.7-0.6-2.7-0.6c0,0,0,0,0,0c-0.2,0-0.3,0-0.5,0c0,0,0,0,0,0c-0.1,0-0.2,0-0.3,0
			c-4.5,0-8.2,3.2-9.1,7.5c-0.1,0-0.1,0-0.2,0c-0.5,0-1,1.1-1,2.5c0,1.4,0.4,2.5,1,2.5c0.1,0,0.2-0.1,0.3-0.1c1.1,4,4.7,7,9,7
			c0.1,0,0.2,0,0.3,0c0,0,0,0,0,0c0.2,0,0.3,0,0.5,0c0,0,0,0,0,0c0.9-0.1,1.8-0.3,2.7-0.6c0,0,0,0,0,0c0.1-0.1,0.3-0.1,0.4-0.2
			c0,0,0,0,0,0c0.1-0.1,0.3-0.1,0.4-0.2c0,0,0,0,0,0c0.1-0.1,0.3-0.1,0.4-0.2c0,0,0,0,0,0c0.1-0.1,0.2-0.1,0.4-0.2c0,0,0,0,0,0
			c0.1-0.1,0.2-0.2,0.3-0.2c0,0,0,0,0,0c0.1-0.1,0.2-0.2,0.3-0.2c0,0,0,0,0,0c0.1-0.1,0.2-0.2,0.3-0.3c0,0,0,0,0,0
			c0.1-0.1,0.2-0.2,0.3-0.3c0,0,0,0,0.1-0.1c0.1-0.1,0.2-0.2,0.3-0.3c0,0,0,0,0.1-0.1c0.1-0.1,0.2-0.2,0.2-0.3c0,0,0-0.1,0.1-0.1
			c0.1-0.1,0.1-0.2,0.2-0.3c0,0,0-0.1,0.1-0.1c0.1-0.1,0.1-0.2,0.2-0.3c0,0,0-0.1,0.1-0.1c0.1-0.1,0.1-0.2,0.2-0.3
			c0,0,0-0.1,0.1-0.1c0.1-0.1,0.1-0.2,0.2-0.3c0,0,0.1-0.1,0.1-0.1c0-0.1,0.1-0.2,0.1-0.3c0-0.1,0.1-0.1,0.1-0.2
			c0-0.1,0.1-0.2,0.1-0.3c0-0.1,0.1-0.1,0.1-0.2c0-0.1,0.1-0.2,0.1-0.3c0-0.1,0-0.1,0.1-0.2c0-0.1,0.1-0.2,0.1-0.2
			c0-0.1,0-0.1,0.1-0.2c0-0.1,0.1-0.2,0.1-0.2c0-0.1,0-0.1,0.1-0.2c0,0,0-0.1,0-0.1c0.1,0.2,0.3,0.3,0.5,0.3c0.6,0,1-1.1,1-2.5
			C47.3,59,46.9,57.8,46.4,57.8z"/>
		<path fill-rule="evenodd" clip-rule="evenodd" fill="#212725" d="M58.5,94.2c0-8.3-2.8-16.6-7.3-19.2c-2.6-1.7-7.7-2.9-14.6-2.9
			c-6.8,0-11.9,1.2-14.6,2.9c-4.5,2.6-7.3,10.9-7.3,19.2v2.3h7.9v-2.3c0-5.5,1.8-8.9,2.9-10.6v12.9h22V84.1c1.2,1.8,3,5.1,3,10.1
			v2.3h7.9V94.2z"/>
		<path fill-rule="evenodd" clip-rule="evenodd" fill="#603A17" d="M45.8,57.4c0-0.1-0.1-0.2-0.1-0.3c0-0.2-0.1-0.3-0.2-0.5
			c-0.1-0.1-0.1-0.3-0.2-0.4c0-0.1-0.1-0.2-0.1-0.4c-0.1-0.2-0.2-0.3-0.2-0.4c0-0.1-0.1-0.2-0.1-0.3c-0.1-0.2-0.2-0.3-0.3-0.5
			c0-0.1-0.1-0.1-0.1-0.2c-0.1-0.2-0.2-0.3-0.4-0.5c0,0-0.1-0.1-0.1-0.1c-0.1-0.2-0.3-0.3-0.4-0.5c0,0,0-0.1-0.1-0.1
			c-0.2-0.2-0.3-0.3-0.5-0.5c0,0,0,0,0,0c-0.2-0.2-0.4-0.3-0.6-0.5c0,0,0,0,0,0c-1.5-1.1-3.4-1.8-5.5-1.8c-5.1,0-9.2,4.1-9.4,9.2
			c0.6-0.7,1-1.6,1.5-2.3c1-1.1,2.2-1.9,3.3-2.9c0.7-0.7,2-0.8,2.7,0c0.6,0.6,1.3,1.2,2.1,1.7l0,0c0,0,0,0,0,0
			c0.3,0.2,0.5,0.3,0.8,0.4c0,0,0.1,0,0.1,0c0.1,0,0.2,0.1,0.3,0.1c0,0,0,0,0,0c0.2,0.1,0.3,0.1,0.5,0.1c0.1,0,0.1,0,0.2,0
			c0.1,0,0.1,0,0.2,0c0.1,0,0.2,0,0.4,0c0.1,0,0.1,0,0.2,0c0.1,0,0.2,0,0.3,0c0,0,0.1,0,0.1,0c0.1,0,0.3,0,0.4,0c0,0,0.1,0,0.1,0
			c0.1,0,0.2,0,0.4-0.1c0,0,0,0,0.1,0c0.1,0,0.3-0.1,0.4-0.1c0,0,0.1,0,0.1,0c0.1-0.1,0.3-0.1,0.4-0.2c0.9-0.6,2.1-0.2,2.6,0.7
			c0.3,0.4,0.9,0.8,1.5,1.1C46,58,45.9,57.7,45.8,57.4z"/>
		<polyline fill="#60BD97" points="44.1,83 45.5,72.7 42.6,72.4 41,83 37.1,83 31.8,83 30.3,72.4 27.4,72.7 28.7,83 28.7,96.5 
			37.1,96.5 44.1,96.5 		"/>
		<rect x="30.9" y="91.4" opacity="0.4" fill="#212725" width="11.1" height="5.1"/>
		<path fill="#E7D5B6" d="M39.7,74.1c0,0,0.1-0.1,0.1-0.1c0,0,0.1-0.1,0.1-0.1c0,0,0.1-0.1,0.1-0.1c0,0,0.1-0.1,0.1-0.1
			c0,0,0.1-0.1,0.1-0.1c0,0,0.1-0.1,0.1-0.1c0,0,0-0.1,0.1-0.2c0,0,0-0.1,0.1-0.1c0-0.1,0-0.1,0.1-0.2c0,0,0-0.1,0-0.1
			c0-0.1,0-0.1,0-0.2c0,0,0-0.1,0-0.1c0-0.1,0-0.2,0-0.3c0,0-1.6-0.1-3.6-0.2c-2-0.1-4.4,0.2-4.4,0.2c0,0.1,0,0.3,0,0.3
			c0,1.6,1.8,3,4,3c0.2,0,0.3,0,0.5,0l0,0c0,0,0,0,0,0c0.6-0.1,1.2-0.3,1.7-0.5c0,0,0,0,0,0c0.1,0,0.2-0.1,0.2-0.1c0,0,0,0,0.1,0
			c0.1,0,0.1-0.1,0.2-0.1c0,0,0.1,0,0.1-0.1c0.1,0,0.1-0.1,0.2-0.1c0,0,0.1-0.1,0.1-0.1C39.6,74.2,39.7,74.2,39.7,74.1z"/>
		<g>
			<g>
				<path fill-rule="evenodd" clip-rule="evenodd" fill="#F1A240" d="M47,54.9c0-0.1,0-0.2-0.1-0.2c-0.2-0.5-0.6-2.1-0.6-2.7
					c0-4.6-4.3-8.2-9.5-8.2c-5.3,0-9.5,3.7-9.5,8.2c0,0.5-0.5,2.1-0.8,3H47z"/>
				<path fill-rule="evenodd" clip-rule="evenodd" fill="#F1A240" d="M36.7,46.7c1.4,0,2.5-1.1,2.5-2.5c0-1.4-1.1-2.5-2.5-2.5
					c-1.4,0-2.5,1.1-2.5,2.5C34.3,45.6,35.4,46.7,36.7,46.7z"/>
				<g>
					<g>
						<g>
							<path fill-rule="evenodd" clip-rule="evenodd" fill="#D08D34" d="M31.2,45.3c0.9-0.5,1.8-1,2.9-1.2c0.1,0.2,0.1,0.4,0.1,0.5
								v6.6c0,0.8-0.7,1.5-1.5,1.5l0,0c-0.8,0-1.5-0.7-1.5-1.5V45.3z"/>
						</g>
						<g>
							<path fill-rule="evenodd" clip-rule="evenodd" fill="#D08D34" d="M39.4,44c1,0.2,2,0.6,2.8,1.1v6.1c0,0.8-0.7,1.5-1.5,1.5
								l0,0c-0.8,0-1.5-0.7-1.5-1.5v-6.6C39.2,44.3,39.3,44.1,39.4,44z"/>
						</g>
					</g>
				</g>
			</g>
			<path fill-rule="evenodd" clip-rule="evenodd" fill="#D08D34" d="M47.6,55c0,0.4-0.3,0.8-0.8,0.8H26.7c-0.4,0-0.8-0.4-0.8-0.8
				l0,0c0-0.4,0.3-0.8,0.8-0.8h20.1C47.3,54.2,47.6,54.6,47.6,55L47.6,55z"/>
		</g>
		<path fill="#E7D5B6" d="M37,72"/>
	</g>
	<path fill="#EE7A23" d="M93.2,19c0-8.8-7.1-15.9-15.9-15.9c-8.8,0-15.9,7.1-15.9,15.9c0,7.1,4.7,13.2,11.1,15.2l4.9,8l5.2-8.2
		C88.8,31.8,93.2,25.9,93.2,19z"/>
	<path fill="#60BD97" d="M59.9,19c0-8.8-7.1-15.9-15.9-15.9c-8.8,0-15.9,7.1-15.9,15.9c0,7.1,4.7,13.2,11.1,15.2l4.9,8l5.2-8.2
		C55.5,31.8,59.9,25.9,59.9,19z"/>
	<path fill="#FFFFFF" d="M70.1,20.6c0.2,0.6,0.4,1.1,0.7,1.7L70,23.4c-0.3,0.4-0.2,0.8,0.1,1.2l1.5,1.5c0.3,0.3,0.8,0.3,1.2,0.1
		l1.1-0.8c0.5,0.3,1.1,0.6,1.7,0.7l0.2,1.4c0.1,0.4,0.4,0.8,0.9,0.8h2.1c0.4,0,0.8-0.3,0.9-0.8l0.2-1.3c0.7-0.2,1.3-0.4,1.9-0.8
		l1,0.8c0.4,0.3,0.9,0.2,1.2-0.1l1.5-1.5c0.3-0.3,0.3-0.8,0.1-1.2l-0.8-1c0.3-0.6,0.6-1.2,0.8-1.8l1.2-0.1c0.4-0.1,0.8-0.4,0.8-0.9
		v-2.1c0-0.4-0.3-0.8-0.8-0.9l-1.2-0.1c-0.2-0.6-0.4-1.2-0.7-1.8l0.7-0.9c0.3-0.4,0.2-0.8-0.1-1.2L83.7,11c-0.3-0.3-0.8-0.3-1.2-0.1
		l-0.9,0.7c-0.6-0.4-1.2-0.6-1.9-0.8l-0.1-1.2c-0.1-0.4-0.4-0.8-0.9-0.8h-2.1c-0.4,0-0.8,0.3-0.9,0.8l-0.1,1.2
		c-0.7,0.2-1.3,0.5-2,0.8l-1-0.8c-0.4-0.3-0.9-0.2-1.2,0.1l-1.5,1.5c-0.3,0.3-0.3,0.8-0.1,1.2l0.8,1c-0.3,0.6-0.6,1.2-0.7,1.8
		l-1.3,0.1c-0.4,0.1-0.8,0.4-0.8,0.9v2.1c0,0.4,0.3,0.8,0.8,0.9L70.1,20.6z M77.6,15c1.9,0,3.4,1.5,3.4,3.4c0,1.9-1.5,3.4-3.4,3.4
		c-1.9,0-3.4-1.5-3.4-3.4C74.2,16.6,75.7,15,77.6,15z"/>
	<g>
		<path fill="#FFFFFF" d="M34.7,24.9c0.1,0.4,0.3,0.7,0.4,1.1l-0.5,0.7c-0.2,0.2-0.2,0.5,0,0.7l0.9,0.9c0.2,0.2,0.5,0.2,0.7,0
			l0.7-0.5c0.3,0.2,0.7,0.4,1.1,0.5l0.1,0.9c0,0.3,0.3,0.5,0.6,0.5h1.3c0.3,0,0.5-0.2,0.6-0.5l0.1-0.8c0.4-0.1,0.8-0.3,1.2-0.5
			l0.7,0.5c0.2,0.2,0.5,0.2,0.7,0l0.9-0.9c0.2-0.2,0.2-0.5,0-0.7L43.8,26c0.2-0.4,0.4-0.8,0.5-1.2l0.8-0.1c0.3,0,0.5-0.3,0.5-0.6
			v-1.3c0-0.3-0.2-0.5-0.5-0.6l-0.8-0.1c-0.1-0.4-0.3-0.8-0.5-1.1l0.5-0.6c0.2-0.2,0.2-0.5,0-0.7l-0.9-0.9c-0.2-0.2-0.5-0.2-0.7,0
			L42,19.2c-0.4-0.2-0.8-0.4-1.2-0.5L40.7,18c0-0.3-0.3-0.5-0.6-0.5h-1.3c-0.3,0-0.5,0.2-0.6,0.5l-0.1,0.8c-0.4,0.1-0.9,0.3-1.2,0.5
			l-0.6-0.5c-0.2-0.2-0.5-0.2-0.7,0l-0.9,0.9c-0.2,0.2-0.2,0.5,0,0.7l0.5,0.6c-0.2,0.4-0.4,0.8-0.5,1.2l-0.8,0.1
			c-0.3,0-0.5,0.3-0.5,0.6v1.3c0,0.3,0.2,0.5,0.5,0.6L34.7,24.9z M39.5,21.3c1.2,0,2.2,1,2.2,2.2c0,1.2-1,2.2-2.2,2.2
			s-2.2-1-2.2-2.2C37.3,22.3,38.3,21.3,39.5,21.3z"/>
		<path fill="#FFFFFF" d="M45.5,18.9c0.1,0.4,0.3,0.7,0.4,1.1l-0.5,0.7c-0.2,0.2-0.2,0.5,0,0.7l0.9,0.9c0.2,0.2,0.5,0.2,0.7,0
			l0.7-0.5c0.3,0.2,0.7,0.4,1.1,0.5l0.1,0.9c0,0.3,0.3,0.5,0.6,0.5h1.3c0.3,0,0.5-0.2,0.6-0.5l0.1-0.8c0.4-0.1,0.8-0.3,1.2-0.5
			l0.7,0.5c0.2,0.2,0.5,0.2,0.7,0l0.9-0.9c0.2-0.2,0.2-0.5,0-0.7L54.6,20c0.2-0.4,0.4-0.8,0.5-1.2l0.8-0.1c0.3,0,0.5-0.3,0.5-0.6
			v-1.3c0-0.3-0.2-0.5-0.5-0.6l-0.8-0.1c-0.1-0.4-0.3-0.8-0.5-1.1l0.5-0.6c0.2-0.2,0.2-0.5,0-0.7l-0.9-0.9c-0.2-0.2-0.5-0.2-0.7,0
			l-0.6,0.5c-0.4-0.2-0.8-0.4-1.2-0.5L51.5,12c0-0.3-0.3-0.5-0.6-0.5h-1.3c-0.3,0-0.5,0.2-0.6,0.5L49,12.7c-0.4,0.1-0.9,0.3-1.2,0.5
			l-0.6-0.5c-0.2-0.2-0.5-0.2-0.7,0l-0.9,0.9c-0.2,0.2-0.2,0.5,0,0.7l0.5,0.6c-0.2,0.4-0.4,0.8-0.5,1.2l-0.8,0.1
			c-0.3,0-0.5,0.3-0.5,0.6v1.3c0,0.3,0.2,0.5,0.5,0.6L45.5,18.9z M50.3,15.3c1.2,0,2.2,1,2.2,2.2c0,1.2-1,2.2-2.2,2.2
			c-1.2,0-2.2-1-2.2-2.2C48.1,16.3,49.1,15.3,50.3,15.3z"/>
		<path fill="#FFFFFF" d="M39,14.4c0.1,0.2,0.1,0.4,0.2,0.5l-0.3,0.3c-0.1,0.1-0.1,0.3,0,0.4l0.5,0.5c0.1,0.1,0.3,0.1,0.4,0l0.3-0.3
			c0.2,0.1,0.4,0.2,0.6,0.2l0.1,0.4c0,0.1,0.1,0.3,0.3,0.3h0.7c0.1,0,0.3-0.1,0.3-0.3l0.1-0.4c0.2-0.1,0.4-0.1,0.6-0.2l0.3,0.3
			c0.1,0.1,0.3,0.1,0.4,0l0.5-0.5c0.1-0.1,0.1-0.3,0-0.4l-0.3-0.3c0.1-0.2,0.2-0.4,0.2-0.6l0.4,0c0.1,0,0.3-0.1,0.3-0.3v-0.7
			c0-0.1-0.1-0.3-0.3-0.3l-0.4,0c-0.1-0.2-0.1-0.4-0.2-0.6l0.2-0.3c0.1-0.1,0.1-0.3,0-0.4l-0.5-0.5c-0.1-0.1-0.3-0.1-0.4,0l-0.3,0.2
			c-0.2-0.1-0.4-0.2-0.6-0.3l0-0.4c0-0.1-0.1-0.3-0.3-0.3h-0.7c-0.1,0-0.3,0.1-0.3,0.3l0,0.4c-0.2,0.1-0.4,0.1-0.6,0.3l-0.3-0.2
			c-0.1-0.1-0.3-0.1-0.4,0L39,11.8c-0.1,0.1-0.1,0.3,0,0.4l0.3,0.3C39.1,12.6,39,12.8,39,13l-0.4,0c-0.1,0-0.3,0.1-0.3,0.3V14
			c0,0.1,0.1,0.3,0.3,0.3L39,14.4z M41.4,12.6c0.6,0,1.1,0.5,1.1,1.1c0,0.6-0.5,1.1-1.1,1.1c-0.6,0-1.1-0.5-1.1-1.1
			C40.3,13.1,40.8,12.6,41.4,12.6z"/>
	</g>
</g>
</svg>
