<?xml version="1.0" encoding="utf-8"?>
<!-- Generator: Adobe Illustrator 18.1.1, SVG Export Plug-In . SVG Version: 6.00 Build 0)  -->
<svg version="1.1" id="Layer_1" xmlns="http://www.w3.org/2000/svg" xmlns:xlink="http://www.w3.org/1999/xlink" x="0px" y="0px"
	 viewBox="0 0 120 100" enable-background="new 0 0 120 100" xml:space="preserve">
<g>
	<g>
		<path fill="#424143" d="M59.7,80l-0.5-0.6c-0.9-0.9-2-1.6-3.1-2.1l0-30.9c1.1-0.5,2.2-1.2,3.1-2.1l0.5-0.6
			c3.7-4.2,3.5-10.5-0.5-14.5c-1.2-1.2-2.5-2-4-2.5v10c0,0.5-0.1,1-0.3,1.5c-0.6,1.2-1.8,2.1-3.2,2.1c-1,0-1.9-0.4-2.5-1
			c-0.3-0.3-0.5-0.7-0.7-1c-0.2-0.5-0.3-0.9-0.3-1.5l0-10c-1.4,0.5-2.8,1.3-4,2.5c-4,4-4.1,10.3-0.5,14.5l0.5,0.6
			c0.9,0.9,2,1.6,3.1,2.1v30.9c-1.1,0.5-2.2,1.2-3.1,2.1L43.7,80c-3.7,4.2-3.5,10.5,0.5,14.5c1.2,1.2,2.5,2,4,2.5l0-10
			c0-0.5,0.1-1,0.3-1.5c0.6-1.2,1.8-2.1,3.2-2.1c1,0,1.9,0.4,2.5,1c0.3,0.3,0.5,0.7,0.7,1c0.2,0.5,0.3,0.9,0.3,1.5l0,10
			c1.5-0.5,2.8-1.3,4-2.5C63.2,90.5,63.3,84.1,59.7,80z"/>
	</g>
	<path fill="#818182" d="M83.6,58.2c0.4,1.2,0.8,2.4,1.5,3.5l-1.8,2.2c-0.6,0.7-0.5,1.8,0.1,2.4l3,3c0.7,0.7,1.7,0.7,2.4,0.1
		l2.2-1.7c1.1,0.7,2.3,1.2,3.6,1.5l0.3,2.8c0.1,0.9,0.9,1.6,1.8,1.6h4.3c0.9,0,1.7-0.7,1.8-1.6l0.3-2.7c1.3-0.4,2.6-0.9,3.8-1.6
		l2.1,1.7c0.7,0.6,1.8,0.5,2.4-0.1l3-3c0.7-0.7,0.7-1.7,0.1-2.4l-1.7-2.1c0.7-1.2,1.2-2.5,1.6-3.8l2.5-0.3c0.9-0.1,1.6-0.9,1.6-1.8
		v-4.3c0-0.9-0.7-1.7-1.6-1.8l-2.5-0.3c-0.3-1.3-0.9-2.6-1.5-3.7l1.5-2c0.6-0.7,0.5-1.8-0.1-2.4l-3-3c-0.7-0.7-1.7-0.7-2.4-0.1
		l-1.9,1.5c-1.2-0.7-2.5-1.3-3.9-1.6l-0.3-2.5c-0.1-0.9-0.9-1.6-1.8-1.6H97c-0.9,0-1.7,0.7-1.8,1.6l-0.3,2.5c-1.4,0.4-2.8,1-4,1.7
		l-2-1.6c-0.7-0.6-1.8-0.5-2.4,0.1l-3,3c-0.7,0.7-0.7,1.7-0.1,2.4L85,46c-0.7,1.2-1.2,2.5-1.5,3.8l-2.6,0.3
		c-0.9,0.1-1.6,0.9-1.6,1.8v4.3c0,0.9,0.7,1.7,1.6,1.8L83.6,58.2z M99.1,46.7c3.9,0,7.1,3.2,7.1,7.1c0,3.9-3.2,7.1-7.1,7.1
		c-3.9,0-7.1-3.2-7.1-7.1C92.1,49.9,95.2,46.7,99.1,46.7z"/>
	<path fill="#424143" d="M38.7,53l-2.3-1.9c-0.7-0.6-1.7-0.6-2.4,0.1l-1.2,1.2c-1.1-0.5-2.2-0.9-3.3-1.1l-0.4-1.7
		c-0.2-0.9-1-1.5-1.9-1.4l-2.9,0.3c-0.9,0.1-1.6,0.8-1.6,1.7l-0.1,1.7c-1.1,0.4-2.2,1-3.2,1.7l-1.5-1c-0.8-0.5-1.8-0.4-2.4,0.3
		l-1.9,2.3c-0.6,0.7-0.6,1.7,0.1,2.4l1.3,1.4c-0.5,1-0.8,2.1-1,3.2l-1.9,0.4c-0.9,0.2-1.5,1-1.4,1.9l0.3,2.9
		c0.1,0.9,0.8,1.6,1.7,1.6l2,0.1c0.4,1,0.8,1.9,1.4,2.7L15,73.4c-0.5,0.8-0.4,1.8,0.3,2.4l2.3,1.9c0.7,0.6,1.7,0.6,2.4-0.1l1.5-1.4
		c1,0.5,2,0.8,3,1l0.4,2c0.2,0.9,1,1.5,1.9,1.4l2.9-0.3c0.9-0.1,1.6-0.8,1.6-1.7l0.1-2c1.1-0.4,2.1-0.9,3-1.5l1.6,1.1
		c0.8,0.5,1.8,0.4,2.4-0.3l1.9-2.3c0.6-0.7,0.6-1.7-0.1-2.4L39,69.8c0.5-1,0.8-2.1,1-3.2l1.8-0.4c0.9-0.2,1.5-1,1.4-1.9L43,61.4
		c-0.1-0.9-0.8-1.6-1.7-1.6l-1.8-0.1c-0.4-1-0.9-2-1.5-2.9l1-1.5C39.5,54.6,39.3,53.5,38.7,53z M27.6,70c-3.2,0.3-6-2.1-6.2-5.3
		c-0.3-3.2,2.1-6,5.3-6.2c3.2-0.3,6,2.1,6.3,5.3C33.1,66.9,30.7,69.7,27.6,70z"/>
	<path fill="#818182" d="M29.1,21.5l-2.3-1.9c-0.7-0.6-1.7-0.6-2.4,0.1l-1.2,1.2c-1.1-0.5-2.2-0.9-3.3-1.1l-0.4-1.7
		c-0.2-0.9-1-1.5-1.9-1.4l-2.9,0.3c-0.9,0.1-1.6,0.8-1.6,1.7L13,20.3c-1.1,0.4-2.2,1-3.2,1.7l-1.5-1c-0.8-0.5-1.8-0.4-2.4,0.3
		l-1.9,2.3c-0.6,0.7-0.6,1.7,0.1,2.4l1.3,1.4c-0.5,1-0.8,2.1-1,3.2L2.6,31c-0.9,0.2-1.5,1-1.4,1.9l0.3,2.9c0.1,0.9,0.8,1.6,1.7,1.6
		l2,0.1c0.4,1,0.8,1.9,1.4,2.7l-1.1,1.7c-0.5,0.8-0.4,1.8,0.3,2.4l2.3,1.9c0.7,0.6,1.7,0.6,2.4-0.1l1.5-1.4c1,0.5,2,0.8,3,1l0.4,2
		c0.2,0.9,1,1.5,1.9,1.4l2.9-0.3c0.9-0.1,1.6-0.8,1.6-1.7l0.1-2c1.1-0.4,2.1-0.9,3-1.5l1.6,1.1c0.8,0.5,1.8,0.4,2.4-0.3l1.9-2.3
		c0.6-0.7,0.6-1.7-0.1-2.4l-1.3-1.4c0.5-1,0.8-2.1,1-3.2l1.8-0.4c0.9-0.2,1.5-1,1.4-1.9L33.5,30c-0.1-0.9-0.8-1.6-1.7-1.6l-1.8-0.1
		c-0.4-1-0.9-2-1.5-2.9l1-1.5C29.9,23.1,29.8,22.1,29.1,21.5z M18,38.5c-3.2,0.3-6-2.1-6.2-5.3c-0.3-3.2,2.1-6,5.3-6.2
		c3.2-0.3,6,2.1,6.3,5.3C23.6,35.5,21.2,38.3,18,38.5z"/>
	<path fill="#231F20" d="M75.9,18.6c-0.9,0.1-1.6,0.9-1.6,1.8l0,1.8c0,0.9,0.7,1.7,1.6,1.8l1.3,0.2c0.2,0.8,0.5,1.6,0.9,2.3
		l-0.9,1.1c-0.6,0.7-0.5,1.7,0.1,2.4l1.3,1.3c0.6,0.7,1.7,0.7,2.4,0.2l1.1-0.8c0.8,0.4,1.5,0.8,2.4,1l0.1,1.4
		c0.1,0.9,0.9,1.6,1.8,1.6l1.8,0c0.9,0,1.7-0.7,1.8-1.6l0.2-1.3c0.9-0.2,1.8-0.6,2.6-1l1,0.8c0.7,0.6,1.7,0.5,2.4-0.1l1.3-1.3
		c0.7-0.6,0.7-1.7,0.2-2.4l-0.8-1c0.5-0.8,0.8-1.6,1.1-2.5l1.2-0.1c0.9-0.1,1.6-0.9,1.6-1.8l0-1.8c0-0.9-0.7-1.7-1.6-1.8l-1.2-0.2
		c-0.2-0.9-0.6-1.7-1-2.5l0.7-0.9c0.6-0.7,0.5-1.7-0.1-2.4l-1.3-1.3c-0.6-0.7-1.7-0.7-2.4-0.2L93.1,12c-0.8-0.5-1.7-0.9-2.6-1.1
		l-0.1-1.1c-0.1-0.9-0.9-1.6-1.8-1.6l-1.8,0c-0.9,0-1.7,0.7-1.8,1.6l-0.1,1.1c-0.9,0.2-1.9,0.6-2.7,1.1l-0.9-0.7
		c-0.7-0.6-1.7-0.5-2.4,0.1l-1.3,1.3c-0.7,0.6-0.7,1.7-0.2,2.4l0.8,1c-0.4,0.8-0.8,1.6-1,2.5L75.9,18.6z M87.6,16.5
		c2.6,0,4.7,2.2,4.7,4.8c0,2.6-2.2,4.7-4.8,4.7c-2.6,0-4.7-2.2-4.7-4.8C82.8,18.6,85,16.5,87.6,16.5z"/>
	<path fill="#424143" d="M30.4,12.1c-0.8,0.1-1.4,0.7-1.4,1.5l0,1.6c0,0.8,0.6,1.5,1.4,1.6l1.2,0.1c0.2,0.7,0.5,1.4,0.8,2l-0.7,0.9
		c-0.5,0.6-0.5,1.5,0.1,2.1l1.1,1.1c0.6,0.6,1.4,0.6,2.1,0.1l0.9-0.7c0.7,0.4,1.3,0.7,2.1,0.9l0.1,1.2c0.1,0.8,0.7,1.4,1.5,1.4
		l1.6,0c0.8,0,1.5-0.6,1.6-1.4l0.1-1.1c0.8-0.2,1.5-0.5,2.2-0.9l0.9,0.7c0.6,0.5,1.5,0.5,2.1-0.1l1.1-1.1c0.6-0.6,0.6-1.4,0.1-2.1
		l-0.7-0.9c0.4-0.7,0.7-1.4,0.9-2.2l1-0.1c0.8-0.1,1.4-0.7,1.4-1.5l0-1.6c0-0.8-0.6-1.5-1.4-1.6l-1-0.1c-0.2-0.8-0.5-1.5-0.9-2.2
		l0.6-0.8c0.5-0.6,0.5-1.5-0.1-2.1L48.1,6c-0.6-0.6-1.4-0.6-2.1-0.1l-0.8,0.6c-0.7-0.4-1.5-0.8-2.3-1l-0.1-1
		c-0.1-0.8-0.7-1.4-1.5-1.4l-1.6,0c-0.8,0-1.5,0.6-1.6,1.4l-0.1,1c-0.8,0.2-1.6,0.5-2.3,1L35,5.7c-0.6-0.5-1.5-0.5-2.1,0.1l-1.1,1.1
		c-0.6,0.6-0.6,1.4-0.1,2.1l0.7,0.9c-0.4,0.7-0.7,1.4-0.9,2.2L30.4,12.1z M40.5,10.3c2.3,0,4.1,1.9,4,4.1c0,2.3-1.9,4.1-4.1,4
		c-2.3,0-4.1-1.9-4-4.1C36.4,12.1,38.3,10.3,40.5,10.3z"/>
	<g>
		<rect x="70.5" y="40.2" fill="#424143" width="2.8" height="28.2"/>
		<polygon fill="#424143" points="74.9,35.3 73.5,27.5 70.4,27.5 68.9,35.3 68.9,35.3 68.9,40.8 74.9,40.8 74.9,35.3 		"/>
		<path fill="#EE7A23" d="M76.4,94.6c0,0.7-0.5,1.2-1.2,1.2h-6.7c-0.7,0-1.2-0.5-1.2-1.2V76.2c0-0.7,0-1.7,0.1-2.4l1.1-11.5
			c0.1-0.7,0.6-1.2,1.3-1.2H74c0.7,0,1.2,0.5,1.3,1.2l1,11.8c0.1,0.7,0.1,1.7,0.1,2.4V94.6z"/>
		<path fill="#EE7A23" d="M77.8,63.1c0,0.7-0.5,1.2-1.2,1.2h-9.5c-0.7,0-1.2-0.5-1.2-1.2v-0.9c0-0.7,0.5-1.2,1.2-1.2h9.5
			c0.7,0,1.2,0.5,1.2,1.2V63.1z"/>
	</g>
</g>
</svg>
