<?xml version="1.0" encoding="utf-8"?>
<!-- Generator: Adobe Illustrator 18.1.1, SVG Export Plug-In . SVG Version: 6.00 Build 0)  -->
<svg version="1.1" id="Layer_1" xmlns="http://www.w3.org/2000/svg" xmlns:xlink="http://www.w3.org/1999/xlink" x="0px" y="0px"
	 viewBox="0 0 120 100" enable-background="new 0 0 120 100" xml:space="preserve">
<g>
	<g>
		<rect x="25" y="54" fill-rule="evenodd" clip-rule="evenodd" fill="#E7D5B6" width="8" height="8.2"/>
		<path fill-rule="evenodd" clip-rule="evenodd" fill="#FEEAC7" d="M40.8,44c-0.2,0-0.3,0.1-0.4,0.2c0,0,0-0.1,0-0.1
			c0-0.1,0-0.2-0.1-0.3c0-0.1-0.1-0.2-0.1-0.3c0-0.1,0-0.2-0.1-0.3c0-0.1-0.1-0.2-0.1-0.3c0-0.1-0.1-0.2-0.1-0.2
			c0-0.1-0.1-0.2-0.1-0.3c0-0.1-0.1-0.1-0.1-0.2c0-0.1-0.1-0.2-0.1-0.3c0-0.1-0.1-0.1-0.1-0.2c0-0.1-0.1-0.2-0.2-0.3
			c0-0.1-0.1-0.1-0.1-0.2c-0.1-0.1-0.1-0.2-0.2-0.3c0-0.1-0.1-0.1-0.1-0.2c-0.1-0.1-0.1-0.2-0.2-0.3c0,0-0.1-0.1-0.1-0.1
			c-0.1-0.1-0.1-0.2-0.2-0.3c0,0-0.1-0.1-0.1-0.1c-0.1-0.1-0.2-0.2-0.2-0.3c0,0-0.1-0.1-0.1-0.1C38,39.3,38,39.2,37.9,39
			c0,0-0.1-0.1-0.1-0.1c-0.1-0.1-0.2-0.2-0.3-0.3c0,0,0-0.1-0.1-0.1c-0.1-0.1-0.2-0.2-0.3-0.3c0,0,0,0-0.1-0.1
			c-0.1-0.1-0.2-0.2-0.3-0.3c0,0,0,0-0.1-0.1c-0.1-0.1-0.2-0.2-0.4-0.3c0,0,0,0,0,0c-0.1-0.1-0.3-0.2-0.4-0.3c0,0,0,0,0,0
			c-0.1-0.1-0.3-0.2-0.4-0.3c0,0,0,0,0,0c-0.1-0.1-0.3-0.2-0.4-0.3c0,0,0,0,0,0c-0.1-0.1-0.3-0.2-0.5-0.3c0,0,0,0,0,0
			c-0.2-0.1-0.3-0.2-0.5-0.2c0,0,0,0,0,0c-0.2-0.1-0.3-0.1-0.5-0.2c0,0,0,0,0,0c-1-0.4-2.1-0.7-3.2-0.8c0,0,0,0,0,0
			c-0.2,0-0.4,0-0.6,0c0,0,0,0,0,0c-0.1,0-0.2,0-0.3,0c-5.4,0-9.9,3.9-11,9c-0.1,0-0.2-0.1-0.2-0.1c-0.7,0-1.2,1.4-1.2,3
			c0,1.7,0.5,3,1.2,3c0.1,0,0.3-0.1,0.4-0.2c1.4,4.8,5.7,8.4,10.9,8.4c0.1,0,0.2,0,0.3,0c0,0,0,0,0,0c0.2,0,0.4,0,0.6,0c0,0,0,0,0,0
			c1.1-0.1,2.2-0.3,3.2-0.8c0,0,0,0,0,0c0.2-0.1,0.3-0.1,0.5-0.2c0,0,0,0,0,0c0.2-0.1,0.3-0.2,0.5-0.2c0,0,0,0,0,0
			c0.2-0.1,0.3-0.2,0.5-0.3c0,0,0,0,0,0c0.1-0.1,0.3-0.2,0.4-0.3c0,0,0,0,0,0c0.1-0.1,0.3-0.2,0.4-0.3c0,0,0,0,0,0
			c0.1-0.1,0.3-0.2,0.4-0.3c0,0,0,0,0,0c0.1-0.1,0.2-0.2,0.4-0.3c0,0,0,0,0.1-0.1c0.1-0.1,0.2-0.2,0.3-0.3c0,0,0,0,0.1-0.1
			c0.1-0.1,0.2-0.2,0.3-0.3c0,0,0-0.1,0.1-0.1c0.1-0.1,0.2-0.2,0.3-0.3c0,0,0.1-0.1,0.1-0.1c0.1-0.1,0.2-0.2,0.3-0.3
			c0,0,0.1-0.1,0.1-0.1c0.1-0.1,0.2-0.2,0.2-0.3c0,0,0.1-0.1,0.1-0.1c0.1-0.1,0.1-0.2,0.2-0.3c0,0,0.1-0.1,0.1-0.1
			c0.1-0.1,0.1-0.2,0.2-0.3c0-0.1,0.1-0.1,0.1-0.2c0.1-0.1,0.1-0.2,0.2-0.3c0-0.1,0.1-0.1,0.1-0.2c0.1-0.1,0.1-0.2,0.2-0.3
			c0-0.1,0.1-0.1,0.1-0.2c0-0.1,0.1-0.2,0.1-0.3c0-0.1,0.1-0.1,0.1-0.2c0-0.1,0.1-0.2,0.1-0.3c0-0.1,0.1-0.2,0.1-0.2
			c0-0.1,0.1-0.2,0.1-0.3c0-0.1,0-0.2,0.1-0.3c0,0,0-0.1,0-0.1c0.2,0.3,0.4,0.4,0.6,0.4c0.7,0,1.2-1.4,1.2-3
			C42,45.4,41.5,44,40.8,44z"/>
		<path fill-rule="evenodd" clip-rule="evenodd" fill="#212725" d="M55.5,87.8c0-10-3.4-20-8.7-23.1c-3.2-2.1-9.3-3.5-17.6-3.5
			c-8.2,0-14.3,1.4-17.5,3.5c-5.4,3.1-8.8,13.2-8.8,23.2v2.8h9.6v-2.8c0-6.6,2.1-10.7,3.4-12.7v15.5h26.5V75.6
			c1.5,2.2,3.6,6.1,3.6,12.2v2.8h9.6V87.8z"/>
		<path fill-rule="evenodd" clip-rule="evenodd" fill="#603A17" d="M40.2,43.5c0-0.1-0.1-0.3-0.1-0.4c-0.1-0.2-0.1-0.4-0.2-0.6
			c-0.1-0.2-0.1-0.3-0.2-0.5c-0.1-0.1-0.1-0.3-0.2-0.4c-0.1-0.2-0.2-0.4-0.3-0.5c-0.1-0.1-0.1-0.2-0.2-0.3c-0.1-0.2-0.2-0.4-0.4-0.6
			c-0.1-0.1-0.1-0.2-0.2-0.2c-0.1-0.2-0.3-0.4-0.4-0.6c0-0.1-0.1-0.1-0.1-0.2c-0.2-0.2-0.4-0.4-0.5-0.6c0,0-0.1-0.1-0.1-0.1
			c-0.2-0.2-0.4-0.4-0.6-0.6c0,0,0,0-0.1-0.1c-0.2-0.2-0.5-0.4-0.7-0.6c0,0,0,0,0,0c-1.9-1.4-4.1-2.2-6.6-2.2
			c-6.1,0-11,4.9-11.3,11.1c0.7-0.8,1.1-2,1.8-2.8c1.2-1.3,2.6-2.3,3.9-3.5c0.9-0.8,2.4-1,3.3,0c0.7,0.8,1.6,1.5,2.6,2l0,0
			c0,0,0,0,0,0c0.3,0.2,0.7,0.3,1,0.5c0,0,0.1,0,0.1,0c0.1,0,0.2,0.1,0.3,0.1c0,0,0,0,0.1,0c0.2,0.1,0.4,0.1,0.6,0.2
			c0.1,0,0.2,0,0.2,0.1c0.1,0,0.2,0,0.2,0c0.1,0,0.3,0,0.4,0.1c0.1,0,0.1,0,0.2,0c0.1,0,0.2,0,0.4,0c0,0,0.1,0,0.1,0
			c0.2,0,0.3,0,0.5,0c0,0,0.1,0,0.1,0c0.1,0,0.3-0.1,0.4-0.1c0,0,0,0,0.1,0c0.2,0,0.3-0.1,0.5-0.2c0,0,0.1,0,0.1-0.1
			c0.2-0.1,0.3-0.2,0.5-0.2c1.1-0.7,2.5-0.2,3.2,0.8c0.3,0.5,1.1,0.9,1.8,1.3C40.4,44.2,40.3,43.8,40.2,43.5z"/>
		<polygon fill="#EE7A23" points="39.8,61.9 36.3,61.5 34.5,74.3 29.7,74.3 23.3,74.3 21.5,61.5 18,61.9 19.6,74.3 19.5,74.3 
			19.5,90.6 29.7,90.6 38.2,90.6 38.2,74.3 38.1,74.3 		"/>
		<rect x="22.3" y="84.5" opacity="0.4" fill="#212725" width="13.3" height="6.1"/>
		<path fill="#E7D5B6" d="M32.9,63.6c0,0,0.1-0.1,0.1-0.1c0-0.1,0.1-0.1,0.1-0.2c0,0,0.1-0.1,0.1-0.1c0-0.1,0.1-0.1,0.1-0.2
			c0-0.1,0.1-0.1,0.1-0.2c0-0.1,0.1-0.1,0.1-0.2c0-0.1,0.1-0.1,0.1-0.2c0-0.1,0-0.1,0.1-0.2c0-0.1,0-0.1,0.1-0.2c0,0,0-0.1,0-0.1
			c0-0.1,0-0.2,0-0.2c0,0,0-0.1,0-0.1c0-0.1,0-0.3,0-0.4c0,0-1.9-0.2-4.3-0.3c-2.4-0.1-5.3,0.3-5.3,0.3c0,0.1,0,0.3,0,0.4
			c0,2,2.2,3.6,4.8,3.6c0.2,0,0.4,0,0.6,0l0,0c0,0,0,0,0,0c0.7-0.1,1.4-0.3,2-0.6c0,0,0,0,0,0c0.1-0.1,0.2-0.1,0.3-0.2
			c0,0,0.1,0,0.1,0c0.1-0.1,0.2-0.1,0.2-0.2c0,0,0.1-0.1,0.1-0.1c0.1-0.1,0.1-0.1,0.2-0.2c0,0,0.1-0.1,0.1-0.1
			C32.8,63.8,32.8,63.7,32.9,63.6z"/>
		<g>
			<g>
				<path fill-rule="evenodd" clip-rule="evenodd" fill="#F1A240" d="M41.7,40.4c0-0.1,0-0.2-0.1-0.3c-0.2-0.7-0.7-2.6-0.7-3.3
					c0-5.5-5.1-9.9-11.5-9.9c-6.3,0-11.5,4.4-11.5,9.9c0,0.6-0.6,2.5-0.9,3.6H41.7z"/>
				<path fill-rule="evenodd" clip-rule="evenodd" fill="#F1A240" d="M29.2,30.5c1.6,0,3-1.3,3-3c0-1.6-1.3-3-3-3c-1.6,0-3,1.3-3,3
					C26.3,29.2,27.6,30.5,29.2,30.5z"/>
				<g>
					<g>
						<g>
							<path fill-rule="evenodd" clip-rule="evenodd" fill="#D08D34" d="M22.6,28.8c1-0.7,2.2-1.2,3.4-1.5c0.1,0.2,0.1,0.4,0.1,0.7
								v8c0,1-0.8,1.8-1.8,1.8l0,0c-1,0-1.8-0.8-1.8-1.8V28.8z"/>
						</g>
						<g>
							<path fill-rule="evenodd" clip-rule="evenodd" fill="#D08D34" d="M32.4,27.3c1.2,0.3,2.4,0.8,3.4,1.4V36c0,1-0.8,1.8-1.8,1.8
								l0,0c-1,0-1.8-0.8-1.8-1.8v-8C32.3,27.8,32.3,27.5,32.4,27.3z"/>
						</g>
					</g>
				</g>
			</g>
			<path fill-rule="evenodd" clip-rule="evenodd" fill="#D08D34" d="M42.4,40.6c0,0.5-0.4,1-0.9,1H17.2c-0.5,0-0.9-0.4-0.9-1l0,0
				c0-0.5,0.4-1,0.9-1h24.2C42,39.6,42.4,40.1,42.4,40.6L42.4,40.6z"/>
		</g>
		<path fill="#E7D5B6" d="M29.6,61.1"/>
	</g>
	<g>
		<g>
			<path fill="#EE7A23" d="M93.8,50.9l0-9c1.1,0,2.1,0,3,0l-0.2,9C95.6,50.9,94.7,50.9,93.8,50.9z"/>
			<path fill="#424143" d="M96.8,42c2.4,0,4,0.2,4.6,1c0.7-0.2,1.4-0.4,1.9-0.4l1.3,0c0.8,0,1.6,0.3,2.2,0.7c0.1,0,0.3,0,0.4,0
				l0.5,0.1c0,0,0.1,0,0.1,0l0.5,0.1c0.3,0,0.6,0.1,0.9,0.2c0.1,0,0.2,0.1,0.3,0.1c0,0,0,0,0.1,0l0.3,0.1c0.3,0.1,0.7,0.2,1,0.3
				l0.1,0c0.4,0.2,0.8,0.3,1.2,0.6l0.2,0.1c0.1,0.1,0.3,0.2,0.5,0.3l0.5,0.3c0.3,0.2,0.6,0.4,0.9,0.7l0.2,0.1
				c0.3,0.2,0.5,0.4,0.7,0.7c0.1,0.1,0.1,0.1,0.2,0.2c0,0,0.1,0.1,0.1,0.1c0.1,0.1,0.2,0.2,0.3,0.3l0.3,0.4c0.1,0.1,0.1,0.2,0.2,0.2
				c0.1,0.2,0.2,0.3,0.3,0.5l0.6,1c0.2,0.3,0.1,0.7-0.2,0.9c-0.1,0.1-0.3,0.2-0.5,0.2c-0.2,0-0.3,0-0.5-0.2l-0.9-0.7
				c-0.1-0.1-0.2-0.1-0.3-0.2c-0.1,0-0.2-0.1-0.3-0.1l-0.4-0.2c-0.1,0-0.1-0.1-0.2-0.1c-0.1,0-0.1,0-0.2-0.1c-0.1,0-0.2-0.1-0.3-0.1
				c-0.2-0.1-0.4-0.1-0.5-0.2c-0.1,0-0.2,0-0.3-0.1c-0.2-0.1-0.4-0.1-0.6-0.1c0,0,0,0,0,0l-0.5-0.1c-0.1,0-0.2,0-0.3,0
				c-0.1,0-0.1,0-0.2,0c-0.3,0-0.5,0-0.8,0l-0.1,0c-0.2,0-0.4,0-0.6,0.1c-0.1,0-0.2,0-0.3,0c-0.1,0-0.2,0-0.3,0.1
				c-0.2,0-0.3,0.1-0.5,0.1l-0.4,0.1l-0.4,0.1c-0.1,0-0.2,0.1-0.3,0.1c-0.1,0-0.1,0.1-0.2,0.1c-0.1,0-0.1,0.1-0.2,0.1
				c-0.1,0-0.1,0.1-0.2,0.1l-0.1,0c0,0,0,0,0,0l-4.9,0.2c-0.1,0-0.3-0.1-0.4-0.1c-0.6,0.8-2.6,1-4.9,1.1L96.8,42z"/>
			<path fill="#424143" d="M101.9,50.3c0-0.1,0-0.2,0-0.3c0,0,0,0,0,0l4.9-0.7c0,0.2,0.1,0.8,0.1,1l0,9.3l0,0l-5,0.1L101.9,50.3z"/>
			<path fill="#EE7A23" d="M100.5,86.6l0-19.6c0-0.2,0-0.4,0-0.5l1.4-6.8l0,0l5-0.1l1.5,7c0,0.1,0,0.2,0,0.3l0,19.6c0,2.2-1.8,4-4,4
				C102.2,90.6,100.5,88.8,100.5,86.6z"/>
		</g>
		<path fill="#424143" d="M53,24.7c-0.7,0.1-1.2,0.7-1.2,1.4l0,1.4c0,0.7,0.5,1.3,1.2,1.4l1,0.1c0.2,0.6,0.4,1.2,0.7,1.8l-0.7,0.8
			c-0.4,0.5-0.4,1.3,0.1,1.8l1,1c0.5,0.5,1.3,0.6,1.8,0.1l0.8-0.6c0.6,0.3,1.2,0.6,1.8,0.8l0.1,1.1c0.1,0.7,0.7,1.2,1.4,1.2l1.4,0
			c0.7,0,1.3-0.5,1.4-1.2l0.1-1c0.7-0.2,1.4-0.4,2-0.8l0.8,0.6c0.5,0.4,1.3,0.4,1.8-0.1l1-1c0.5-0.5,0.6-1.3,0.1-1.8L69.2,31
			c0.4-0.6,0.6-1.3,0.8-1.9l0.9-0.1c0.7-0.1,1.2-0.7,1.2-1.4l0-1.4c0-0.7-0.5-1.3-1.2-1.4l-0.9-0.1c-0.2-0.7-0.4-1.3-0.8-1.9
			l0.6-0.7c0.4-0.5,0.4-1.3-0.1-1.8l-1-1c-0.5-0.5-1.3-0.6-1.8-0.1l-0.7,0.5c-0.6-0.4-1.3-0.7-2-0.9l-0.1-0.9
			c-0.1-0.7-0.7-1.2-1.4-1.2l-1.4,0c-0.7,0-1.3,0.5-1.4,1.2l-0.1,0.9c-0.7,0.2-1.4,0.5-2.1,0.9L57.2,19c-0.5-0.4-1.3-0.4-1.8,0.1
			l-1,1c-0.5,0.5-0.6,1.3-0.1,1.8l0.6,0.8c-0.3,0.6-0.6,1.3-0.8,1.9L53,24.7z M62.1,23.1c2,0,3.6,1.7,3.6,3.7c0,2-1.7,3.6-3.7,3.6
			c-2,0-3.6-1.7-3.6-3.7C58.4,24.7,60,23.1,62.1,23.1z"/>
		<path fill="#818182" d="M53.7,43.4c-0.4,0-0.7,0.4-0.7,0.8l0,0.8c0,0.4,0.3,0.8,0.7,0.8l0.6,0.1c0.1,0.4,0.2,0.7,0.4,1.1l-0.4,0.5
			c-0.3,0.3-0.2,0.8,0,1.1l0.6,0.6c0.3,0.3,0.8,0.3,1.1,0.1l0.5-0.4c0.3,0.2,0.7,0.4,1.1,0.5l0.1,0.6c0,0.4,0.4,0.7,0.8,0.7l0.8,0
			c0.4,0,0.8-0.3,0.8-0.7l0.1-0.6c0.4-0.1,0.8-0.3,1.2-0.5l0.5,0.4c0.3,0.3,0.8,0.2,1.1,0l0.6-0.6c0.3-0.3,0.3-0.8,0.1-1.1l-0.4-0.5
			c0.2-0.4,0.4-0.7,0.5-1.1l0.5-0.1c0.4,0,0.7-0.4,0.7-0.8l0-0.8c0-0.4-0.3-0.8-0.7-0.8l-0.5-0.1c-0.1-0.4-0.3-0.8-0.4-1.1l0.3-0.4
			c0.3-0.3,0.2-0.8,0-1.1L63,40.2c-0.3-0.3-0.8-0.3-1.1-0.1l-0.4,0.3c-0.4-0.2-0.8-0.4-1.2-0.5l-0.1-0.5c0-0.4-0.4-0.7-0.8-0.7
			l-0.8,0c-0.4,0-0.8,0.3-0.8,0.7l-0.1,0.5c-0.4,0.1-0.8,0.3-1.2,0.5L56.1,40c-0.3-0.3-0.8-0.2-1.1,0l-0.6,0.6
			c-0.3,0.3-0.3,0.8-0.1,1.1l0.4,0.5c-0.2,0.4-0.4,0.7-0.5,1.1L53.7,43.4z M59,42.4c1.2,0,2.1,1,2.1,2.2c0,1.2-1,2.1-2.2,2.1
			c-1.2,0-2.1-1-2.1-2.2C56.9,43.4,57.8,42.4,59,42.4z"/>
		<path fill="#818182" d="M74,19.5c-0.7,0.1-1.2,0.7-1.2,1.4l0,1.4c0,0.7,0.5,1.3,1.2,1.4l1,0.1c0.2,0.6,0.4,1.2,0.7,1.8l-0.7,0.8
			c-0.4,0.5-0.4,1.3,0.1,1.8l1,1c0.5,0.5,1.3,0.6,1.8,0.1l0.8-0.6c0.6,0.3,1.2,0.6,1.8,0.8l0.1,1.1c0.1,0.7,0.7,1.2,1.4,1.2l1.4,0
			c0.7,0,1.3-0.5,1.4-1.2l0.1-1c0.7-0.2,1.4-0.4,2-0.8l0.8,0.6c0.5,0.4,1.3,0.4,1.8-0.1l1-1c0.5-0.5,0.6-1.3,0.1-1.8l-0.6-0.8
			c0.4-0.6,0.6-1.3,0.8-1.9l0.9-0.1c0.7-0.1,1.2-0.7,1.2-1.4l0-1.4c0-0.7-0.5-1.3-1.2-1.4l-0.9-0.1c-0.2-0.7-0.4-1.3-0.8-1.9
			l0.6-0.7c0.4-0.5,0.4-1.3-0.1-1.8l-1-1c-0.5-0.5-1.3-0.6-1.8-0.1l-0.7,0.5c-0.6-0.4-1.3-0.7-2-0.9l-0.1-0.9
			c-0.1-0.7-0.7-1.2-1.4-1.2l-1.4,0c-0.7,0-1.3,0.5-1.4,1.2L81,13.5c-0.7,0.2-1.4,0.5-2.1,0.9l-0.7-0.6c-0.5-0.4-1.3-0.4-1.8,0.1
			l-1,1c-0.5,0.5-0.6,1.3-0.1,1.8l0.6,0.8c-0.3,0.6-0.6,1.3-0.8,1.9L74,19.5z M83.1,17.9c2,0,3.6,1.7,3.6,3.7c0,2-1.7,3.6-3.7,3.6
			c-2,0-3.6-1.7-3.6-3.7C79.4,19.5,81.1,17.8,83.1,17.9z"/>
		<path fill="#424143" d="M94.2,26c-0.5,0.1-0.9,0.5-0.9,1l0,1c0,0.5,0.4,0.9,0.9,1l0.7,0.1c0.1,0.5,0.3,0.9,0.5,1.3L95,31
			c-0.3,0.4-0.3,1,0.1,1.3l0.7,0.7c0.4,0.4,0.9,0.4,1.3,0.1l0.6-0.5c0.4,0.2,0.9,0.4,1.3,0.6l0.1,0.8c0.1,0.5,0.5,0.9,1,0.9l1,0
			c0.5,0,0.9-0.4,1-0.9l0.1-0.7c0.5-0.1,1-0.3,1.4-0.6l0.6,0.5c0.4,0.3,1,0.3,1.3-0.1l0.7-0.7c0.4-0.4,0.4-0.9,0.1-1.3l-0.4-0.6
			c0.3-0.4,0.5-0.9,0.6-1.4l0.7-0.1c0.5-0.1,0.9-0.5,0.9-1l0-1c0-0.5-0.4-0.9-0.9-1l-0.6-0.1c-0.1-0.5-0.3-1-0.5-1.4l0.4-0.5
			c0.3-0.4,0.3-1-0.1-1.3l-0.7-0.7c-0.4-0.4-0.9-0.4-1.3-0.1l-0.5,0.4c-0.5-0.3-0.9-0.5-1.5-0.6l-0.1-0.6c-0.1-0.5-0.5-0.9-1-0.9
			l-1,0c-0.5,0-0.9,0.4-1,0.9l-0.1,0.6c-0.5,0.1-1,0.3-1.5,0.6l-0.5-0.4c-0.4-0.3-1-0.3-1.3,0.1l-0.7,0.7c-0.4,0.4-0.4,0.9-0.1,1.3
			l0.4,0.6c-0.2,0.4-0.4,0.9-0.6,1.4L94.2,26z M100.7,24.9c1.4,0,2.6,1.2,2.6,2.7c0,1.4-1.2,2.6-2.7,2.6c-1.4,0-2.6-1.2-2.6-2.7
			C98.1,26,99.3,24.9,100.7,24.9z"/>
		<g>
			<path fill="#424143" d="M89.8,78.3l-0.3-0.4c-0.7-0.7-1.4-1.1-2.2-1.5l0-22c0.8-0.4,1.5-0.8,2.2-1.5l0.3-0.4
				c2.6-3,2.5-7.5-0.3-10.3c-0.8-0.8-1.8-1.4-2.8-1.8v7.1c0,0.4-0.1,0.7-0.2,1c-0.4,0.9-1.3,1.5-2.3,1.5c-0.7,0-1.3-0.3-1.8-0.7
				c-0.2-0.2-0.4-0.5-0.5-0.7c-0.1-0.3-0.2-0.7-0.2-1l0-7.1c-1,0.4-2,0.9-2.8,1.8c-2.8,2.8-2.9,7.3-0.3,10.3l0.3,0.4
				c0.7,0.7,1.4,1.1,2.2,1.5v22c-0.8,0.4-1.5,0.8-2.2,1.5l-0.3,0.4c-2.6,3-2.5,7.5,0.3,10.3c0.8,0.8,1.8,1.4,2.8,1.8v-7.1
				c0-0.4,0.1-0.7,0.2-1c0.4-0.9,1.3-1.5,2.3-1.5c0.7,0,1.3,0.3,1.8,0.7c0.2,0.2,0.4,0.5,0.5,0.7c0.1,0.3,0.2,0.7,0.2,1l0,7.1
				c1-0.4,2-0.9,2.8-1.8C92.3,85.7,92.4,81.2,89.8,78.3z"/>
		</g>
		<g>
			<rect x="68" y="50.9" fill="#424143" width="2" height="20"/>
			<polygon fill="#424143" points="71.1,47.3 70.2,41.8 68,41.8 66.9,47.3 66.9,47.3 66.9,51.3 71.2,51.3 71.2,47.3 			"/>
			<path fill="#EE7A23" d="M72.2,89.5c0,0.5-0.4,0.8-0.8,0.8h-4.8c-0.5,0-0.8-0.4-0.8-0.8V76.4c0-0.5,0-1.2,0.1-1.7l0.8-8.2
				c0-0.5,0.5-0.8,0.9-0.8h3c0.5,0,0.9,0.4,0.9,0.8l0.7,8.4c0,0.5,0.1,1.2,0.1,1.7V89.5z"/>
			<path fill="#EE7A23" d="M73.2,67.1c0,0.5-0.4,0.8-0.8,0.8h-6.7c-0.5,0-0.8-0.4-0.8-0.8v-0.6c0-0.5,0.4-0.8,0.8-0.8h6.7
				c0.5,0,0.8,0.4,0.8,0.8V67.1z"/>
		</g>
	</g>
</g>
</svg>
