<?xml version="1.0" encoding="utf-8"?>
<!-- Generator: Adobe Illustrator 18.1.1, SVG Export Plug-In . SVG Version: 6.00 Build 0)  -->
<svg version="1.1" id="Layer_1" xmlns="http://www.w3.org/2000/svg" xmlns:xlink="http://www.w3.org/1999/xlink" x="0px" y="0px"
	 viewBox="0 0 120 100" enable-background="new 0 0 120 100" xml:space="preserve">
<g>
	<g>
		<rect x="67.3" y="55.5" fill-rule="evenodd" clip-rule="evenodd" fill="#E7D5B6" width="7.7" height="7.8"/>
		<path fill-rule="evenodd" clip-rule="evenodd" fill="#FEEAC7" d="M82.5,46c-0.2,0-0.3,0.1-0.4,0.2c0,0,0-0.1,0-0.1
			c0-0.1,0-0.2-0.1-0.3c0-0.1,0-0.2-0.1-0.3c0-0.1,0-0.2-0.1-0.3c0-0.1-0.1-0.2-0.1-0.3c0-0.1,0-0.2-0.1-0.2c0-0.1-0.1-0.2-0.1-0.3
			c0-0.1-0.1-0.1-0.1-0.2c0-0.1-0.1-0.2-0.1-0.3c0-0.1-0.1-0.1-0.1-0.2c0-0.1-0.1-0.2-0.1-0.3c0-0.1-0.1-0.1-0.1-0.2
			c-0.1-0.1-0.1-0.2-0.2-0.3c0-0.1-0.1-0.1-0.1-0.2c-0.1-0.1-0.1-0.2-0.2-0.3c0,0-0.1-0.1-0.1-0.1c-0.1-0.1-0.1-0.2-0.2-0.3
			c0,0-0.1-0.1-0.1-0.1c-0.1-0.1-0.2-0.2-0.2-0.3c0,0-0.1-0.1-0.1-0.1c-0.1-0.1-0.2-0.2-0.3-0.3c0,0-0.1-0.1-0.1-0.1
			c-0.1-0.1-0.2-0.2-0.3-0.3c0,0,0-0.1-0.1-0.1c-0.1-0.1-0.2-0.2-0.3-0.3c0,0,0,0-0.1-0.1c-0.1-0.1-0.2-0.2-0.3-0.3c0,0,0,0-0.1,0
			c-0.1-0.1-0.2-0.2-0.3-0.3c0,0,0,0,0,0c-0.1-0.1-0.2-0.2-0.4-0.3c0,0,0,0,0,0c-0.1-0.1-0.3-0.2-0.4-0.3c0,0,0,0,0,0
			c-0.1-0.1-0.3-0.2-0.4-0.3c0,0,0,0,0,0c-0.1-0.1-0.3-0.2-0.4-0.2c0,0,0,0,0,0c-0.1-0.1-0.3-0.2-0.5-0.2c0,0,0,0,0,0
			c-0.2-0.1-0.3-0.1-0.5-0.2c0,0,0,0,0,0c-1-0.4-2-0.6-3.1-0.7c0,0,0,0,0,0c-0.2,0-0.4,0-0.5,0c0,0,0,0,0,0c-0.1,0-0.2,0-0.3,0
			c-5.1,0-9.4,3.7-10.5,8.6c-0.1,0-0.1-0.1-0.2-0.1c-0.6,0-1.1,1.3-1.1,2.9c0,1.6,0.5,2.9,1.1,2.9c0.1,0,0.3-0.1,0.4-0.2
			c1.3,4.6,5.5,8,10.4,8c0.1,0,0.2,0,0.3,0c0,0,0,0,0,0c0.2,0,0.4,0,0.5,0c0,0,0,0,0,0c1.1-0.1,2.1-0.3,3.1-0.7c0,0,0,0,0,0
			c0.2-0.1,0.3-0.1,0.5-0.2c0,0,0,0,0,0c0.2-0.1,0.3-0.1,0.5-0.2c0,0,0,0,0,0c0.1-0.1,0.3-0.2,0.4-0.2c0,0,0,0,0,0
			c0.1-0.1,0.3-0.2,0.4-0.3c0,0,0,0,0,0c0.1-0.1,0.3-0.2,0.4-0.3c0,0,0,0,0,0c0.1-0.1,0.3-0.2,0.4-0.3c0,0,0,0,0,0
			c0.1-0.1,0.2-0.2,0.3-0.3c0,0,0,0,0.1,0c0.1-0.1,0.2-0.2,0.3-0.3c0,0,0,0,0.1-0.1c0.1-0.1,0.2-0.2,0.3-0.3c0,0,0-0.1,0.1-0.1
			c0.1-0.1,0.2-0.2,0.3-0.3c0,0,0.1-0.1,0.1-0.1c0.1-0.1,0.2-0.2,0.3-0.3c0,0,0.1-0.1,0.1-0.1c0.1-0.1,0.2-0.2,0.2-0.3
			c0,0,0.1-0.1,0.1-0.1c0.1-0.1,0.1-0.2,0.2-0.3c0,0,0.1-0.1,0.1-0.1c0.1-0.1,0.1-0.2,0.2-0.3c0-0.1,0.1-0.1,0.1-0.2
			c0.1-0.1,0.1-0.2,0.2-0.3c0-0.1,0.1-0.1,0.1-0.2c0-0.1,0.1-0.2,0.1-0.3c0-0.1,0.1-0.1,0.1-0.2c0-0.1,0.1-0.2,0.1-0.3
			c0-0.1,0.1-0.1,0.1-0.2c0-0.1,0.1-0.2,0.1-0.3c0-0.1,0.1-0.2,0.1-0.2c0-0.1,0.1-0.2,0.1-0.3c0-0.1,0-0.2,0.1-0.3c0,0,0-0.1,0-0.1
			c0.2,0.2,0.4,0.4,0.6,0.4c0.6,0,1.1-1.3,1.1-2.9C83.6,47.3,83.1,46,82.5,46z"/>
		<path fill-rule="evenodd" clip-rule="evenodd" fill="#212725" d="M96.4,87.9c0-9.5-3.7-19.1-8.8-22.1c-3-2-8.5-3.4-16.4-3.4
			c-7.9,0-13.7,1.4-16.8,3.4c-5.2,3-8.4,12.6-8.4,22.2v2.7h9.1v-2.7c0-6.3,2-10.2,3.3-12.2v14.8h25.4V76.3c1.4,2.1,3.4,5.9,3.4,11.6
			v2.7h9.1V87.9z"/>
		<path fill-rule="evenodd" clip-rule="evenodd" fill="#603A17" d="M81.9,45.5c0-0.1-0.1-0.2-0.1-0.4c-0.1-0.2-0.1-0.4-0.2-0.5
			c-0.1-0.2-0.1-0.3-0.2-0.5c-0.1-0.1-0.1-0.3-0.2-0.4c-0.1-0.2-0.2-0.3-0.3-0.5c-0.1-0.1-0.1-0.2-0.2-0.3c-0.1-0.2-0.2-0.4-0.3-0.5
			c0-0.1-0.1-0.2-0.1-0.2c-0.1-0.2-0.3-0.4-0.4-0.6c0-0.1-0.1-0.1-0.1-0.2c-0.2-0.2-0.3-0.4-0.5-0.6c0,0-0.1-0.1-0.1-0.1
			c-0.2-0.2-0.4-0.4-0.6-0.6c0,0,0,0-0.1,0c-0.2-0.2-0.5-0.4-0.7-0.6c0,0,0,0,0,0c-1.8-1.3-4-2.1-6.3-2.1c-5.8,0-10.6,4.7-10.8,10.7
			c0.7-0.8,1.1-1.9,1.8-2.6c1.1-1.3,2.5-2.2,3.8-3.3c0.9-0.8,2.3-0.9,3.1,0c0.7,0.7,1.5,1.4,2.5,1.9l0,0c0,0,0,0,0,0
			c0.3,0.2,0.6,0.3,1,0.5c0,0,0.1,0,0.1,0c0.1,0,0.2,0.1,0.3,0.1c0,0,0,0,0.1,0c0.2,0.1,0.4,0.1,0.5,0.2c0.1,0,0.2,0,0.2,0.1
			c0.1,0,0.1,0,0.2,0c0.1,0,0.3,0,0.4,0.1c0.1,0,0.1,0,0.2,0c0.1,0,0.2,0,0.3,0c0,0,0.1,0,0.1,0c0.2,0,0.3,0,0.5,0c0,0,0.1,0,0.1,0
			c0.1,0,0.3-0.1,0.4-0.1c0,0,0,0,0.1,0c0.2,0,0.3-0.1,0.5-0.2c0,0,0.1,0,0.1,0c0.2-0.1,0.3-0.1,0.5-0.2c1.1-0.6,2.4-0.2,3,0.8
			c0.3,0.5,1,0.9,1.7,1.2C82,46.2,82,45.8,81.9,45.5z"/>
		<g>
			<g>
				<path fill-rule="evenodd" clip-rule="evenodd" fill="#F1A240" d="M83.3,42.6c0-0.1,0-0.2-0.1-0.3c-0.2-0.6-0.7-2.5-0.7-3.1
					c0-5.2-4.9-9.5-11-9.5c-6.1,0-11,4.3-11,9.5c0,0.6-0.5,2.4-0.9,3.4H83.3z"/>
				<path fill-rule="evenodd" clip-rule="evenodd" fill="#F1A240" d="M71.4,33.1c1.6,0,2.8-1.3,2.8-2.8c0-1.6-1.3-2.8-2.8-2.8
					c-1.6,0-2.8,1.3-2.8,2.8C68.5,31.9,69.8,33.1,71.4,33.1z"/>
				<g>
					<g>
						<g>
							<path fill-rule="evenodd" clip-rule="evenodd" fill="#D08D34" d="M65.1,31.5c1-0.6,2.1-1.1,3.3-1.4c0.1,0.2,0.1,0.4,0.1,0.6
								v7.6c0,0.9-0.8,1.7-1.7,1.7l0,0c-0.9,0-1.7-0.8-1.7-1.7V31.5z"/>
						</g>
						<g>
							<path fill-rule="evenodd" clip-rule="evenodd" fill="#D08D34" d="M74.4,30c1.2,0.3,2.3,0.7,3.3,1.3v7c0,0.9-0.8,1.7-1.7,1.7
								l0,0c-0.9,0-1.7-0.8-1.7-1.7v-7.6C74.2,30.5,74.3,30.2,74.4,30z"/>
						</g>
					</g>
				</g>
			</g>
			<path fill-rule="evenodd" clip-rule="evenodd" fill="#D08D34" d="M83.9,42.7c0,0.5-0.4,0.9-0.9,0.9H59.9c-0.5,0-0.9-0.4-0.9-0.9
				l0,0c0-0.5,0.4-0.9,0.9-0.9H83C83.5,41.8,83.9,42.2,83.9,42.7L83.9,42.7z"/>
		</g>
		<path fill="#E7D5B6" d="M71.7,62.3"/>
		<path fill-rule="evenodd" clip-rule="evenodd" fill="#FFFFFF" d="M66.3,62.6l4.9,15.7l4.6-15.7c0,0-0.7-0.2-4.3-0.2
			C67.9,62.4,66.3,62.6,66.3,62.6z"/>
		<ellipse fill-rule="evenodd" clip-rule="evenodd" fill="#0797A7" cx="71.4" cy="62.3" rx="2.5" ry="1.5"/>
		<polygon fill-rule="evenodd" clip-rule="evenodd" fill="#0797A7" points="70.7,63.1 69.6,73.1 71.2,78.3 72.8,73.1 72.2,63.1 		
			"/>
		<rect x="75.1" y="78.1" fill-rule="evenodd" clip-rule="evenodd" fill="#FFFFFF" width="6.6" height="3.5"/>
		<polygon fill-rule="evenodd" clip-rule="evenodd" fill="#141B17" points="75.8,62.5 79.8,66.5 71.2,78.3 		"/>
		<polygon fill-rule="evenodd" clip-rule="evenodd" fill="#141B17" points="66.3,62.6 62.9,66.6 71.3,78.3 		"/>
		<rect x="70.9" y="78.2" fill-rule="evenodd" clip-rule="evenodd" fill="#141B17" width="0.8" height="12.4"/>
	</g>
	<g>
		<g>
			<g>
				<g>
					<g>
						<path fill="#212725" d="M104.8,17.8h7.7c0,0,1.5-6-5.2-6.2H71.6c0-0.5-0.3-0.9-0.8-1l-35.7-8c-0.5-0.1-1.1,0.2-1.2,0.8
							c0,0.1,0,0.1,0,0.2h-0.8c0-0.1,0-0.3-0.1-0.4c-0.2-0.5-0.8-0.7-1.3-0.5L9.3,13.4c-0.5,0.2-0.7,0.8-0.5,1.3l-2.6,0
							c0,0-1.2,3.1,9.7,3.1h12.5V25h16.5v-7.2h57.9v48.2c0,0.1,0,0.2,0,0.2c-2,0.4-3.6,2.2-3.6,4.4c0,2.1,1.5,3.9,3.5,4.4v3
							c0,0.3,0.2,0.7,0.5,0.8l1.6,1c0.2,0.2,0.3,0.5,0.3,0.7c0,0.3-0.1,0.6-0.3,0.8c-0.4,0.4-1.2,0.4-1.6,0c-0.4-0.4-1-0.4-1.4,0
							c-0.4,0.4-0.4,1,0,1.4c0.6,0.6,1.4,0.9,2.2,0.9c0.8,0,1.6-0.3,2.2-0.9c0.6-0.6,0.9-1.4,0.9-2.2c0-0.8-0.3-1.6-0.9-2.2
							c-0.1-0.1-0.1-0.1-0.2-0.1l-1.3-0.8V75c2-0.5,3.5-2.2,3.5-4.4c0-2.2-1.5-4-3.6-4.4c0-0.1,0-0.2,0-0.2V17.8L104.8,17.8z
							 M31.2,14.3l-19.8,0.3l20.7-9.9L31.2,14.3z M42.7,11.6l-6.5,3.2L35.1,4.6l31,6.9H42.7L42.7,11.6z M106.3,70.6
							c0,1.4-1.1,2.5-2.5,2.5c-1.4,0-2.5-1.1-2.5-2.5c0-1.4,1.1-2.5,2.5-2.5C105.2,68.1,106.3,69.2,106.3,70.6z"/>
					</g>
				</g>
				<rect x="25" y="24.8" fill="#424143" width="16" height="17.6"/>
				<g>
					<rect x="27.7" y="42" fill="#212725" width="10.5" height="40.7"/>
				</g>
				<polygon fill="#424143" points="45.2,95.8 38.2,91.7 38.2,82.5 27.7,82.5 27.7,90.5 21,95.8 				"/>
			</g>
		</g>
	</g>
	<g>
		<path fill="#818182" d="M110,89.9c0,0.5-0.4,0.9-0.9,0.9H83.5c-0.5,0-0.9-0.4-0.9-0.9V57c0-0.5,0.4-0.9,0.9-0.9h25.5
			c0.5,0,0.9,0.4,0.9,0.9V89.9z"/>
		<path fill="#F2F4EF" d="M108.1,87.1c0,0.5-0.4,0.9-0.9,0.9H85.5c-0.5,0-0.9-0.4-0.9-0.9V59.9c0-0.5,0.4-0.9,0.9-0.9h21.7
			c0.5,0,0.9,0.4,0.9,0.9V87.1z"/>
		<path fill="#212725" d="M102.1,53.8h-2.3V53c0-0.5-0.4-0.9-0.9-0.9h-5.2c-0.5,0-0.9,0.4-0.9,0.9v0.8h-2.3c-0.5,0-0.9,0.4-0.9,0.9
			v5.5c0,0.5,0.4,0.9,0.9,0.9h11.7c0.5,0,0.9-0.4,0.9-0.9v-5.5C103.1,54.2,102.7,53.8,102.1,53.8z"/>
		<g>
			<path fill="#212725" d="M92.4,69.8h-4.9c-0.1,0-0.2-0.1-0.2-0.2v-4.9c0-0.1,0.1-0.2,0.2-0.2h4.9c0.1,0,0.2,0.1,0.2,0.2v4.9
				C92.6,69.7,92.5,69.8,92.4,69.8z M87.7,69.3h4.4v-4.4h-4.4V69.3z"/>
			<path fill="#F1A240" d="M89.5,69c-0.1,0-0.2,0-0.3-0.1l-1-1.1c-0.1-0.1-0.1-0.4,0-0.5c0.1-0.1,0.4-0.1,0.5,0l0.7,0.8l1.8-2.6
				c0.1-0.2,0.3-0.2,0.5-0.1c0.2,0.1,0.2,0.3,0.1,0.5l-2.1,2.9C89.7,68.9,89.6,69,89.5,69C89.5,69,89.5,69,89.5,69z"/>
		</g>
		<g>
			<path fill="#212725" d="M92.4,76.6h-4.9c-0.1,0-0.2-0.1-0.2-0.2v-4.9c0-0.1,0.1-0.2,0.2-0.2h4.9c0.1,0,0.2,0.1,0.2,0.2v4.9
				C92.6,76.5,92.5,76.6,92.4,76.6z M87.7,76.1h4.4v-4.4h-4.4V76.1z"/>
			<path fill="#F1A240" d="M89.5,75.8c-0.1,0-0.2,0-0.3-0.1l-1-1.1c-0.1-0.1-0.1-0.4,0-0.5c0.1-0.1,0.4-0.1,0.5,0l0.7,0.8l1.8-2.6
				c0.1-0.2,0.3-0.2,0.5-0.1c0.2,0.1,0.2,0.3,0.1,0.5l-2.1,2.9C89.7,75.7,89.6,75.8,89.5,75.8C89.5,75.8,89.5,75.8,89.5,75.8z"/>
		</g>
		<g>
			<path fill="#212725" d="M92.4,83.4h-4.9c-0.1,0-0.2-0.1-0.2-0.2v-4.9c0-0.1,0.1-0.2,0.2-0.2h4.9c0.1,0,0.2,0.1,0.2,0.2v4.9
				C92.6,83.3,92.5,83.4,92.4,83.4z M87.7,82.9h4.4v-4.4h-4.4V82.9z"/>
			<path fill="#F1A240" d="M89.5,82.6c-0.1,0-0.2,0-0.3-0.1l-1-1.1c-0.1-0.1-0.1-0.4,0-0.5c0.1-0.1,0.4-0.1,0.5,0l0.7,0.8l1.8-2.6
				c0.1-0.2,0.3-0.2,0.5-0.1c0.2,0.1,0.2,0.3,0.1,0.5l-2.1,2.9C89.7,82.5,89.6,82.6,89.5,82.6C89.5,82.6,89.5,82.6,89.5,82.6z"/>
		</g>
		<g>
			<path fill="#212725" d="M105.7,69.6H93.8c-0.1,0-0.2-0.1-0.2-0.2s0.1-0.2,0.2-0.2h11.9c0.1,0,0.2,0.1,0.2,0.2
				S105.8,69.6,105.7,69.6z"/>
			<path fill="#212725" d="M105.7,76.5H93.8c-0.1,0-0.2-0.1-0.2-0.2c0-0.1,0.1-0.2,0.2-0.2h11.9c0.1,0,0.2,0.1,0.2,0.2
				C105.9,76.4,105.8,76.5,105.7,76.5z"/>
			<path fill="#212725" d="M105.7,83.2H93.8c-0.1,0-0.2-0.1-0.2-0.2s0.1-0.2,0.2-0.2h11.9c0.1,0,0.2,0.1,0.2,0.2
				S105.8,83.2,105.7,83.2z"/>
		</g>
	</g>
</g>
</svg>
