<?xml version="1.0" encoding="utf-8"?>
<!-- Generator: Adobe Illustrator 18.1.1, SVG Export Plug-In . SVG Version: 6.00 Build 0)  -->
<svg version="1.1" id="Layer_1" xmlns="http://www.w3.org/2000/svg" xmlns:xlink="http://www.w3.org/1999/xlink" x="0px" y="0px"
	 viewBox="0 0 120 100" enable-background="new 0 0 120 100" xml:space="preserve">
<g>
	<circle fill-rule="evenodd" clip-rule="evenodd" fill="#FEEAC7" cx="47.6" cy="66.4" r="3"/>
	<g>
		<rect x="19.1" y="51.1" fill-rule="evenodd" clip-rule="evenodd" fill="#E7D5B6" width="6.3" height="6.5"/>
		<path fill-rule="evenodd" clip-rule="evenodd" fill="#FEEAC7" d="M31.7,43.2c-0.1,0-0.2,0.1-0.4,0.2c0,0,0-0.1,0-0.1
			c0-0.1,0-0.2-0.1-0.2c0-0.1,0-0.2-0.1-0.2c0-0.1,0-0.1-0.1-0.2c0-0.1,0-0.2-0.1-0.2c0-0.1,0-0.1-0.1-0.2c0-0.1-0.1-0.2-0.1-0.2
			c0-0.1,0-0.1-0.1-0.2c0-0.1-0.1-0.2-0.1-0.2c0-0.1,0-0.1-0.1-0.2c0-0.1-0.1-0.2-0.1-0.2c0,0,0-0.1-0.1-0.1c0-0.1-0.1-0.2-0.1-0.3
			c0,0,0-0.1-0.1-0.1c-0.1-0.1-0.1-0.2-0.2-0.3c0,0,0-0.1-0.1-0.1C30,40.1,29.9,40,29.9,40c0,0,0-0.1-0.1-0.1
			c-0.1-0.1-0.1-0.2-0.2-0.3c0,0,0-0.1-0.1-0.1c-0.1-0.1-0.1-0.2-0.2-0.3c0,0,0-0.1-0.1-0.1c-0.1-0.1-0.2-0.2-0.2-0.3
			c0,0,0,0-0.1-0.1c-0.1-0.1-0.2-0.2-0.2-0.3c0,0,0,0-0.1-0.1c-0.1-0.1-0.2-0.2-0.3-0.2c0,0,0,0,0,0c-0.1-0.1-0.2-0.2-0.3-0.2
			c0,0,0,0,0,0c-0.1-0.1-0.2-0.2-0.3-0.2c0,0,0,0,0,0c-0.1-0.1-0.2-0.2-0.3-0.2c0,0,0,0,0,0c-0.1-0.1-0.2-0.1-0.3-0.2c0,0,0,0,0,0
			c-0.1-0.1-0.2-0.1-0.4-0.2c0,0,0,0,0,0c-0.1-0.1-0.2-0.1-0.4-0.2c0,0,0,0,0,0c-0.1-0.1-0.3-0.1-0.4-0.2c0,0,0,0,0,0
			c-0.8-0.3-1.7-0.5-2.6-0.6c0,0,0,0,0,0c-0.1,0-0.3,0-0.4,0c0,0,0,0,0,0c-0.1,0-0.2,0-0.2,0c-4.3,0-7.8,3.1-8.7,7.2
			c-0.1,0-0.1,0-0.2,0c-0.5,0-0.9,1.1-0.9,2.4s0.4,2.4,0.9,2.4c0.1,0,0.2-0.1,0.3-0.1c1.1,3.8,4.5,6.6,8.6,6.6c0.1,0,0.2,0,0.2,0
			c0,0,0,0,0,0c0.1,0,0.3,0,0.4,0c0,0,0,0,0,0c0.9-0.1,1.8-0.3,2.6-0.6c0,0,0,0,0,0c0.1-0.1,0.3-0.1,0.4-0.2c0,0,0,0,0,0
			c0.1-0.1,0.3-0.1,0.4-0.2c0,0,0,0,0,0c0.1-0.1,0.2-0.1,0.4-0.2c0,0,0,0,0,0c0.1-0.1,0.2-0.1,0.3-0.2c0,0,0,0,0,0
			c0.1-0.1,0.2-0.1,0.3-0.2c0,0,0,0,0,0c0.1-0.1,0.2-0.2,0.3-0.2c0,0,0,0,0,0c0.1-0.1,0.2-0.2,0.3-0.2c0,0,0,0,0,0
			c0.1-0.1,0.2-0.2,0.3-0.2c0,0,0,0,0.1-0.1c0.1-0.1,0.2-0.2,0.2-0.3c0,0,0,0,0.1-0.1c0.1-0.1,0.2-0.2,0.2-0.3c0,0,0-0.1,0.1-0.1
			c0.1-0.1,0.1-0.2,0.2-0.3c0,0,0-0.1,0.1-0.1c0.1-0.1,0.1-0.2,0.2-0.3c0,0,0-0.1,0.1-0.1c0.1-0.1,0.1-0.2,0.2-0.3
			c0,0,0-0.1,0.1-0.1c0.1-0.1,0.1-0.2,0.2-0.3c0,0,0-0.1,0.1-0.1c0-0.1,0.1-0.2,0.1-0.3c0,0,0-0.1,0.1-0.1c0-0.1,0.1-0.2,0.1-0.2
			c0-0.1,0-0.1,0.1-0.2c0-0.1,0.1-0.2,0.1-0.2c0-0.1,0-0.1,0.1-0.2c0-0.1,0.1-0.2,0.1-0.2c0-0.1,0-0.1,0.1-0.2
			c0-0.1,0.1-0.2,0.1-0.2c0-0.1,0-0.1,0.1-0.2c0,0,0-0.1,0-0.1c0.1,0.2,0.3,0.3,0.5,0.3c0.5,0,1-1.1,1-2.4S32.2,43.2,31.7,43.2z"/>
		<path fill-rule="evenodd" clip-rule="evenodd" fill="#212725" d="M36,59.6c-2.5-1.7-7-2.8-13.6-2.8c-6.5,0-11.4,1.1-13.9,2.8
			c-4.3,2.5-7,10.5-7,18.4v2.2h7.6v-2.2c0-5.2,1.7-8.5,2.7-10.1v12.3h21V68.3c1.2,1.7,2.8,11.9,2.8,11.9h7.6
			C43.3,80.1,41.8,62.8,36,59.6z"/>
		<path fill-rule="evenodd" clip-rule="evenodd" fill="#603A17" d="M31.2,42.8c0-0.1-0.1-0.2-0.1-0.3c0-0.1-0.1-0.3-0.1-0.4
			c0-0.1-0.1-0.3-0.2-0.4c0-0.1-0.1-0.2-0.1-0.3c-0.1-0.1-0.1-0.3-0.2-0.4c0-0.1-0.1-0.2-0.1-0.3c-0.1-0.2-0.2-0.3-0.3-0.5
			c0-0.1-0.1-0.1-0.1-0.2c-0.1-0.2-0.2-0.3-0.4-0.5c0,0-0.1-0.1-0.1-0.1c-0.1-0.2-0.3-0.3-0.4-0.5c0,0,0-0.1-0.1-0.1
			c-0.2-0.2-0.3-0.3-0.5-0.5c0,0,0,0,0,0c-0.2-0.2-0.4-0.3-0.6-0.5c0,0,0,0,0,0c-1.5-1.1-3.3-1.7-5.2-1.7c-4.8,0-8.8,3.9-9,8.8
			c0.6-0.6,0.9-1.6,1.5-2.2c0.9-1.1,2.1-1.8,3.1-2.7c0.7-0.7,1.9-0.8,2.6,0c0.5,0.6,1.2,1.2,2,1.6l0,0c0,0,0,0,0,0
			c0.3,0.1,0.5,0.3,0.8,0.4c0,0,0.1,0,0.1,0c0.1,0,0.2,0.1,0.3,0.1c0,0,0,0,0,0c0.1,0,0.3,0.1,0.4,0.1c0.1,0,0.1,0,0.2,0
			c0.1,0,0.1,0,0.2,0c0.1,0,0.2,0,0.3,0c0,0,0.1,0,0.1,0c0.1,0,0.2,0,0.3,0c0,0,0.1,0,0.1,0c0.1,0,0.3,0,0.4,0c0,0,0.1,0,0.1,0
			c0.1,0,0.2,0,0.3-0.1c0,0,0,0,0,0c0.1,0,0.3-0.1,0.4-0.1c0,0,0.1,0,0.1,0c0.1-0.1,0.3-0.1,0.4-0.2c0.9-0.5,2-0.2,2.5,0.7
			c0.2,0.4,0.8,0.7,1.4,1C31.3,43.3,31.3,43.1,31.2,42.8z"/>
		<g>
			<g>
				<path fill-rule="evenodd" clip-rule="evenodd" fill="#F1A240" d="M32.4,40.3c0-0.1,0-0.1-0.1-0.2c-0.2-0.5-0.6-2-0.6-2.6
					c0-4.3-4.1-7.9-9.1-7.9c-5,0-9.1,3.5-9.1,7.9c0,0.5-0.4,2-0.8,2.8H32.4z"/>
				<path fill-rule="evenodd" clip-rule="evenodd" fill="#F1A240" d="M22.5,32.5c1.3,0,2.3-1.1,2.3-2.3s-1.1-2.3-2.3-2.3
					c-1.3,0-2.3,1.1-2.3,2.3S21.2,32.5,22.5,32.5z"/>
				<g>
					<g>
						<g>
							<path fill-rule="evenodd" clip-rule="evenodd" fill="#D08D34" d="M17.3,31.2c0.8-0.5,1.7-0.9,2.7-1.2
								c0.1,0.2,0.1,0.3,0.1,0.5v6.3c0,0.8-0.6,1.4-1.4,1.4l0,0c-0.8,0-1.4-0.6-1.4-1.4V31.2z"/>
						</g>
						<g>
							<path fill-rule="evenodd" clip-rule="evenodd" fill="#D08D34" d="M25,29.9c1,0.2,1.9,0.6,2.7,1.1v5.8c0,0.8-0.6,1.4-1.4,1.4
								l0,0c-0.8,0-1.4-0.6-1.4-1.4v-6.3C24.9,30.3,24.9,30.1,25,29.9z"/>
						</g>
					</g>
				</g>
			</g>
			<path fill-rule="evenodd" clip-rule="evenodd" fill="#D08D34" d="M32.9,40.5c0,0.4-0.3,0.8-0.7,0.8H13c-0.4,0-0.7-0.3-0.7-0.8
				l0,0c0-0.4,0.3-0.8,0.7-0.8h19.2C32.6,39.7,32.9,40.1,32.9,40.5L32.9,40.5z"/>
		</g>
		<path fill="#E7D5B6" d="M22.8,56.7"/>
		<path fill-rule="evenodd" clip-rule="evenodd" fill="#FFFFFF" d="M18.3,56.9l4.1,13l3.8-13c0,0-0.6-0.1-3.6-0.1
			C19.6,56.8,18.3,56.9,18.3,56.9z"/>
		<ellipse fill-rule="evenodd" clip-rule="evenodd" fill="#0797A7" cx="22.5" cy="56.7" rx="2" ry="1.2"/>
		<polygon fill-rule="evenodd" clip-rule="evenodd" fill="#0797A7" points="22,57.4 21.1,65.6 22.4,69.9 23.7,65.7 23.2,57.4 		"/>
		<rect x="25.6" y="69.8" fill-rule="evenodd" clip-rule="evenodd" fill="#FFFFFF" width="5.4" height="2.9"/>
		<polygon fill-rule="evenodd" clip-rule="evenodd" fill="#141B17" points="26.2,56.9 29.5,60.2 22.4,69.9 		"/>
		<polygon fill-rule="evenodd" clip-rule="evenodd" fill="#141B17" points="18.3,56.9 15.5,60.2 22.4,70 		"/>
		<rect x="22.1" y="69.8" fill-rule="evenodd" clip-rule="evenodd" fill="#141B17" width="0.6" height="10.3"/>
	</g>
	<g>
		<g>
			<path fill="#424143" d="M116.6,18.5c-0.2-0.1-0.4-0.2-0.6-0.2c-0.1,0-74,0-74.1,0c-0.2,0-0.5,0-0.6,0.2c-0.2,0.1-0.3,0.4-0.3,0.6
				V60c0,0.2,0.1,0.4,0.3,0.6c0.1,0.1,0.3,0.2,0.5,0.2c0,0,0,0,0.1,0c0.1,0,74.1,0,74.2,0c0.2,0,0.4-0.1,0.6-0.2
				c0.2-0.1,0.3-0.4,0.3-0.6V19.1C116.8,18.9,116.7,18.7,116.6,18.5z M42.5,55.9l0.1-35.7l72.8-0.2L115.3,56L42.5,55.9z"/>
		</g>
		<polygon fill="#EFEFEF" points="42.5,55.9 42.6,20.2 115.4,20.1 115.3,56 		"/>
		<rect x="94.2" y="22.8" fill="#EE7A23" width="18.1" height="2.4"/>
		<rect x="101" y="26" fill="#EE7A23" width="11.3" height="2.4"/>
		<g>
			<g>
				<path fill="#818182" d="M58.3,43.5h-4.8c0,0-0.1,0-0.1-0.1v-4.8c0,0,0-0.1,0.1-0.1h4.8c0,0,0.1,0,0.1,0.1L58.3,43.5
					C58.4,43.5,58.4,43.5,58.3,43.5z M53.6,43.4h4.6v-4.6h-4.6V43.4z"/>
				<path fill="#818182" d="M58.3,38.7h-4.8c0,0-0.1,0-0.1-0.1v-4.8c0,0,0-0.1,0.1-0.1h4.8c0,0,0.1,0,0.1,0.1L58.3,38.7
					C58.4,38.7,58.4,38.7,58.3,38.7z M53.6,38.6h4.6v-4.6h-4.6V38.6z"/>
				<path fill="#818182" d="M58.3,34h-4.8c0,0-0.1,0-0.1-0.1v-4.8c0,0,0-0.1,0.1-0.1h4.8c0,0,0.1,0,0.1,0.1L58.3,34
					C58.4,33.9,58.4,34,58.3,34z M53.6,33.8h4.6v-4.6h-4.6V33.8z"/>
				<path fill="#818182" d="M63.1,38.7h-4.8c0,0-0.1,0-0.1-0.1v-4.8c0,0,0-0.1,0.1-0.1h4.8c0,0,0.1,0,0.1,0.1L63.1,38.7
					C63.2,38.7,63.2,38.7,63.1,38.7z M58.4,38.6H63V34h-4.6V38.6z"/>
				<path fill="#818182" d="M63.1,34h-4.8c0,0-0.1,0-0.1-0.1v-4.8c0,0,0-0.1,0.1-0.1h4.8c0,0,0.1,0,0.1,0.1L63.1,34
					C63.2,33.9,63.2,34,63.1,34z M58.4,33.8H63v-4.6h-4.6V33.8z"/>
				<path fill="#818182" d="M53.5,38.7h-4.8c0,0-0.1,0-0.1-0.1v-4.8c0,0,0-0.1,0.1-0.1h4.8c0,0,0.1,0,0.1,0.1L53.5,38.7
					C53.6,38.7,53.6,38.7,53.5,38.7z M48.8,38.6h4.6v-4.6h-4.6V38.6z"/>
				<path fill="#818182" d="M53.5,33.9h-4.8c0,0-0.1,0-0.1-0.1v-4.8c0,0,0-0.1,0.1-0.1h4.8c0,0,0.1,0,0.1,0.1L53.5,33.9
					C53.6,33.9,53.6,33.9,53.5,33.9z M48.8,33.8h4.6v-4.6h-4.6V33.8z"/>
				<path fill="#818182" d="M58.3,29.2h-4.8c0,0-0.1,0-0.1-0.1v-4.8c0,0,0-0.1,0.1-0.1h4.8c0,0,0.1,0,0.1,0.1L58.3,29.2
					C58.4,29.1,58.4,29.2,58.3,29.2z M53.6,29h4.6v-4.6h-4.6V29z"/>
			</g>
			<g>
				<rect x="57.8" y="26.4" fill="#424143" width="7.1" height="0.3"/>
				<rect x="61" y="36.3" fill="#424143" width="7.4" height="0.3"/>
				<rect x="56.3" y="42" fill="#424143" width="7.4" height="0.3"/>
				<rect x="57.1" y="31" fill="#424143" width="13.1" height="0.3"/>
			</g>
			
				<rect x="47.8" y="36.1" transform="matrix(0.7071 0.7071 -0.7071 0.7071 40.6332 -25.5506)" fill="#818182" width="6.6" height="0.3"/>
			
				<rect x="52.6" y="31.4" transform="matrix(0.7072 0.707 -0.707 0.7072 38.6279 -30.2976)" fill="#818182" width="6.6" height="0.3"/>
			
				<rect x="52.8" y="32.1" transform="matrix(0.7054 0.7088 -0.7088 0.7054 39.0807 -29.609)" fill="#818182" width="4.6" height="0.2"/>
			
				<rect x="53.1" y="33" transform="matrix(0.7104 0.7038 -0.7038 0.7104 38.9754 -28.698)" fill="#818182" width="2.4" height="0.1"/>
		</g>
		<g>
			<circle fill="#424143" cx="83.1" cy="38.5" r="10.9"/>
			<g>
				<defs>
					<circle id="SVGID_1_" cx="83.1" cy="38.5" r="10.9"/>
				</defs>
				<clipPath id="SVGID_2_">
					<use xlink:href="#SVGID_1_"  overflow="visible"/>
				</clipPath>
				<rect x="83.1" y="25.4" clip-path="url(#SVGID_2_)" fill="#EE7A23" width="13.1" height="13.1"/>
				<polygon clip-path="url(#SVGID_2_)" fill="#60BD97" points="96.2,51.6 83.1,38.5 96.2,38.5 				"/>
			</g>
		</g>
		<g>
			<circle fill="#424143" cx="50" cy="50.2" r="3.4"/>
			<g>
				<defs>
					<circle id="SVGID_3_" cx="50" cy="50.2" r="3.4"/>
				</defs>
				<clipPath id="SVGID_4_">
					<use xlink:href="#SVGID_3_"  overflow="visible"/>
				</clipPath>
				<polygon clip-path="url(#SVGID_4_)" fill="#EE7A23" points="51.2,44.7 50,50.3 43.7,47 54.1,46.2 				"/>
				<polygon clip-path="url(#SVGID_4_)" fill="#0797A7" points="54,54.3 45.9,54.3 50,50.3 54,50.3 				"/>
				<polygon clip-path="url(#SVGID_4_)" fill="#60BD97" points="54.1,54.3 50,50.3 50.9,45.8 54,48.8 				"/>
			</g>
		</g>
		<g>
			<circle fill="#424143" cx="58.7" cy="50.2" r="3.4"/>
			<g>
				<defs>
					<circle id="SVGID_5_" cx="58.7" cy="50.2" r="3.4"/>
				</defs>
				<clipPath id="SVGID_6_">
					<use xlink:href="#SVGID_5_"  overflow="visible"/>
				</clipPath>
				<polygon clip-path="url(#SVGID_6_)" fill="#0797A7" points="59,56.1 49.7,49.7 58.7,50.3 62.8,50.3 				"/>
				<polygon clip-path="url(#SVGID_6_)" fill="#60BD97" points="60.3,55.3 58.7,50.3 62.8,50.3 				"/>
				<polygon clip-path="url(#SVGID_6_)" fill="#EE7A23" points="62.6,51.4 58.7,50.3 58.7,46.2 62.8,46.2 				"/>
			</g>
		</g>
		<g>
			<circle fill="#424143" cx="67.4" cy="50.2" r="3.4"/>
			<g>
				<defs>
					<circle id="SVGID_7_" cx="67.4" cy="50.2" r="3.4"/>
				</defs>
				<clipPath id="SVGID_8_">
					<use xlink:href="#SVGID_7_"  overflow="visible"/>
				</clipPath>
				<polygon clip-path="url(#SVGID_8_)" fill="#EE7A23" points="70.9,47.5 67.4,50.3 67.4,46.2 71.5,46.2 				"/>
				<polygon clip-path="url(#SVGID_8_)" fill="#0797A7" points="71.5,54.3 63.3,54.3 67.4,50.3 71.5,50.3 				"/>
				<polygon clip-path="url(#SVGID_8_)" fill="#60BD97" points="71.5,54.3 67.4,50.3 71.1,47.3 				"/>
			</g>
		</g>
		<g>
			<g>
				<path fill="#909295" d="M102.4,51.2V54h-3.1v-2.7H102.4 M102.4,50.8h-3.1c-0.2,0-0.4,0.2-0.4,0.4V54c0,0.2,0.2,0.4,0.4,0.4h3.1
					c0.2,0,0.4-0.2,0.4-0.4v-2.7C102.8,51,102.6,50.8,102.4,50.8L102.4,50.8z"/>
				<path fill="#909295" d="M105.9,51.2V54h-3.1v-2.7H105.9 M105.9,50.8h-3.1c-0.2,0-0.4,0.2-0.4,0.4V54c0,0.2,0.2,0.4,0.4,0.4h3.1
					c0.2,0,0.4-0.2,0.4-0.4v-2.7C106.3,51,106.1,50.8,105.9,50.8L105.9,50.8z"/>
				<path fill="#909295" d="M109.4,51.2V54h-3.1v-2.7H109.4 M109.4,50.8h-3.1c-0.2,0-0.4,0.2-0.4,0.4V54c0,0.2,0.2,0.4,0.4,0.4h3.1
					c0.2,0,0.4-0.2,0.4-0.4v-2.7C109.8,51,109.6,50.8,109.4,50.8L109.4,50.8z"/>
				<path fill="#909295" d="M112.9,51.2V54h-3.1v-2.7H112.9 M112.9,50.8h-3.1c-0.2,0-0.4,0.2-0.4,0.4V54c0,0.2,0.2,0.4,0.4,0.4h3.1
					c0.2,0,0.4-0.2,0.4-0.4v-2.7C113.3,51,113.1,50.8,112.9,50.8L112.9,50.8z"/>
				<path fill="#909295" d="M102.4,48.2V51h-3.1v-2.7H102.4 M102.4,47.9h-3.1c-0.2,0-0.4,0.2-0.4,0.4V51c0,0.2,0.2,0.4,0.4,0.4h3.1
					c0.2,0,0.4-0.2,0.4-0.4v-2.7C102.8,48,102.6,47.9,102.4,47.9L102.4,47.9z"/>
				<path fill="#909295" d="M105.9,48.2V51h-3.1v-2.7H105.9 M105.9,47.9h-3.1c-0.2,0-0.4,0.2-0.4,0.4V51c0,0.2,0.2,0.4,0.4,0.4h3.1
					c0.2,0,0.4-0.2,0.4-0.4v-2.7C106.3,48,106.1,47.9,105.9,47.9L105.9,47.9z"/>
				<path fill="#909295" d="M109.4,48.2V51h-3.1v-2.7H109.4 M109.4,47.9h-3.1c-0.2,0-0.4,0.2-0.4,0.4V51c0,0.2,0.2,0.4,0.4,0.4h3.1
					c0.2,0,0.4-0.2,0.4-0.4v-2.7C109.8,48,109.6,47.9,109.4,47.9L109.4,47.9z"/>
				<path fill="#909295" d="M112.9,48.2V51h-3.1v-2.7H112.9 M112.9,47.9h-3.1c-0.2,0-0.4,0.2-0.4,0.4V51c0,0.2,0.2,0.4,0.4,0.4h3.1
					c0.2,0,0.4-0.2,0.4-0.4v-2.7C113.2,48,113.1,47.9,112.9,47.9L112.9,47.9z"/>
				<path fill="#909295" d="M102.4,45.2V48h-3.1v-2.7H102.4 M102.4,44.9h-3.1c-0.2,0-0.4,0.2-0.4,0.4V48c0,0.2,0.2,0.4,0.4,0.4h3.1
					c0.2,0,0.4-0.2,0.4-0.4v-2.7C102.8,45,102.6,44.9,102.4,44.9L102.4,44.9z"/>
				<path fill="#909295" d="M105.9,45.2V48h-3.1v-2.7H105.9 M105.9,44.9h-3.1c-0.2,0-0.4,0.2-0.4,0.4V48c0,0.2,0.2,0.4,0.4,0.4h3.1
					c0.2,0,0.4-0.2,0.4-0.4v-2.7C106.3,45,106.1,44.9,105.9,44.9L105.9,44.9z"/>
				<path fill="#909295" d="M109.4,45.2V48h-3.1v-2.7H109.4 M109.4,44.9h-3.1c-0.2,0-0.4,0.2-0.4,0.4V48c0,0.2,0.2,0.4,0.4,0.4h3.1
					c0.2,0,0.4-0.2,0.4-0.4v-2.7C109.7,45,109.6,44.9,109.4,44.9L109.4,44.9z"/>
				<path fill="#909295" d="M112.8,45.2V48h-3.1v-2.7H112.8 M112.8,44.9h-3.1c-0.2,0-0.4,0.2-0.4,0.4V48c0,0.2,0.2,0.4,0.4,0.4h3.1
					c0.2,0,0.4-0.2,0.4-0.4v-2.7C113.2,45,113,44.9,112.8,44.9L112.8,44.9z"/>
				<path fill="#909295" d="M102.4,42.2V45h-3.1v-2.7H102.4 M102.4,41.9h-3.1c-0.2,0-0.4,0.2-0.4,0.4V45c0,0.2,0.2,0.4,0.4,0.4h3.1
					c0.2,0,0.4-0.2,0.4-0.4v-2.7C102.8,42,102.6,41.9,102.4,41.9L102.4,41.9z"/>
				<path fill="#909295" d="M105.9,42.2V45h-3.1v-2.7H105.9 M105.9,41.9h-3.1c-0.2,0-0.4,0.2-0.4,0.4V45c0,0.2,0.2,0.4,0.4,0.4h3.1
					c0.2,0,0.4-0.2,0.4-0.4v-2.7C106.2,42,106.1,41.9,105.9,41.9L105.9,41.9z"/>
				<path fill="#909295" d="M109.3,42.2V45h-3.1v-2.7H109.3 M109.3,41.9h-3.1c-0.2,0-0.4,0.2-0.4,0.4V45c0,0.2,0.2,0.4,0.4,0.4h3.1
					c0.2,0,0.4-0.2,0.4-0.4v-2.7C109.7,42,109.6,41.9,109.3,41.9L109.3,41.9z"/>
				<path fill="#909295" d="M112.8,42.2V45h-3.1v-2.7H112.8 M112.8,41.9h-3.1c-0.2,0-0.4,0.2-0.4,0.4V45c0,0.2,0.2,0.4,0.4,0.4h3.1
					c0.2,0,0.4-0.2,0.4-0.4v-2.7C113.2,42,113,41.9,112.8,41.9L112.8,41.9z"/>
			</g>
			<path fill="#909295" d="M111.7,37.7l1.1,4.2H99.3l1.1-4.2H111.7 M111.7,37.4h-11.3c-0.2,0-0.3,0.1-0.4,0.3l-1.1,4.2
				c0,0.1,0,0.2,0.1,0.3c0.1,0.1,0.2,0.1,0.3,0.1h13.5c0.1,0,0.2-0.1,0.3-0.1c0.1-0.1,0.1-0.2,0.1-0.3l-1.1-4.2
				C112,37.5,111.9,37.4,111.7,37.4L111.7,37.4z"/>
		</g>
	</g>
	<polygon fill-rule="evenodd" clip-rule="evenodd" fill="#212725" points="35.8,80 43.4,80 50.1,68.5 44.5,64.9 	"/>
	
		<rect x="58.4" y="34.9" transform="matrix(0.803 0.596 -0.596 0.803 42.3996 -24.8284)" fill="#212725" width="0.8" height="33.7"/>
</g>
</svg>
