<?xml version="1.0" encoding="utf-8"?>
<!-- Generator: Adobe Illustrator 18.1.1, SVG Export Plug-In . SVG Version: 6.00 Build 0)  -->
<svg version="1.1" id="Layer_1" xmlns="http://www.w3.org/2000/svg" xmlns:xlink="http://www.w3.org/1999/xlink" x="0px" y="0px"
	 viewBox="0 0 120 100" enable-background="new 0 0 120 100" xml:space="preserve">
<g>
	<g>
		<rect x="78.4" y="34.1" fill-rule="evenodd" clip-rule="evenodd" fill="#E7D5B6" width="8.7" height="8.9"/>
		<path fill-rule="evenodd" clip-rule="evenodd" fill="#FEEAC7" d="M95.7,23.3c-0.2,0-0.3,0.1-0.5,0.2c0-0.1,0-0.1,0-0.2
			c0-0.1,0-0.2-0.1-0.3c0-0.1-0.1-0.2-0.1-0.3c0-0.1-0.1-0.2-0.1-0.3c0-0.1-0.1-0.2-0.1-0.3c0-0.1-0.1-0.2-0.1-0.3
			c0-0.1-0.1-0.2-0.1-0.3c0-0.1-0.1-0.2-0.1-0.2c0-0.1-0.1-0.2-0.1-0.3c0-0.1-0.1-0.1-0.1-0.2c-0.1-0.1-0.1-0.2-0.2-0.3
			c0-0.1-0.1-0.1-0.1-0.2c-0.1-0.1-0.1-0.2-0.2-0.3c0-0.1-0.1-0.1-0.1-0.2c-0.1-0.1-0.1-0.2-0.2-0.4c0-0.1-0.1-0.1-0.1-0.2
			c-0.1-0.1-0.2-0.2-0.2-0.4c0,0-0.1-0.1-0.1-0.1c-0.1-0.1-0.2-0.2-0.3-0.4c0,0-0.1-0.1-0.1-0.1c-0.1-0.1-0.2-0.2-0.3-0.4
			c0,0-0.1-0.1-0.1-0.1c-0.1-0.1-0.2-0.2-0.3-0.3c0,0-0.1-0.1-0.1-0.1c-0.1-0.1-0.2-0.2-0.3-0.3c0,0,0,0-0.1-0.1
			c-0.1-0.1-0.2-0.2-0.4-0.3c0,0,0,0-0.1-0.1c-0.1-0.1-0.3-0.2-0.4-0.3c0,0,0,0-0.1,0c-0.1-0.1-0.3-0.2-0.4-0.3c0,0,0,0,0,0
			c-0.1-0.1-0.3-0.2-0.4-0.3c0,0,0,0,0,0c-0.2-0.1-0.3-0.2-0.5-0.3c0,0,0,0,0,0c-0.2-0.1-0.3-0.2-0.5-0.3c0,0,0,0,0,0
			c-0.2-0.1-0.3-0.2-0.5-0.3c0,0,0,0,0,0c-0.2-0.1-0.4-0.2-0.5-0.2c0,0,0,0,0,0c-1.1-0.4-2.3-0.7-3.5-0.8c0,0,0,0,0,0
			c-0.2,0-0.4,0-0.6,0c0,0,0,0,0,0c-0.1,0-0.2,0-0.3,0c-5.8,0-10.7,4.2-12,9.8c-0.1,0-0.2-0.1-0.3-0.1c-0.7,0-1.3,1.5-1.3,3.3
			c0,1.8,0.6,3.3,1.3,3.3c0.2,0,0.3-0.1,0.4-0.2c1.5,5.3,6.2,9.1,11.8,9.1c0.1,0,0.2,0,0.3,0c0,0,0,0,0,0c0.2,0,0.4,0,0.6,0
			c0,0,0,0,0,0c1.2-0.1,2.4-0.4,3.5-0.8c0,0,0,0,0,0c0.2-0.1,0.4-0.1,0.5-0.2c0,0,0,0,0,0c0.2-0.1,0.3-0.2,0.5-0.3c0,0,0,0,0,0
			c0.2-0.1,0.3-0.2,0.5-0.3c0,0,0,0,0,0c0.2-0.1,0.3-0.2,0.5-0.3c0,0,0,0,0,0c0.2-0.1,0.3-0.2,0.4-0.3c0,0,0,0,0,0
			c0.1-0.1,0.3-0.2,0.4-0.3c0,0,0,0,0.1,0c0.1-0.1,0.3-0.2,0.4-0.3c0,0,0,0,0.1-0.1c0.1-0.1,0.2-0.2,0.4-0.3c0,0,0,0,0.1-0.1
			c0.1-0.1,0.2-0.2,0.3-0.3c0,0,0.1-0.1,0.1-0.1c0.1-0.1,0.2-0.2,0.3-0.3c0,0,0.1-0.1,0.1-0.1c0.1-0.1,0.2-0.2,0.3-0.4
			c0,0,0.1-0.1,0.1-0.1c0.1-0.1,0.2-0.2,0.3-0.4c0,0,0.1-0.1,0.1-0.1c0.1-0.1,0.2-0.2,0.2-0.4c0-0.1,0.1-0.1,0.1-0.2
			c0.1-0.1,0.1-0.2,0.2-0.3c0-0.1,0.1-0.1,0.1-0.2c0.1-0.1,0.1-0.2,0.2-0.3c0-0.1,0.1-0.1,0.1-0.2c0.1-0.1,0.1-0.2,0.2-0.3
			c0-0.1,0.1-0.1,0.1-0.2c0-0.1,0.1-0.2,0.1-0.3c0-0.1,0.1-0.2,0.1-0.2c0-0.1,0.1-0.2,0.1-0.3c0-0.1,0.1-0.2,0.1-0.3
			c0-0.1,0.1-0.2,0.1-0.3c0-0.1,0.1-0.2,0.1-0.3c0,0,0-0.1,0-0.1c0.2,0.3,0.4,0.4,0.6,0.4c0.7,0,1.3-1.5,1.3-3.3
			C97,24.8,96.4,23.3,95.7,23.3z"/>
		<path fill-rule="evenodd" clip-rule="evenodd" fill="#EE7A23" d="M111.6,70.9c0-10.8-4.2-21.7-10-25.2c-3.4-2.3-9.6-3.8-18.6-3.8
			c-8.9,0-15.6,1.6-19.1,3.8C58,49.1,54.3,60,54.3,70.9v3h10.4v-3c0-7.1,2.3-11.6,3.7-13.8v16.9h28.8V57.6c1.6,2.4,3.9,6.7,3.9,13.2
			v3h10.4V70.9z"/>
		<path fill-rule="evenodd" clip-rule="evenodd" fill="#603A17" d="M95,22.7c0-0.1-0.1-0.3-0.1-0.4c-0.1-0.2-0.1-0.4-0.2-0.6
			c-0.1-0.2-0.1-0.3-0.2-0.5c-0.1-0.2-0.1-0.3-0.2-0.5c-0.1-0.2-0.2-0.4-0.3-0.6c-0.1-0.1-0.1-0.2-0.2-0.4c-0.1-0.2-0.3-0.4-0.4-0.6
			c-0.1-0.1-0.1-0.2-0.2-0.3c-0.2-0.2-0.3-0.4-0.5-0.6c0-0.1-0.1-0.1-0.1-0.2c-0.2-0.2-0.4-0.4-0.6-0.7c0,0-0.1-0.1-0.1-0.1
			c-0.2-0.2-0.4-0.4-0.7-0.7c0,0,0,0-0.1-0.1c-0.3-0.2-0.5-0.4-0.8-0.6c0,0,0,0,0,0c-2-1.5-4.5-2.4-7.2-2.4c-6.6,0-12,5.4-12.3,12.1
			c0.8-0.9,1.2-2.1,2-3c1.3-1.5,2.9-2.5,4.3-3.8c1-0.9,2.6-1,3.6,0c0.7,0.8,1.7,1.6,2.8,2.2l0,0c0,0,0,0,0,0
			c0.4,0.2,0.7,0.4,1.1,0.5c0,0,0.1,0,0.1,0c0.1,0,0.2,0.1,0.3,0.1c0,0,0,0,0.1,0c0.2,0.1,0.4,0.1,0.6,0.2c0.1,0,0.2,0,0.3,0.1
			c0.1,0,0.2,0,0.3,0.1c0.2,0,0.3,0,0.5,0.1c0.1,0,0.1,0,0.2,0c0.1,0,0.3,0,0.4,0c0,0,0.1,0,0.2,0c0.2,0,0.3,0,0.5,0
			c0,0,0.1,0,0.1,0c0.2,0,0.3-0.1,0.5-0.1c0,0,0,0,0.1,0c0.2,0,0.3-0.1,0.5-0.2c0,0,0.1,0,0.1-0.1c0.2-0.1,0.3-0.2,0.5-0.3
			c1.2-0.7,2.7-0.2,3.4,0.9c0.3,0.5,1.2,1,2,1.4C95.2,23.4,95.1,23.1,95,22.7z"/>
		<g>
			<g>
				<path fill-rule="evenodd" clip-rule="evenodd" fill="#F1A240" d="M96.6,19.4c0-0.1,0-0.2-0.1-0.3c-0.2-0.7-0.8-2.8-0.8-3.6
					c0-6-5.6-10.8-12.5-10.8c-6.9,0-12.5,4.8-12.5,10.8c0,0.7-0.6,2.7-1,3.9H96.6z"/>
				<path fill-rule="evenodd" clip-rule="evenodd" fill="#F1A240" d="M83.1,8.6c1.8,0,3.2-1.4,3.2-3.2c0-1.8-1.4-3.2-3.2-3.2
					s-3.2,1.4-3.2,3.2C79.8,7.2,81.3,8.6,83.1,8.6z"/>
				<g>
					<g>
						<g>
							<path fill-rule="evenodd" clip-rule="evenodd" fill="#D08D34" d="M75.9,6.8c1.1-0.7,2.4-1.3,3.7-1.6c0.1,0.2,0.1,0.5,0.1,0.7
								v8.7c0,1.1-0.9,1.9-1.9,1.9l0,0c-1.1,0-1.9-0.9-1.9-1.9V6.8z"/>
						</g>
						<g>
							<path fill-rule="evenodd" clip-rule="evenodd" fill="#D08D34" d="M86.5,5.1c1.3,0.3,2.6,0.8,3.7,1.5v8c0,1.1-0.9,1.9-1.9,1.9
								l0,0c-1.1,0-1.9-0.9-1.9-1.9V5.9C86.3,5.6,86.4,5.3,86.5,5.1z"/>
						</g>
					</g>
				</g>
			</g>
			<path fill-rule="evenodd" clip-rule="evenodd" fill="#D08D34" d="M97.3,19.5c0,0.6-0.5,1-1,1H70c-0.6,0-1-0.5-1-1l0,0
				c0-0.6,0.5-1,1-1h26.3C96.9,18.5,97.3,19,97.3,19.5L97.3,19.5z"/>
		</g>
		<path fill="#E7D5B6" d="M83.4,41.8"/>
		<path fill-rule="evenodd" clip-rule="evenodd" fill="#FFFFFF" d="M77.3,42.1l5.6,17.8L88.1,42c0,0-0.8-0.2-4.9-0.2
			C79.1,41.8,77.3,42.1,77.3,42.1z"/>
		<ellipse fill-rule="evenodd" clip-rule="evenodd" fill="#212725" cx="83.1" cy="41.8" rx="2.8" ry="1.7"/>
		<polygon fill-rule="evenodd" clip-rule="evenodd" fill="#212725" points="82.3,42.7 81.1,54 82.9,59.9 84.7,54.1 84.1,42.7 		"/>
		<rect x="87.3" y="59.7" fill-rule="evenodd" clip-rule="evenodd" fill="#FFFFFF" width="7.4" height="4"/>
		<polygon opacity="0.4" fill-rule="evenodd" clip-rule="evenodd" fill="#212725" points="88.1,42 92.6,46.6 82.9,59.9 		"/>
		<polygon opacity="0.4" fill-rule="evenodd" clip-rule="evenodd" fill="#212725" points="77.3,42.1 73.5,46.6 83,60 		"/>
		<rect x="82.5" y="59.8" opacity="0.4" fill-rule="evenodd" clip-rule="evenodd" fill="#212725" width="0.9" height="14.1"/>
	</g>
	<g>
		<rect x="34" y="45.5" fill-rule="evenodd" clip-rule="evenodd" fill="#E7D5B6" width="9.4" height="9.6"/>
		<path fill-rule="evenodd" clip-rule="evenodd" fill="#FEEAC7" d="M52.7,33.8c-0.2,0-0.4,0.1-0.5,0.3c0-0.1,0-0.1,0-0.2
			c0-0.1,0-0.2-0.1-0.3c0-0.1-0.1-0.2-0.1-0.3c0-0.1-0.1-0.2-0.1-0.3c0-0.1-0.1-0.2-0.1-0.3c0-0.1-0.1-0.2-0.1-0.3
			c0-0.1-0.1-0.2-0.1-0.4c0-0.1-0.1-0.2-0.1-0.3c0-0.1-0.1-0.2-0.2-0.4c0-0.1-0.1-0.2-0.1-0.2C51.1,31,51,30.9,51,30.7
			c0-0.1-0.1-0.1-0.1-0.2c-0.1-0.1-0.1-0.2-0.2-0.4c0-0.1-0.1-0.1-0.1-0.2c-0.1-0.1-0.2-0.3-0.2-0.4c0-0.1-0.1-0.1-0.1-0.2
			c-0.1-0.1-0.2-0.3-0.3-0.4c0,0-0.1-0.1-0.1-0.1c-0.1-0.1-0.2-0.3-0.3-0.4c0,0-0.1-0.1-0.1-0.1c-0.1-0.1-0.2-0.3-0.3-0.4
			c0,0-0.1-0.1-0.1-0.1c-0.1-0.1-0.2-0.3-0.3-0.4c0,0-0.1-0.1-0.1-0.1c-0.1-0.1-0.2-0.2-0.4-0.4c0,0-0.1-0.1-0.1-0.1
			c-0.1-0.1-0.3-0.2-0.4-0.4c0,0,0,0-0.1-0.1c-0.1-0.1-0.3-0.2-0.4-0.4c0,0,0,0-0.1,0c-0.1-0.1-0.3-0.2-0.5-0.3c0,0,0,0,0,0
			c-0.2-0.1-0.3-0.2-0.5-0.3c0,0,0,0,0,0c-0.2-0.1-0.3-0.2-0.5-0.3c0,0,0,0,0,0c-0.2-0.1-0.4-0.2-0.5-0.3c0,0,0,0,0,0
			c-0.2-0.1-0.4-0.2-0.6-0.3c0,0,0,0,0,0c-0.2-0.1-0.4-0.2-0.6-0.2c0,0,0,0,0,0c-1.2-0.5-2.5-0.8-3.8-0.9c0,0,0,0,0,0
			c-0.2,0-0.4,0-0.7,0c0,0,0,0,0,0c-0.1,0-0.2,0-0.4,0c-6.3,0-11.6,4.5-13,10.6c-0.1,0-0.2-0.1-0.3-0.1c-0.8,0-1.4,1.6-1.4,3.6
			c0,2,0.6,3.6,1.4,3.6c0.2,0,0.3-0.1,0.5-0.2c1.6,5.7,6.7,9.9,12.8,9.9c0.1,0,0.2,0,0.4,0c0,0,0,0,0,0c0.2,0,0.4,0,0.7,0
			c0,0,0,0,0,0c1.3-0.1,2.6-0.4,3.8-0.9c0,0,0,0,0,0c0.2-0.1,0.4-0.2,0.6-0.2c0,0,0,0,0,0c0.2-0.1,0.4-0.2,0.6-0.3c0,0,0,0,0,0
			c0.2-0.1,0.4-0.2,0.5-0.3c0,0,0,0,0,0c0.2-0.1,0.3-0.2,0.5-0.3c0,0,0,0,0,0c0.2-0.1,0.3-0.2,0.5-0.3c0,0,0,0,0,0
			c0.2-0.1,0.3-0.2,0.5-0.3c0,0,0,0,0.1,0c0.1-0.1,0.3-0.2,0.4-0.4c0,0,0,0,0.1-0.1c0.1-0.1,0.3-0.2,0.4-0.4c0,0,0.1-0.1,0.1-0.1
			c0.1-0.1,0.2-0.2,0.4-0.4c0,0,0.1-0.1,0.1-0.1c0.1-0.1,0.2-0.2,0.3-0.4c0,0,0.1-0.1,0.1-0.1c0.1-0.1,0.2-0.3,0.3-0.4
			c0,0,0.1-0.1,0.1-0.1c0.1-0.1,0.2-0.3,0.3-0.4c0,0,0.1-0.1,0.1-0.1c0.1-0.1,0.2-0.3,0.3-0.4c0-0.1,0.1-0.1,0.1-0.2
			c0.1-0.1,0.2-0.3,0.2-0.4c0-0.1,0.1-0.1,0.1-0.2c0.1-0.1,0.1-0.2,0.2-0.4c0-0.1,0.1-0.1,0.1-0.2c0.1-0.1,0.1-0.2,0.2-0.4
			c0-0.1,0.1-0.2,0.1-0.2c0.1-0.1,0.1-0.2,0.2-0.4c0-0.1,0.1-0.2,0.1-0.3c0-0.1,0.1-0.2,0.1-0.4c0-0.1,0.1-0.2,0.1-0.3
			c0-0.1,0.1-0.2,0.1-0.3c0-0.1,0.1-0.2,0.1-0.3c0-0.1,0-0.1,0-0.2c0.2,0.3,0.4,0.5,0.7,0.5c0.8,0,1.4-1.6,1.4-3.6
			C54.1,35.4,53.4,33.8,52.7,33.8z"/>
		<path fill-rule="evenodd" clip-rule="evenodd" fill="#212725" d="M69.9,85.4c0-11.7-4.6-23.5-10.9-27.3C55.3,55.7,48.6,54,38.9,54
			c-9.7,0-16.9,1.7-20.6,4.1C11.9,61.8,7.8,73.7,7.8,85.4v3.3h11.3v-3.3c0-7.7,2.5-12.6,4.1-15v18.3h31.2V71.1
			c1.7,2.6,4.2,7.2,4.2,14.3v3.3h11.3V85.4z"/>
		<path fill-rule="evenodd" clip-rule="evenodd" fill="#603A17" d="M51.9,33.2c0-0.2-0.1-0.3-0.1-0.5c-0.1-0.2-0.1-0.4-0.2-0.7
			c-0.1-0.2-0.2-0.4-0.2-0.6c-0.1-0.2-0.1-0.3-0.2-0.5c-0.1-0.2-0.2-0.4-0.3-0.6c-0.1-0.1-0.1-0.3-0.2-0.4c-0.1-0.2-0.3-0.5-0.4-0.7
			c-0.1-0.1-0.1-0.2-0.2-0.3c-0.2-0.2-0.3-0.5-0.5-0.7c-0.1-0.1-0.1-0.1-0.1-0.2c-0.2-0.2-0.4-0.5-0.6-0.7c0,0-0.1-0.1-0.1-0.1
			c-0.2-0.2-0.5-0.5-0.7-0.7c0,0,0,0-0.1-0.1c-0.3-0.2-0.6-0.5-0.8-0.7c0,0,0,0,0,0c-2.2-1.6-4.9-2.6-7.8-2.6
			c-7.2,0-13,5.8-13.3,13.1c0.8-1,1.4-2.3,2.2-3.3c1.4-1.6,3.1-2.7,4.6-4.1c1.1-1,2.8-1.1,3.9,0c0.8,0.9,1.9,1.7,3,2.4l0,0
			c0,0,0,0,0,0c0.4,0.2,0.8,0.4,1.2,0.6c0,0,0.1,0,0.1,0.1c0.1,0,0.2,0.1,0.4,0.1c0,0,0,0,0.1,0c0.2,0.1,0.4,0.1,0.7,0.2
			c0.1,0,0.2,0,0.3,0.1c0.1,0,0.2,0,0.3,0.1c0.2,0,0.3,0.1,0.5,0.1c0.1,0,0.1,0,0.2,0c0.1,0,0.3,0,0.4,0c0.1,0,0.1,0,0.2,0
			c0.2,0,0.4,0,0.6,0c0.1,0,0.1,0,0.2,0c0.2,0,0.3-0.1,0.5-0.1c0,0,0,0,0.1,0c0.2-0.1,0.4-0.1,0.6-0.2c0,0,0.1,0,0.1-0.1
			c0.2-0.1,0.4-0.2,0.6-0.3c1.3-0.8,3-0.3,3.7,1c0.4,0.6,1.3,1.1,2.1,1.5C52.1,34,52,33.6,51.9,33.2z"/>
		<g>
			<g>
				<path fill-rule="evenodd" clip-rule="evenodd" fill="#F1A240" d="M53.6,29.6c0-0.1,0-0.2-0.1-0.3c-0.2-0.8-0.9-3-0.9-3.9
					c0-6.5-6-11.7-13.5-11.7c-7.5,0-13.5,5.2-13.5,11.7c0,0.7-0.7,3-1.1,4.2H53.6z"/>
				<path fill-rule="evenodd" clip-rule="evenodd" fill="#F1A240" d="M39,18c1.9,0,3.5-1.6,3.5-3.5c0-1.9-1.6-3.5-3.5-3.5
					c-1.9,0-3.5,1.6-3.5,3.5C35.5,16.4,37.1,18,39,18z"/>
				<g>
					<g>
						<g>
							<path fill-rule="evenodd" clip-rule="evenodd" fill="#D08D34" d="M31.2,16c1.2-0.8,2.6-1.4,4.1-1.8c0.1,0.2,0.1,0.5,0.1,0.8
								v9.4c0,1.2-0.9,2.1-2.1,2.1l0,0c-1.2,0-2.1-0.9-2.1-2.1V16z"/>
						</g>
						<g>
							<path fill-rule="evenodd" clip-rule="evenodd" fill="#D08D34" d="M42.7,14.1c1.5,0.3,2.8,0.9,4,1.6v8.6
								c0,1.2-0.9,2.1-2.1,2.1l0,0c-1.2,0-2.1-0.9-2.1-2.1V15C42.5,14.7,42.6,14.4,42.7,14.1z"/>
						</g>
					</g>
				</g>
			</g>
			<path fill-rule="evenodd" clip-rule="evenodd" fill="#D08D34" d="M54.5,29.8c0,0.6-0.5,1.1-1.1,1.1H24.8c-0.6,0-1.1-0.5-1.1-1.1
				l0,0c0-0.6,0.5-1.1,1.1-1.1h28.5C54,28.7,54.5,29.2,54.5,29.8L54.5,29.8z"/>
		</g>
		<path fill="#E7D5B6" d="M39.4,53.9"/>
		<path fill-rule="evenodd" clip-rule="evenodd" fill="#FFFFFF" d="M32.8,54.2l6.1,19.3l5.6-19.4c0,0-0.9-0.2-5.3-0.2
			S32.8,54.2,32.8,54.2z"/>
		<ellipse fill-rule="evenodd" clip-rule="evenodd" fill="#0797A7" cx="39" cy="53.9" rx="3" ry="1.8"/>
		<polygon fill-rule="evenodd" clip-rule="evenodd" fill="#0797A7" points="38.2,54.9 36.8,67.2 38.8,73.5 40.8,67.2 40.1,54.9 		
			"/>
		<rect x="43.6" y="73.3" fill-rule="evenodd" clip-rule="evenodd" fill="#FFFFFF" width="8.1" height="4.3"/>
		<polygon fill-rule="evenodd" clip-rule="evenodd" fill="#141B17" points="44.5,54.2 49.4,59.1 38.8,73.5 		"/>
		<polygon fill-rule="evenodd" clip-rule="evenodd" fill="#141B17" points="32.8,54.2 28.6,59.1 38.9,73.6 		"/>
		<rect x="38.4" y="73.4" fill-rule="evenodd" clip-rule="evenodd" fill="#141B17" width="0.9" height="15.3"/>
	</g>
	<g>
		<path fill="#818182" d="M88,96.5c0,0.7-0.6,1.3-1.3,1.3H51.7c-0.7,0-1.3-0.6-1.3-1.3V51.4c0-0.7,0.6-1.3,1.3-1.3h35.1
			c0.7,0,1.3,0.6,1.3,1.3V96.5z"/>
		<path fill="#F2F4EF" d="M85.4,92.6c0,0.7-0.6,1.3-1.3,1.3H54.3c-0.7,0-1.3-0.6-1.3-1.3V55.3c0-0.7,0.6-1.3,1.3-1.3h29.8
			c0.7,0,1.3,0.6,1.3,1.3V92.6z"/>
		<path fill="#212725" d="M77.2,46.9h-3.1v-1.1c0-0.7-0.6-1.3-1.3-1.3h-7.1c-0.7,0-1.3,0.6-1.3,1.3v1.1h-3.1c-0.7,0-1.3,0.6-1.3,1.3
			v7.6c0,0.7,0.6,1.3,1.3,1.3h16c0.7,0,1.3-0.6,1.3-1.3v-7.6C78.5,47.5,77.9,46.9,77.2,46.9z"/>
		<g>
			<path fill="#212725" d="M63.8,68.9h-6.7c-0.2,0-0.3-0.1-0.3-0.3v-6.7c0-0.2,0.1-0.3,0.3-0.3h6.7c0.2,0,0.3,0.1,0.3,0.3v6.7
				C64.1,68.8,64,68.9,63.8,68.9z M57.4,68.3h6.1v-6.1h-6.1V68.3z"/>
			<path fill="#F1A240" d="M59.8,67.8c-0.1,0-0.3-0.1-0.4-0.2l-1.4-1.6c-0.2-0.2-0.2-0.5,0-0.7c0.2-0.2,0.5-0.2,0.7,0l1,1.1l2.5-3.5
				c0.2-0.2,0.5-0.3,0.7-0.1c0.2,0.2,0.3,0.5,0.1,0.7l-2.8,4C60.2,67.8,60,67.8,59.8,67.8C59.9,67.8,59.9,67.8,59.8,67.8z"/>
		</g>
		<g>
			<path fill="#212725" d="M63.8,78.2h-6.7c-0.2,0-0.3-0.1-0.3-0.3v-6.7c0-0.2,0.1-0.3,0.3-0.3h6.7c0.2,0,0.3,0.1,0.3,0.3v6.7
				C64.1,78.1,64,78.2,63.8,78.2z M57.4,77.6h6.1v-6.1h-6.1V77.6z"/>
			<path fill="#F1A240" d="M59.8,77.2c-0.1,0-0.3-0.1-0.4-0.2l-1.4-1.6c-0.2-0.2-0.2-0.5,0-0.7c0.2-0.2,0.5-0.2,0.7,0l1,1.1l2.5-3.5
				c0.2-0.2,0.5-0.3,0.7-0.1c0.2,0.2,0.3,0.5,0.1,0.7l-2.8,4C60.2,77.1,60,77.1,59.8,77.2C59.9,77.2,59.9,77.2,59.8,77.2z"/>
		</g>
		<g>
			<path fill="#212725" d="M63.8,87.6h-6.7c-0.2,0-0.3-0.1-0.3-0.3v-6.7c0-0.2,0.1-0.3,0.3-0.3h6.7c0.2,0,0.3,0.1,0.3,0.3v6.7
				C64.1,87.4,64,87.6,63.8,87.6z M57.4,86.9h6.1v-6.1h-6.1V86.9z"/>
			<path fill="#F1A240" d="M59.8,86.5c-0.1,0-0.3-0.1-0.4-0.2l-1.4-1.6c-0.2-0.2-0.2-0.5,0-0.7c0.2-0.2,0.5-0.2,0.7,0l1,1.1l2.5-3.5
				c0.2-0.2,0.5-0.3,0.7-0.1c0.2,0.2,0.3,0.5,0.1,0.7l-2.8,4C60.2,86.4,60,86.5,59.8,86.5C59.9,86.5,59.9,86.5,59.8,86.5z"/>
		</g>
		<g>
			<path fill="#212725" d="M82,68.7H65.8c-0.2,0-0.3-0.1-0.3-0.3c0-0.2,0.1-0.3,0.3-0.3H82c0.2,0,0.3,0.1,0.3,0.3
				C82.4,68.6,82.2,68.7,82,68.7z"/>
			<path fill="#212725" d="M82,78.2H65.8c-0.2,0-0.3-0.1-0.3-0.3c0-0.2,0.1-0.3,0.3-0.3H82c0.2,0,0.3,0.1,0.3,0.3
				C82.4,78,82.2,78.2,82,78.2z"/>
			<path fill="#212725" d="M82,87.4H65.8c-0.2,0-0.3-0.1-0.3-0.3c0-0.2,0.1-0.3,0.3-0.3H82c0.2,0,0.3,0.1,0.3,0.3
				C82.4,87.2,82.2,87.4,82,87.4z"/>
		</g>
	</g>
</g>
</svg>
